<?xml version="1.0" encoding="utf-8"?>
<!-- Generator: Adobe Illustrator 21.1.0, SVG Export Plug-In . SVG Version: 6.00 Build 0)  -->
<svg version="1.1" id="Layer_1" xmlns="http://www.w3.org/2000/svg" xmlns:xlink="http://www.w3.org/1999/xlink" x="0px" y="0px"
	 width="310px" height="112px" viewBox="0 0 310 112" enable-background="new 0 0 310 112" xml:space="preserve">
<g>
	<g>
		<path fill="#FFFFFF" d="M10.8,32.9c0,4.2,1.4,6.6,6.7,6.6c3.4,0,8.2-0.4,12.3-1.1l1.5,9.4c-4.7,1-9,1.5-13.8,1.5
			C5.4,49.2,0,43.3,0,34.6V14.6C0,6,5.4,0,17.4,0c4.8,0,9.1,0.5,13.8,1.5l-1.5,9.4c-4.2-0.7-8.9-1.1-12.3-1.1
			c-5.3,0-6.7,2.4-6.7,6.6V32.9z"/>
		<path fill="#FFFFFF" d="M37,48.5V0.7h10.8V39h18.9v9.5H37z"/>
		<path fill="#FFFFFF" d="M72.2,48.5V0.7h10.8v47.8H72.2z"/>
		<path fill="#FFFFFF" d="M100.8,22l-0.7,26.5H89.6l2-47.8h10.8l11.5,30.4l11.5-30.4h10.8l2,47.8h-10.4L127,22l-8.3,20.4h-9.6
			L100.8,22z"/>
		<path fill="#FFFFFF" d="M186.4,48.5h-11.2l-2.6-9.3h-16l-2.6,9.3h-11.2l14.6-47.8h14.4L186.4,48.5z M159.1,30.2h11l-5.5-20
			L159.1,30.2z"/>
		<path fill="#FFFFFF" d="M207,10.3v38.2h-10.8V10.3h-12.8V0.7h36.5v9.5H207z"/>
		<path fill="#FFFFFF" d="M224.9,48.5V0.7h30.1v9.5h-19.3V19h17.8v9.5h-17.8V39h19.3v9.5H224.9z"/>
		<path fill="#FFFFFF" d="M81.8,112c-5.5,0-11.3-1.2-15.4-3.1l1.8-8.3c4.4,1.4,8.8,2.3,13.8,2.3c5.5,0,6.6-1.1,6.6-5.1
			c0-4.3-0.2-4.8-8-6.5C69,88.8,67.2,86.5,67.2,76.1c0-9.5,3.4-13.3,16.5-13.3c4.2,0,9.2,0.4,14.5,1.6l-1.1,9
			c-5.5-0.9-9-1.4-13.3-1.4c-4.8,0-5.9,0.9-5.9,4.4c0,4.6,0.2,4.7,7.7,6.5c12.9,3.1,13.6,5.6,13.6,15C99.3,107.3,96.2,112,81.8,112z
			"/>
		<path fill="#FFFFFF" d="M115.5,95.6c0,4.2,1.4,6.6,6.7,6.6c3.4,0,8.2-0.4,12.3-1.1l1.5,9.4c-4.7,1-9,1.5-13.8,1.5
			c-12.1,0-17.4-6-17.4-14.6V77.4c0-8.7,5.4-14.6,17.4-14.6c4.8,0,9.1,0.5,13.8,1.5l-1.5,9.4c-4.2-0.7-8.9-1.1-12.3-1.1
			c-5.3,0-6.7,2.4-6.7,6.6V95.6z"/>
		<path fill="#FFFFFF" d="M177.4,97.4c0,7.2-5,14.6-18.5,14.6s-18.5-7.4-18.5-14.6V77.4c0-7.2,5-14.6,18.5-14.6s18.5,7.4,18.5,14.6
			V97.4z M166.6,78.3c0-3.7-2.4-6-7.7-6c-5.4,0-7.7,2.3-7.7,6v18.1c0,3.7,2.4,6,7.7,6c5.4,0,7.7-2.3,7.7-6V78.3z"/>
		<path fill="#FFFFFF" d="M202.9,96.8h-8.2v14.5H184V63.5h19.5c11.6,0,15.9,4.6,15.9,13.6v6.2C219.4,92.3,214.6,96.8,202.9,96.8z
			 M208.7,78.1c0-3.4-1.2-5-5.7-5h-8.2v14.4h8.2c4.7,0,5.7-1.8,5.7-5.2V78.1z"/>
		<path fill="#FFFFFF" d="M224.9,111.3V63.5h30.1V73h-19.3v8.8h17.8v9.5h-17.8v10.4h19.3v9.5H224.9z"/>
	</g>
	<g opacity="0.8">
		<path fill="#FFFFFF" d="M300.7,99.2V86.5h7.8v25h-7.6c-4.6-4.4-5.3-5.2-9.5-9c-6.9-6.1-7.3-6.7-11.5-6.7h-1.1
			c-2.2,0-2.9,1.4-2.9,4.9c0,3,0.5,7.5,1.2,10.2l-7.5,1.2c-1-3.8-1.6-8.2-1.6-11.8c0-9.5,3-13.3,9.7-13.3c0.1,0,1.5,0,1.6,0
			c5.9,0,7,0.1,13.8,5.7C296.7,95.5,298.8,97.4,300.7,99.2z"/>
		<path fill="#FFFFFF" d="M298.2,54c6.2,0,10.9,3.2,10.9,13.6s-4.8,13.6-10.9,13.6h-19.3c-6.2,0-10.9-3.2-10.9-13.6
			S272.8,54,278.9,54H298.2z M297,72.4c3.1,0,4.4-0.9,4.4-4.8s-1.3-4.8-4.4-4.8h-16.8c-3.1,0-4.4,0.9-4.4,4.8s1.3,4.8,4.4,4.8H297z"
			/>
		<path fill="#FFFFFF" d="M308.5,39.4h-29.6l3.8,7l-7.3,3.8l-6.7-11.7v-8h39.9V39.4z"/>
		<path fill="#FFFFFF" d="M308.5,13.3v9.1L276.5,9.3v16.5h-7.8V0h7.5L308.5,13.3z"/>
	</g>
</g>
</svg>
