<?xml version="1.0" encoding="utf-8"?>
<!-- Generator: Adobe Illustrator 21.0.0, SVG Export Plug-In . SVG Version: 6.00 Build 0)  -->
<svg version="1.1" id="Layer_1" xmlns="http://www.w3.org/2000/svg" xmlns:xlink="http://www.w3.org/1999/xlink" x="0px" y="0px"
	 width="552px" height="128px" viewBox="0 0 552 128" enable-background="new 0 0 552 128" xml:space="preserve">
<g>
	<g>
		<path d="M14.5,14.4h12c10.9,0,15.7,3.4,15.7,10.5c0,6.1-4.8,10.2-14.5,10.2H14.5V14.4z M0,83.4h29.3c15.4,0,30.8-5.5,30.8-23.2
			c0-10.5-7.4-18.5-17.6-19.7v-0.2c8.4-2.5,14.2-8.6,14.2-17.8c0-14.8-12.7-20.5-25-20.5H0V83.4z M14.5,47.5h13.9
			c11.7,0,17.3,3,17.3,11.5c0,10.7-10.4,12-17.8,12H14.5V47.5z"/>
		<rect x="69.6" width="13.8" height="83.4"/>
		<path d="M106.5,55.8c0-8.6,6.1-16.6,16.2-16.6c10.1,0,16.2,7.9,16.2,16.6c0,8.6-6.1,16.6-16.2,16.6
			C112.6,72.3,106.5,64.4,106.5,55.8 M92.7,55.8c0,17.4,13.3,29,30,29c16.7,0,30-11.6,30-29c0-17.4-13.3-29-30-29
			C106,26.8,92.7,38.4,92.7,55.8"/>
		<path d="M172.8,55.8c0-8.6,6.1-16.6,16.2-16.6c10.1,0,16.2,7.9,16.2,16.6c0,8.6-6.1,16.6-16.2,16.6
			C178.9,72.3,172.8,64.4,172.8,55.8 M159,55.8c0,17.4,13.4,29,30,29c16.7,0,30-11.6,30-29c0-17.4-13.3-29-30-29
			C172.3,26.8,159,38.4,159,55.8"/>
		<path d="M227.5,28.2h13.1v8.6h0.2c2.4-5.2,7.7-10,16.9-10c8.5,0,14.4,3.3,17.3,10.2c4-7,9.9-10.2,18.2-10.2
			c14.7,0,19.9,10.5,19.9,23.7v32.9h-13.8V52.1c0-6.9-2.1-12.9-10.2-12.9c-8.6,0-11.9,7.1-11.9,14.3v29.9h-13.8V50.5
			c0-6.8-2.8-11.3-9.4-11.3c-9.1,0-12.7,6.7-12.7,14v30.1h-13.8V28.2z"/>
		<path d="M370,55.8c0,8.6-6.1,16.6-16.2,16.6c-10.1,0-16.2-7.9-16.2-16.6c0-8.6,6.1-16.6,16.2-16.6C363.9,39.2,370,47.1,370,55.8
			 M324.3,83.4h13.1v-8.3h0.2c4,6.7,11.3,9.7,19,9.7c17,0,27.3-12.7,27.3-29c0-16.3-10.9-29-26.7-29c-10.4,0-15.9,4.8-18.7,8.4h-0.3
			V0h-13.8V83.4z"/>
		<path d="M403.9,50.2c1-7.9,6.1-13.1,14.3-13.1c8.6,0,13.9,5.1,14,13.1H403.9z M446,60.6v-3.8c0-19.2-10.5-30-25.9-30
			c-16.7,0-30,11.6-30,29c0,17.4,13.3,29,30,29c8.7,0,16.9-3.1,23.4-11l-9.9-7.5c-3.5,4.2-7.9,7.5-14.8,7.5
			c-7.7,0-13.9-4.9-14.9-13.1H446z"/>
		<path d="M455,28.2h13.8v8.7h0.2c3-6.3,9.1-10.1,16.3-10.1c1.7,0,3.3,0.3,4.9,0.8v13.3c-2.3-0.6-4.5-1-6.7-1
			c-13,0-14.9,10.9-14.9,13.9v29.6H455V28.2z"/>
		<path d="M521.2,39.2c10,0,16.3,6.7,16.3,16.2c0,9.2-6.2,16.2-16.4,16.2c-9.3,0-16.2-7.2-16.2-16C504.9,45.9,511.6,39.2,521.2,39.2
			 M537.5,28.2v8.3h-0.2c-4-6.7-11.3-9.7-19-9.7c-17,0-27.3,12.7-27.3,29c0,15.6,10.9,28.3,27.5,28.3c6.9,0,14-2.7,18.1-8.1h0.2v4
			c0,10.9-4.1,18.5-17.5,18.5c-7.7,0-13.5-2.9-19-7.9l-8.3,11.3c7.8,6.9,17.1,9.1,27.4,9.1c21.5,0,31.2-12.7,31.2-32.6V28.2H537.5z"
			/>
	</g>
	<g>
		<path d="M1.6,98.2h7.1l6.3,10.7c2.3,4.1,3,5.4,4.4,7.9L19,98.2h6.9v29h-7.1l-5.4-9.2c-2.6-4.3-3.1-5.2-5.1-9.1l0.2,18.2H1.6V98.2z
			"/>
		<path d="M31.8,98.2h21.4v5.6H39v5.3h13.3v5.5H39v6.9h15.5v5.7H31.8V98.2z"/>
		<path d="M79.1,98.2c0.9,3.1,1.7,6.2,2.7,9.4c1.6,5.6,1.9,6.5,2.8,12.1c0.9-5.7,1.1-6.7,2.4-12.6c0.6-3,1.3-5.9,1.9-8.8H96l-7.3,29
			h-7.5c-0.9-3.2-1.8-6.4-2.7-9.6c-1.6-5.3-1.6-5.5-2.5-9.6c-0.7,3.6-0.8,3.9-2.5,9.4l-2.8,9.8h-7.5l-7.3-29h7.2
			c3.1,13.8,3.4,15.3,4.3,21.6c1.1-5.7,1.4-6.9,2.9-12.6l2.4-8.9H79.1z"/>
		<path d="M110,98.2h21.4v5.6h-14.2v5.3h13.3v5.5h-13.3v6.9h15.5v5.7H110V98.2z"/>
		<path d="M137,98.2h7.1l6.3,10.7c2.3,4.1,3,5.4,4.4,7.9l-0.3-18.6h6.9v29h-7.1l-5.4-9.2c-2.6-4.3-3.1-5.2-5.1-9.1l0.2,18.2H137
			V98.2z"/>
		<path d="M167.3,98.2h21.4v5.6h-14.2v5.3h13.3v5.5h-13.3v6.9H190v5.7h-22.7V98.2z"/>
		<path d="M194.3,98.2h13.1c3,0,6.8,0.1,9.5,3c1.4,1.5,2.3,3.8,2.3,6.4c0,5.8-4,7.3-6,8l6.7,11.6h-8l-5.7-10.3h-4.6v10.3h-7.3V98.2z
			 M201.6,103.6v7.8h6c1,0,4.4-0.1,4.4-4c0-3.7-2.7-3.8-4.2-3.9H201.6z"/>
		<path d="M243.6,124.4c-1.2,1.1-3.7,3.4-8.5,3.4c-8.1,0-13.1-6.6-13.1-15.1c0-9.3,6-15.5,14.3-15.5c7.7,0,11.4,4.9,12.8,6.7
			l-5.5,3.3c-1-1.6-2.7-4.1-6.7-4.1c-5.5,0-7.6,4.6-7.6,9.4c0,3.3,0.9,6,2.3,7.4c1.1,1.2,3.1,2.1,5.3,2.1c1.3,0,2.8-0.3,4-1.1
			c1.9-1.2,2.1-2.8,2.3-4.3h-6.5V111h12.6v16.1h-5.7V124.4z"/>
		<path d="M249.9,98.2h8.3l6.2,9.9c0.4-0.8,0.5-1,1.2-2.2l5-7.8h8.3l-11,15.3v13.7h-7.1v-13.5L249.9,98.2z"/>
		<path d="M315,98.2v5.6h-15v6.1h13.8v5.6H300v11.7h-7.2v-29H315z"/>
		<path d="M326,98.2v29h-7.2v-29H326z"/>
		<path d="M331.8,98.2h7.1l6.3,10.7c2.3,4.1,3,5.4,4.4,7.9l-0.3-18.6h6.9v29h-7.1l-5.4-9.2c-2.6-4.3-3.1-5.2-5.1-9.1l0.2,18.2h-6.9
			V98.2z"/>
		<path d="M377.4,98.2l10.7,29h-7.7l-1.4-4.6h-10.7l-1.4,4.6h-7.7l10.8-29H377.4z M373.5,105c-0.4,1.5-0.8,3-1.2,4.5
			c-0.6,2.2-1.7,5.6-2.4,7.8h7.3L373.5,105z"/>
		<path d="M391,98.2h7.1l6.3,10.7c2.3,4.1,3,5.4,4.4,7.9l-0.3-18.6h6.9v29h-7.1l-5.4-9.2c-2.6-4.3-3.1-5.2-5.1-9.1l0.2,18.2H391
			V98.2z"/>
		<path d="M446.2,120.5c-1.1,1.7-2.1,3.3-4.4,4.9c-1.2,0.9-4.1,2.5-8.1,2.5c-7.7,0-13.9-5.6-13.9-15.4c0-8.6,5.8-15.4,14-15.4
			c3.3,0,6.3,1.2,8.5,2.9c2,1.6,3,3.2,3.8,4.6l-5.7,2.9c-0.4-0.9-0.9-1.9-2.2-3c-1.4-1.1-2.8-1.4-4-1.4c-4.7,0-7.1,4.4-7.1,9.2
			c0,6.4,3.2,9.5,7.1,9.5c3.8,0,5.3-2.6,6.3-4.3L446.2,120.5z"/>
		<path d="M449.6,98.2H471v5.6h-14.2v5.3h13.3v5.5h-13.3v6.9h15.5v5.7h-22.7V98.2z"/>
	</g>
</g>
</svg>
