<?xml version="1.0" encoding="utf-8"?>
<!-- Generator: Adobe Illustrator 21.0.0, SVG Export Plug-In . SVG Version: 6.00 Build 0)  -->
<svg version="1.1" id="Layer_1" xmlns="http://www.w3.org/2000/svg" xmlns:xlink="http://www.w3.org/1999/xlink" x="0px" y="0px"
	 width="208px" height="128px" viewBox="0 0 208 128" enable-background="new 0 0 208 128" xml:space="preserve">
<g>
	<g>
		<g>
			<path d="M95.2,80.6h9.7l14.9-44.9v44.9h9.5V24.7h-15.5l-13.6,42.9l-14-42.9h-9.7L95.2,80.6z"/>
			<path d="M140.9,80.6h9.6V24.8h-9.6v55.5V80.6z"/>
			<path d="M171.4,80.4V37.8L194,80.4h12.9V24.7h-9.6v43.2l-22.7-43.2h-12.7v55.6H171.4L171.4,80.4z"/>
			<path d="M48,82c17.4-0.1,27.4-12.7,27.4-29.1l0,0c-0.1-16.7-10-29.4-27.1-29.6l0,0v8.3c5.9,0.1,10.3,2.8,13,6.7l0,0
				c2.7,4,3.8,9.3,3.8,14.5l0,0c0,5-1.1,10.2-3.8,14.1l0,0c-2.7,4-7.2,6.7-13.3,6.7l0,0c-10,0-15.1-7.1-16.6-14.9l0,0H21.1
				C23.3,72.1,32.8,81.9,48,82L48,82z"/>
			<path d="M35.2,11.2c-15.9,0-16.8,9.2-17.2,12.3h13.7V49H0V26.7C0,9.5,14.6,0,35.2,0V11.2z"/>
		</g>
		<text transform="matrix(1 0 0 1 25.4805 105.7851)"><tspan x="0" y="0" font-family="'MyriadPro-Regular'" font-size="15.3203px">Multilateral Investment Fund</tspan><tspan x="16.6" y="18.4" font-family="'MyriadPro-Regular'" font-size="15.3203px">Member of the </tspan><tspan x="112.9" y="18.4" font-family="'MyriadPro-Semibold'" font-size="15.3203px">IDB Group</tspan></text>
	</g>
</g>
</svg>
