<?xml version="1.0" encoding="utf-8"?>
<!-- Generator: Adobe Illustrator 21.0.0, SVG Export Plug-In . SVG Version: 6.00 Build 0)  -->
<svg version="1.1" id="devseed-flat-neg" xmlns="http://www.w3.org/2000/svg" xmlns:xlink="http://www.w3.org/1999/xlink" x="0px"
	 y="0px" width="750px" height="128px" viewBox="0 0 750 128" enable-background="new 0 0 750 128" xml:space="preserve">
<path d="M120,0H8C3.6,0,0,3.6,0,8v112c0,4.4,3.6,8,8,8h57.6c0-4,1.2-6.4,0.4-10.4C58,94,45.2,90.4,21.2,78c7.6,0,14.4,0.8,20.8,5.2
	C38.8,78,34.8,78,31.2,74c0,0,7.6,2.8,10,4c14.4,8.4,18.8,18,26.4,36.8c-0.4-4-0.4-10.8-0.8-12.4c-0.4-2.4-5.6-13.2-9.6-18.4
	c-14-18.4-26.8-35.6-42.8-52c8.8,6,29.6,21.6,34.8,29.2C46.8,50,36.4,38.4,26.4,29.6C44,34,56.8,62.4,64,77.2
	c0.8,2.8,2.8,9.2,3.6,11.6c0,0.8,0.8,2.8,1.2,5.2l-0.4-3.6c0,0-1.6-8.4-2-11.2c-3.2-16.8-7.2-33.2-8-50c0-3.2-1.6-11.6-2.4-15.6
	c-0.8-4.4-4.8-12-4.8-12.4c0,0,4.8,3.6,6.4,5.2c5.2,6,4,13.2,8.4,19.2c-1.6-8.8,0-14.4-7.6-20.8C68,8,65.6,13.6,68.4,22
	c2.8-7.2,6-16.4,14.8-18c-8,6.8-5.2,58.8-11.2,76.4c0,1.2-1.6,25.2-2,28.8c0.8-3.2,1.6-5.6,4-7.6c-0.8,2.4-1.6,4.8-1.6,7.2
	c4-6.4,6.4-5.6,12-7.6c-6,4-10,6.8-12.4,13.2c-0.8,1.2-0.8,6.4-1.2,8v5.6H120c4.4,0,8-3.6,8-8V8C128,3.6,124.4,0,120,0z M91.2,66
	C86,77.6,80.8,86,79.6,87.6c-2.8,3.6-5.2,7.6-6,12c-5.2-11.6,6-33.2,6.8-36.8c2.8-9.2,8-24.4,17.2-30.4c-6.8,8-9.2,19.2-9.6,29.6
	c0,0,6-7.2,8-9.2c5.6-5.6,10-10,17.6-11.2C103.2,47.2,95.6,54.4,91.2,66z M624,63.2c-2-1.2-4-2.4-6.4-3.2l-6.4-2.8
	c-2-1.2-4-2-5.2-3.6c-1.2-1.2-2-3.2-2-5.6c0-1.2,0.4-2.4,0.8-3.2s1.2-1.6,2-2.4c0.8-0.4,2-1.2,3.2-1.6s2.8-0.8,4.4-0.8
	c1.6,0,3.2,0.4,4.4,0.8c1.2,0.4,2,0.8,2.8,1.6c0.8,0.4,1.2,1.6,1.6,2.4c0.4,1.2,0.4,2,0.4,3.2l6-0.8c0-1.6-0.4-3.2-0.8-4.8
	c-0.4-1.6-1.2-2.8-2.4-4s-2.8-2-4.8-2.8c-1.6-0.8-4-1.2-6.8-1.2s-5.2,0-7.2,0.8s-3.6,1.6-5.2,2.8c-1.2,1.2-2.4,2.8-3.2,4.4
	c-0.8,2-1.2,4-1.2,6c0,3.2,0.8,5.6,2,7.6s2.8,3.6,4.8,4.8s4,2.4,6.4,3.2s4.4,2,6.4,2.8c2,1.2,3.6,2,4.8,3.6c1.2,1.2,2,3.2,2,5.6
	c0,2.8-0.8,5.2-2.8,6.8s-4.4,2.4-7.6,2.4c-2.4,0-4-0.4-5.6-0.8c-1.2-0.4-2.4-1.2-3.2-2s-1.2-1.6-1.6-2.8s-0.4-2-0.4-3.2l-6,0.8
	c-0.4,4,0.4,7.6,3.2,10s6.8,3.6,12.8,3.6c2.4,0,4.8-0.4,7.2-1.2c2-0.8,4-2,5.6-3.2s2.8-2.8,3.6-4.8l0,0c0.8-2,1.2-4,1.6-6
	c0-3.2-0.8-5.6-2-7.6C627.6,66,626,64.4,624,63.2z M645.6,64.8h16v-5.6h-16v-18H666l0.4-5.6h-27.6V90v0.4h28v-5.6h-21.2L645.6,64.8
	L645.6,64.8z M682,64.8h16v-5.6h-16v-18h20.4l0.4-5.6h-27.6V90v0.4h28v-5.6H682V64.8z M742.8,42.8c-4-4.8-10.4-7.2-18.4-7.2h-11.6
	V90h11.6c4,0,7.2-0.8,10.4-2c2.8-1.2,5.6-3.2,7.6-5.6s3.6-5.2,4.8-8.8l0,0c1.2-3.6,1.6-7.2,1.6-11.2C748.8,54,746.8,47.6,742.8,42.8
	z M737.6,78.8c-2.8,3.6-6.8,5.6-12.4,5.6h-5.6V40.8h4.4c6.4,0,10.8,2,13.6,6s4,9.2,4.4,16C742,69.6,740.4,75.2,737.6,78.8z
	 M267.6,63.6l-5.2,19.2c-2-6.8-4-13.2-5.6-19.6L252,44h-6.8c0.8,3.2,1.6,6.8,2.4,10.4c1.2,3.2,2,7.2,3.2,10.8l3.6,12
	c1.6,4,2.8,8.4,4.4,13.2h7.2c1.6-4.4,2.8-8.8,4-12.8c1.2-4.4,2.4-8.4,3.6-12c1.2-4,2.4-7.6,3.2-11.2c1.2-3.6,2-7.2,2-10.4h-6.4
	C270.8,50.8,269.2,57.2,267.6,63.6z M582.4,85.6h-2c-1.6,0-2.8-0.4-3.6-0.8s-1.6-1.2-2-2s-0.8-2-0.8-3.6v-30h8.8l0.4-5.6h-9.6V30
	l-6.8,0.8v12.8H560v5.6h6.8v25.6c0,2.8,0,5.6,0.4,7.6c0,2.4,0.8,4,1.6,5.2s2,2.4,3.6,2.8s4,0.8,6.4,0.8c2,0,4-0.4,6.4-0.4l-0.8-5.6
	L582.4,85.6z M233.2,84.4c-2,0.8-4.4,1.2-6.4,1.2c-3.6,0-6-1.2-8-4S216,74.4,216,68v-0.8h26.8c0.4-8.4-0.8-14.8-3.6-18.8
	c-3.2-4-7.2-6-12.8-6s-10,2.4-13.2,6.8s-4.8,11.2-4.8,20c0,7.6,1.6,13.2,4.4,16.8c2.8,3.6,7.2,5.2,13.2,5.2c3.2,0,6.4-0.8,9.2-2
	s5.2-2.4,8-4l-2.8-4.8C237.6,82.4,235.2,83.6,233.2,84.4z M219.2,51.6c1.6-2.4,4-3.6,6.8-3.6s5.2,1.2,6.8,3.6
	c1.6,2.4,2.4,6,2.4,10.4h-18.8C216.8,57.6,217.6,54,219.2,51.6z M196,43.6c0-0.4-3.2-0.4-4.4-0.8c-1.2,0-2.4-0.4-4.4-0.4
	c-3.2,0-6.4,0.4-8.8,1.6s-4.4,2.8-6,4.8s-2.8,4.8-3.6,8c-0.4,3.2-0.8,6.8-0.8,10.4c0,7.6,1.2,13.6,4,17.6s6.8,6,11.6,6
	c3.2,0,5.6-0.4,7.6-1.6s3.6-2,5.2-4.8l0.4,7.2h7.2V24h-8V43.6z M196,70c0,2-0.4,4-0.8,6s-1.2,3.6-2.4,4.8c-0.8,1.2-2,2.4-3.6,3.2
	c-1.2,0.8-2.8,1.2-4.4,1.2c-3.2,0-5.6-1.6-7.2-4.8c-1.6-3.2-2.4-7.6-2.4-14c0-6,0.8-10.4,2.8-13.6c1.6-3.2,4.8-4.4,8.8-4.4
	c2,0,3.6,0,5.2,0.4c1.6,0.4,4,0.8,4,1.2L196,70L196,70z M322,90v0.4h6.8V26H322V90z M353.2,42.8c-6.4,0-11.2,2-14,6
	c-2.8,4.4-4.4,10.4-4.4,18.8c0,8,1.6,14,4.4,18c2.8,3.6,7.2,5.6,13.2,5.6c12,0,18-8,18-24.4c0-8-1.2-14-4-18
	C363.6,44.8,359.2,42.8,353.2,42.8z M352.8,85.2c-3.6,0-6.4-1.6-8-4.4s-2.4-7.6-2.4-14.4c0-6.4,0.8-10.8,2.4-14
	c1.6-2.8,4-4.4,7.6-4.4c4,0,6.8,1.6,8.4,4.8c1.2,2.8,2,7.6,2,14C362.8,79.2,359.2,85.2,352.8,85.2z M543.6,42.4
	c-2.4,0-4.4,0.8-6.8,2c-2,1.6-4.4,3.2-6.8,4.8l-0.4-5.6h-6V90h6.8V54.4c2.4-2,4.8-3.6,6.4-4.8s3.2-1.6,4.8-1.6c2.4,0,4,0.8,4.8,2.8
	s1.2,4.8,1.2,8V90h6.4V57.2c0-5.2-0.8-8.8-2.4-11.2C550.4,43.6,547.6,42.4,543.6,42.4z M515.2,80.4c-2.8,2-5.2,3.2-7.2,4
	s-4.4,1.2-6.4,1.2c-3.6,0-6-1.2-8-4s-2.8-7.2-2.8-13.6v-0.8h26.8c0.4-8.4-0.8-14.8-3.6-18.8c-3.2-4-7.2-6-12.8-6
	c-5.6,0-10,2.4-13.2,6.8s-4.8,11.2-4.8,20c0,7.6,1.6,13.2,4.4,16.8c2.8,3.6,7.2,5.2,13.2,5.2c3.2,0,6.4-0.8,9.2-2l0,0
	c2.4-1.2,5.2-2.4,8-4L515.2,80.4z M493.6,51.6c1.6-2.4,4-3.6,6.8-3.6s5.2,1.2,6.8,3.6c1.6,2.4,2.4,6,2.4,10.4h-18.8
	C491.2,57.6,492,54,493.6,51.6z M467.2,42.8c-2.4,0-4.4,0.8-6.8,2s-4.8,2.8-7.2,4.8c-0.8-2.4-2-4-3.2-5.2s-3.2-2-6-2
	c-2.4,0-4.8,0.8-6.8,2l-6.8,4.8l-0.4-5.6h-6V90h6.8V54.4c2.8-2,4.8-3.6,6.4-4.8s3.2-1.6,4.8-1.6c2.4,0,4,0.8,4.4,2.8s0.8,4.8,0.8,8
	V90h6.8V54.4c2.8-2,4.8-3.6,6.4-4.8s3.2-1.6,4.8-1.6c2.4,0,4,0.8,4.4,2.8s0.8,4.8,0.8,8V90v0.4h6.8V57.6c0-5.2-0.4-8.8-2-11.2
	C473.6,44,471.2,42.8,467.2,42.8z M398.4,42.4c-3.2,0-5.6,0.4-7.6,1.6s-3.6,2.8-5.2,5.6l-0.4-6h-6v62h6.8V90c2,0.4,3.2,0.8,4.4,0.8
	c1.2,0.4,2.8,0.4,4.4,0.4c6.8,0,11.6-2.4,14.8-6.8l0,0C412.8,80,414,74,414,66c0-7.6-1.2-13.6-4-17.6S403.6,42.4,398.4,42.4z
	 M404.4,81.2c-2,2.8-4.8,4.4-8.8,4.4c-2,0-3.6,0-5.2-0.4s-2.8-0.8-4-1.2V63.6c0-2.4,0-4,0.8-6s1.6-3.6,2.4-4.8s2-2.4,3.2-3.2
	s2.8-1.2,4.4-1.2c3.2,0,5.6,1.6,7.2,4.8c1.6,2.8,2.4,7.6,2.8,14.4C407.2,73.6,406.4,78.4,404.4,81.2z M306.4,84.4
	c-2,0.8-4.4,1.2-6.4,1.2c-3.6,0-6-1.2-8-4s-2.8-7.2-2.8-13.6v-0.8H316c0.4-8.4-0.8-14.8-3.6-18.8c-3.2-4-7.2-6-12.8-6
	c-5.6,0-10,2.4-13.2,6.8s-4.8,11.2-4.8,20c0,7.6,1.6,13.2,4.4,16.8c2.8,3.6,7.2,5.2,13.2,5.2c3.2,0,6.4-0.8,9.2-2
	c2.8-1.2,5.2-2.4,8-4l-2.8-4.8C310.8,82.4,308.4,83.6,306.4,84.4z M292.4,51.6c1.6-2.4,4-3.6,6.8-3.6s5.2,1.2,6.8,3.6
	c1.6,2.4,2.4,6,2,10.4h-18.4C290,57.6,290.8,54,292.4,51.6z"/>
</svg>
