<svg width="121" height="40" viewBox="0 0 121 40" fill="none" xmlns="http://www.w3.org/2000/svg">
<path d="M0.828125 36H2.60413V34.944H2.66413C2.84413 35.628 3.54013 36.144 4.35612 36.144C5.95213 36.144 6.78012 34.98 6.78012 32.844C6.78012 30.708 5.95213 29.556 4.35612 29.556C3.54013 29.556 2.84413 30.06 2.66413 30.756H2.60413V27.12H0.828125V36ZM3.76813 34.704C3.09613 34.704 2.60413 34.356 2.60413 33.78V31.92C2.60413 31.344 3.09613 30.996 3.76813 30.996C4.44012 30.996 4.93213 31.512 4.93213 32.304V33.396C4.93213 34.188 4.44012 34.704 3.76813 34.704Z" fill="#263238"/>
<path d="M10.9397 32.64L10.4717 34.464H10.3997L9.94372 32.64L9.01972 29.7H7.25572L9.46372 36.324L9.24772 37.02H8.05972V38.4H9.16372C10.2437 38.4 10.7717 37.944 11.0957 36.972L13.5197 29.7H11.8637L10.9397 32.64Z" fill="#263238"/>
<path d="M9.09166 16.802C7.81966 17.078 6.67366 17.216 5.65366 17.216C4.63366 17.216 3.81766 17.09 3.20566 16.838C2.59366 16.586 2.11366 16.184 1.76566 15.632C1.41766 15.08 1.17766 14.432 1.04566 13.688C0.913656 12.944 0.847656 12.008 0.847656 10.88C0.847656 8.51601 1.17766 6.87201 1.83766 5.94801C2.50966 5.01201 3.73966 4.54401 5.52766 4.54401C6.55966 4.54401 7.75366 4.70601 9.10966 5.03001L9.03766 7.01001C7.84966 6.83001 6.85966 6.74001 6.06766 6.74001C5.28766 6.74001 4.72966 6.84801 4.39366 7.06401C4.05766 7.26801 3.80566 7.66401 3.63766 8.25201C3.48166 8.84001 3.40366 9.84201 3.40366 11.258C3.40366 12.674 3.56566 13.658 3.88966 14.21C4.22566 14.75 4.88566 15.02 5.86966 15.02C6.86566 15.02 7.92166 14.936 9.03766 14.768L9.09166 16.802Z" fill="#263238"/>
<path d="M18.0731 17H11.1071V4.76001H13.5911V14.804H18.0731V17Z" fill="#263238"/>
<path d="M19.5973 17V4.76001H22.0813V17H19.5973Z" fill="#263238"/>
<path d="M24.7477 17V4.76001H28.9777L31.1377 13.688L33.2977 4.76001H37.5277V17H35.0437V7.53201H34.7737L32.3797 16.46H29.8957L27.5017 7.53201H27.2317V17H24.7477Z" fill="#263238"/>
<path d="M39.1729 17L41.9269 4.76001H46.6429L49.3969 17H46.9129L46.4269 14.786H42.1429L41.6569 17H39.1729ZM43.8529 6.81201L42.6109 12.626H45.9589L44.7169 6.81201H43.8529Z" fill="#263238"/>
<path d="M49.261 6.95601V4.76001H58.261V6.95601H55.021V17H52.537V6.95601H49.261Z" fill="#263238"/>
<path d="M59.8337 17V4.76001H67.7537V6.92001H62.3177V9.78201H66.6737V11.906H62.3177V14.84H67.7537V17H59.8337Z" fill="#263238"/>
<path d="M73.5625 6.70401C72.2545 6.70401 71.6005 7.13601 71.6005 8.00001C71.6005 8.38401 71.7625 8.67801 72.0865 8.88201C72.4105 9.08601 73.1665 9.38001 74.3545 9.76401C75.5545 10.148 76.3945 10.586 76.8745 11.078C77.3545 11.558 77.5945 12.302 77.5945 13.31C77.5945 14.594 77.2045 15.566 76.4245 16.226C75.6445 16.886 74.6245 17.216 73.3645 17.216C72.4285 17.216 71.2825 17.072 69.9265 16.784L69.2785 16.658L69.5304 14.732C71.1384 14.948 72.3685 15.056 73.2205 15.056C74.4925 15.056 75.1285 14.528 75.1285 13.472C75.1285 13.088 74.9785 12.788 74.6785 12.572C74.3905 12.356 73.8084 12.122 72.9324 11.87C71.5404 11.474 70.5565 11.006 69.9805 10.466C69.4165 9.91401 69.1345 9.15201 69.1345 8.18001C69.1345 6.95601 69.5065 6.04401 70.2505 5.44401C70.9945 4.84401 72.0145 4.54401 73.3105 4.54401C74.1985 4.54401 75.3265 4.66401 76.6945 4.90401L77.3425 5.03001L77.1445 6.99201C75.4525 6.80001 74.2585 6.70401 73.5625 6.70401Z" fill="#263238"/>
<path d="M87.3495 16.802C86.0775 17.078 84.9315 17.216 83.9115 17.216C82.8915 17.216 82.0755 17.09 81.4635 16.838C80.8515 16.586 80.3715 16.184 80.0235 15.632C79.6755 15.08 79.4355 14.432 79.3035 13.688C79.1715 12.944 79.1055 12.008 79.1055 10.88C79.1055 8.51601 79.4355 6.87201 80.0955 5.94801C80.7675 5.01201 81.9975 4.54401 83.7855 4.54401C84.8175 4.54401 86.0115 4.70601 87.3675 5.03001L87.2955 7.01001C86.1075 6.83001 85.1175 6.74001 84.3255 6.74001C83.5455 6.74001 82.9875 6.84801 82.6515 7.06401C82.3155 7.26801 82.0635 7.66401 81.8955 8.25201C81.7395 8.84001 81.6615 9.84201 81.6615 11.258C81.6615 12.674 81.8235 13.658 82.1475 14.21C82.4835 14.75 83.1435 15.02 84.1275 15.02C85.1235 15.02 86.1795 14.936 87.2955 14.768L87.3495 16.802Z" fill="#263238"/>
<path d="M91.7974 14.12C92.1574 14.744 92.8234 15.056 93.7954 15.056C94.7674 15.056 95.4274 14.744 95.7754 14.12C96.1354 13.484 96.3154 12.428 96.3154 10.952C96.3154 9.46401 96.1354 8.38401 95.7754 7.71201C95.4154 7.04001 94.7554 6.70401 93.7954 6.70401C92.8354 6.70401 92.1754 7.04001 91.8154 7.71201C91.4554 8.38401 91.2754 9.46401 91.2754 10.952C91.2754 12.428 91.4494 13.484 91.7974 14.12ZM97.7194 15.704C96.9634 16.712 95.6554 17.216 93.7954 17.216C91.9354 17.216 90.6214 16.712 89.8534 15.704C89.0974 14.684 88.7194 13.094 88.7194 10.934C88.7194 8.77401 89.0974 7.17201 89.8534 6.12801C90.6214 5.07201 91.9354 4.54401 93.7954 4.54401C95.6554 4.54401 96.9634 5.07201 97.7194 6.12801C98.4874 7.17201 98.8714 8.77401 98.8714 10.934C98.8714 13.094 98.4874 14.684 97.7194 15.704Z" fill="#263238"/>
<path d="M105.502 13.436H103.486V17H101.002V4.76001H105.502C108.406 4.76001 109.858 6.17601 109.858 9.00801C109.858 10.436 109.486 11.534 108.742 12.302C108.01 13.058 106.93 13.436 105.502 13.436ZM103.486 11.312H105.484C106.72 11.312 107.338 10.544 107.338 9.00801C107.338 8.25201 107.188 7.71201 106.888 7.38801C106.588 7.05201 106.12 6.88401 105.484 6.88401H103.486V11.312Z" fill="#263238"/>
<path d="M111.601 17V4.76001H119.521V6.92001H114.085V9.78201H118.441V11.906H114.085V14.84H119.521V17H111.601Z" fill="#263238"/>
<path d="M17.8208 27.8068H19.3211C20.7048 27.8068 21.302 28.2437 21.302 29.1323C21.302 29.9043 20.6903 30.4286 19.4813 30.4286H17.8208V27.8068ZM16 36.5027H19.6998C21.6371 36.5027 23.5743 35.8035 23.5743 33.5749C23.5743 32.2494 22.6421 31.2443 21.3603 31.0987V31.0696C22.4236 30.7491 23.1374 29.9771 23.1374 28.8264C23.1374 26.9619 21.5497 26.2482 19.9911 26.2482H16V36.5027ZM17.8208 31.9872H19.5687C21.0399 31.9872 21.739 32.3659 21.739 33.4293C21.739 34.7839 20.4281 34.9296 19.4959 34.9296H17.8208V31.9872Z" fill="#ADB3B9"/>
<path d="M26.499 26H24.7656V36.5021H26.499V26Z" fill="#ADB3B9"/>
<path d="M29.417 33.0214C29.417 31.9289 30.189 30.9384 31.4562 30.9384C32.738 30.9384 33.4954 31.9435 33.4954 33.0214C33.4954 34.1138 32.7234 35.1043 31.4562 35.1043C30.189 35.1189 29.417 34.1138 29.417 33.0214ZM27.6836 33.0214C27.6836 35.2063 29.3587 36.6775 31.4708 36.6775C33.5683 36.6775 35.2579 35.2208 35.2579 33.0214C35.2579 30.8365 33.5828 29.3653 31.4708 29.3653C29.3587 29.3799 27.6836 30.8365 27.6836 33.0214Z" fill="#ADB3B9"/>
<path d="M37.7607 33.0214C37.7607 31.9289 38.5327 30.9384 39.7999 30.9384C41.0672 30.9384 41.8392 31.9435 41.8392 33.0214C41.8392 34.1138 41.0672 35.1043 39.7999 35.1043C38.5327 35.1043 37.7607 34.1138 37.7607 33.0214ZM36.0273 33.0214C36.0273 35.2063 37.7024 36.6775 39.8145 36.6775C41.912 36.6775 43.6017 35.2208 43.6017 33.0214C43.6017 30.8365 41.9266 29.3653 39.8145 29.3653C37.7024 29.3799 36.0273 30.8365 36.0273 33.0214Z" fill="#ADB3B9"/>
<path d="M44.6552 29.5559H46.3012V30.6483H46.3303C46.6362 29.9928 47.3062 29.3811 48.4569 29.3811C49.5348 29.3811 50.2631 29.8035 50.6273 30.6775C51.1371 29.7889 51.88 29.3811 52.9141 29.3811C54.764 29.3811 55.4195 30.7066 55.4195 32.3671V36.5184H53.6861V32.571C53.6861 31.6971 53.424 30.9542 52.3898 30.9542C51.2973 30.9542 50.8895 31.8573 50.8895 32.7458V36.5184H49.1561V32.3671C49.1561 31.5077 48.8065 30.9542 47.9617 30.9542C46.811 30.9542 46.374 31.799 46.374 32.7167V36.5184H44.6406L44.6552 29.5559Z" fill="#ADB3B9"/>
<path d="M62.6119 33.0208C62.6119 34.1133 61.8399 35.1038 60.5727 35.1038C59.2908 35.1038 58.5334 34.0987 58.5334 33.0208C58.5334 31.9284 59.3054 30.9379 60.5727 30.9379C61.8545 30.9379 62.6119 31.9429 62.6119 33.0208ZM56.8438 36.5021H58.4897V35.4679H58.5188C59.0287 36.3128 59.9463 36.6915 60.9077 36.6915C63.0489 36.6915 64.3453 35.1038 64.3453 33.0354C64.3453 30.9816 62.9615 29.3793 60.9805 29.3793C59.6696 29.3793 58.985 29.9911 58.6208 30.4426H58.5771V26H56.8438V36.5021Z" fill="#ADB3B9"/>
<path d="M66.8768 32.3368C67.0079 31.3317 67.6488 30.6908 68.6685 30.6908C69.7609 30.6908 70.4164 31.3317 70.431 32.3368H66.8768ZM72.1789 33.6331V33.1525C72.1789 30.7345 70.8534 29.3653 68.9161 29.3653C66.8186 29.3653 65.1289 30.8365 65.1289 33.0214C65.1289 35.2063 66.804 36.6775 68.9161 36.6775C70.0231 36.6775 71.0427 36.2842 71.8584 35.2791L70.6057 34.3323C70.1688 34.8713 69.6007 35.2791 68.7413 35.2791C67.7654 35.2791 66.9934 34.6528 66.8768 33.6331H72.1789Z" fill="#ADB3B9"/>
<path d="M73.3203 29.5559H75.0537V30.6629H75.0828C75.4615 29.8618 76.2335 29.3811 77.1366 29.3811C77.3551 29.3811 77.559 29.4248 77.763 29.483V31.1581C77.4716 31.0853 77.1949 31.027 76.9181 31.027C75.2867 31.027 75.0537 32.4108 75.0537 32.775V36.5039H73.3203V29.5559Z" fill="#ADB3B9"/>
<path d="M81.665 30.9396C82.9323 30.9396 83.7188 31.7845 83.7188 32.9789C83.7188 34.1442 82.9323 35.0181 81.6505 35.0181C80.4706 35.0181 79.6112 34.1005 79.6112 33.008C79.6112 31.7845 80.4415 30.9396 81.665 30.9396ZM83.7188 29.5559V30.6046H83.6897C83.1799 29.7598 82.2622 29.3811 81.3009 29.3811C79.1597 29.3811 77.8633 30.9688 77.8633 33.0372C77.8633 35.0036 79.2471 36.6058 81.33 36.6058C82.204 36.6058 83.0925 36.2708 83.6023 35.5862H83.6314V36.096C83.6314 37.4798 83.1071 38.4266 81.432 38.4266C80.456 38.4266 79.7423 38.0624 79.0431 37.4215L77.9944 38.849C78.9849 39.723 80.1501 39.9997 81.4465 39.9997C84.1558 39.9997 85.3794 38.412 85.3794 35.8921V29.5559H83.7188Z" fill="#ADB3B9"/>
<path d="M94.5247 36.5026L89.5576 28.433H89.5285V36.5172H87.6641V26.0587H90.1257L94.9908 33.8807H95.0199V26.0442H96.8844V36.5026H94.5247Z" fill="#ADB3B9"/>
<path d="M98.1992 36.5026V26.0442H105.118V27.6756H100.049V30.3266H104.841V31.8852H100.049V34.8421H105.38V36.5026H98.1992Z" fill="#ADB3B9"/>
<path d="M108.478 32.1037V36.5026H106.613V26.0442H113.357V27.6756H108.463V30.5451H113.066V32.1037H108.478Z" fill="#ADB3B9"/>
</svg>
