<?xml version="1.0" encoding="utf-8"?>
<!-- Generator: Adobe Illustrator 19.1.0, SVG Export Plug-In . SVG Version: 6.00 Build 0)  -->
<svg version="1.1" id="Layer_1" xmlns="http://www.w3.org/2000/svg" xmlns:xlink="http://www.w3.org/1999/xlink" x="0px" y="0px"
	 viewBox="-223 345 512 512" style="enable-background:new -223 345 512 512;" xml:space="preserve">
<style type="text/css">
	.st0{fill:#231F20;}
</style>
<path class="st0" d="M32.3,729.3c-70.5,0-127.8-57.3-127.8-127.8c0-4.2,0.2-8.5,0.6-12.7c3.1-31.4,17.7-60.5,41.1-81.8
	c23.6-21.5,54.1-33.3,86.1-33.3c70.5,0,127.8,57.3,127.8,127.8C160.2,672,102.8,729.3,32.3,729.3z M32.3,528.6
	c-18.2,0-35.6,6.7-49,19c-13.3,12.2-21.7,28.7-23.4,46.6l0,0c-0.2,2.4-0.4,4.9-0.4,7.3c0,40.2,32.7,72.8,72.8,72.8
	c40.2,0,72.8-32.7,72.8-72.8C105.2,561.3,72.5,528.6,32.3,528.6z"/>
<path class="st0" d="M33.2,462.4c-16.6,0-30-13.4-30-30v-57.2c0-16.6,13.4-30,30-30c16.6,0,30,13.4,30,30v57.2
	C63.2,449,49.8,462.4,33.2,462.4z"/>
<path class="st0" d="M32.6,857c-16.6,0-30-13.4-30-30v-57.2c0-16.6,13.4-30,30-30s30,13.4,30,30V827C62.6,843.6,49.2,857,32.6,857z"
	/>
<path class="st0" d="M259.3,631.1H202c-16.6,0-30-13.4-30-30c0-16.6,13.4-30,30-30h57.2c16.6,0,30,13.4,30,30
	C289.3,617.7,275.8,631.1,259.3,631.1z"/>
<path class="st0" d="M-135.4,631.1h-57.2c-16.6,0-30-13.4-30-30c0-16.6,13.4-30,30-30h57.2c16.6,0,30,13.4,30,30
	C-105.4,617.7-118.8,631.1-135.4,631.1z"/>
<path class="st0" d="M152.5,513.5c-7.7,0-15.4-2.9-21.2-8.8c-11.7-11.7-11.7-30.7,0-42.4l40.5-40.5c11.7-11.7,30.7-11.7,42.4,0
	c11.7,11.7,11.7,30.7,0,42.4l-40.5,40.5C167.9,510.5,160.2,513.5,152.5,513.5z"/>
<path class="st0" d="M-128.7,792.7c-7.7,0-15.4-2.9-21.2-8.8c-11.7-11.7-11.7-30.7,0-42.4l40.5-40.5c11.7-11.7,30.7-11.7,42.4,0
	c11.7,11.7,11.7,30.7,0,42.4l-40.5,40.5C-113.4,789.8-121,792.7-128.7,792.7z"/>
<path class="st0" d="M-87,513.4c-7.7,0-15.4-2.9-21.2-8.8l-40.5-40.5c-11.7-11.7-11.7-30.7,0-42.4s30.7-11.7,42.4,0l40.5,40.5
	c11.7,11.7,11.7,30.7,0,42.4C-71.6,510.5-79.3,513.4-87,513.4z"/>
<path class="st0" d="M194.5,792.7c-7.7,0-15.4-2.9-21.2-8.8l-40.5-40.5c-11.7-11.7-11.7-30.7,0-42.4c11.7-11.7,30.7-11.7,42.4,0
	l40.5,40.5c11.7,11.7,11.7,30.7,0,42.4C209.9,789.8,202.2,792.7,194.5,792.7z"/>
</svg>
