<?xml version="1.0" encoding="utf-8"?>
<!-- Generator: Adobe Illustrator 17.1.0, SVG Export Plug-In . SVG Version: 6.00 Build 0)  -->
<!DOCTYPE svg PUBLIC "-//W3C//DTD SVG 1.1//EN" "http://www.w3.org/Graphics/SVG/1.1/DTD/svg11.dtd">
<svg version="1.1" id="Layer_1" xmlns="http://www.w3.org/2000/svg" xmlns:xlink="http://www.w3.org/1999/xlink" x="0px" y="0px"
	 width="512px" height="512px" viewBox="0 0 512 512" enable-background="new 0 0 512 512" xml:space="preserve">
<g id="svgGrid">
	<line fill="none" stroke="#B35047" x1="32" y1="0" x2="32" y2="512"/>
	<line fill="none" stroke="#B35047" x1="64" y1="0" x2="64" y2="512"/>
	<line fill="none" stroke="#B35047" x1="96" y1="0" x2="96" y2="512"/>
	<line fill="none" stroke="#B35047" x1="128" y1="0" x2="128" y2="512"/>
	<line fill="none" stroke="#B35047" x1="160" y1="0" x2="160" y2="512"/>
	<line fill="none" stroke="#B35047" x1="192" y1="0" x2="192" y2="512"/>
	<line fill="none" stroke="#B35047" x1="224" y1="0" x2="224" y2="512"/>
	<line fill="none" stroke="#B35047" x1="256" y1="0" x2="256" y2="512"/>
	<line fill="none" stroke="#B35047" x1="288" y1="0" x2="288" y2="512"/>
	<line fill="none" stroke="#B35047" x1="320" y1="0" x2="320" y2="512"/>
	<line fill="none" stroke="#B35047" x1="352" y1="0" x2="352" y2="512"/>
	<line fill="none" stroke="#B35047" x1="384" y1="0" x2="384" y2="512"/>
	<line fill="none" stroke="#B35047" x1="416" y1="0" x2="416" y2="512"/>
	<line fill="none" stroke="#B35047" x1="448" y1="0" x2="448" y2="512"/>
	<line fill="none" stroke="#B35047" x1="480" y1="0" x2="480" y2="512"/>
	<line fill="none" stroke="#B35047" x1="0" y1="32" x2="512" y2="32"/>
	<line fill="none" stroke="#B35047" x1="0" y1="64" x2="512" y2="64"/>
	<line fill="none" stroke="#B35047" x1="0" y1="96" x2="512" y2="96"/>
	<line fill="none" stroke="#B35047" x1="0" y1="128" x2="512" y2="128"/>
	<line fill="none" stroke="#B35047" x1="0" y1="160" x2="512" y2="160"/>
	<line fill="none" stroke="#B35047" x1="0" y1="192" x2="512" y2="192"/>
	<line fill="none" stroke="#B35047" x1="0" y1="224" x2="512" y2="224"/>
	<line fill="none" stroke="#B35047" x1="0" y1="256" x2="512" y2="256"/>
	<line fill="none" stroke="#B35047" x1="0" y1="288" x2="512" y2="288"/>
	<line fill="none" stroke="#B35047" x1="0" y1="320" x2="512" y2="320"/>
	<line fill="none" stroke="#B35047" x1="0" y1="352" x2="512" y2="352"/>
	<line fill="none" stroke="#B35047" x1="0" y1="384" x2="512" y2="384"/>
	<line fill="none" stroke="#B35047" x1="0" y1="416" x2="512" y2="416"/>
	<line fill="none" stroke="#B35047" x1="0" y1="448" x2="512" y2="448"/>
	<line fill="none" stroke="#B35047" x1="0" y1="480" x2="512" y2="480"/>
	<rect fill="none" stroke="#B35047" width="512" height="512"/>
</g>
<path fill="none" d="M404.7,309.6c1.9-1.2,1.8-7.1-9.6-10c-11.4-2.9-14.8-2.8-26.4-2.8c-6.3,0-13.4,0.3-21.1,0.9
	c20.1,8.6,34.4,13.9,46,13.9C397.2,311.5,402.7,310.8,404.7,309.6z"/>
<path fill="none" d="M243.1,170.6c4.4-7.8,7.9-18.3,7.6-33.4c-0.3-15-3.9-31.1-10.3-31.1c-2.9,0-2.7,22.8-2.7,22.8
	C237.8,140.9,239.5,159.1,243.1,170.6z"/>
<path fill="none" d="M115.4,394.2c9.7-4.4,24.5-18.4,46.6-53.6c-3,2.8-6.3,5.9-7.6,7C133.3,364.8,119,384.3,115.4,394.2z"/>
<path fill="none" d="M241,233.6c-5.4,14-12.6,30.9-24.1,52.7c-4.7,8.9-9.3,17.2-13.7,25.2c24.3-9.4,52-17,83.9-23.4
	c-2.2-1.7-4.3-3.3-6.2-5C265.1,269.7,251.7,253.1,241,233.6z"/>
<path d="M470.6,102.6L377.4,9.4c-6-6-14.1-9.4-22.6-9.4H32v512h448V125.3C480,116.8,476.6,108.6,470.6,102.6z M448,448H64V32h288v96
	h96V448z M296.8,250.2c-16.4-15.4-30.3-36.7-39.1-60.1c0.5-1.9,0.9-3.5,1.2-5l0-0.1l0-0.1c0.4-2.3,9.9-56.8,7.2-76.3
	c-0.4-3-0.7-4.1-1.5-6.4l0-0.1l0-0.1l-0.9-2.2l0-0.1l0-0.1c-4.3-9.9-11.7-15.5-20.4-15.5c-0.2,0-0.4,0-0.7,0L238,84l0,0l0,0l-0.1,0
	l-0.1,0h-0.1c-11.6,0-21.1,6.3-23.7,15.6c-6.2,22.9-0.2,55.9,10.8,98.3l-2.2,5.3c-7.9,19.2-17.8,38.7-26.6,55.9l-1.1,2.2
	c-8.5,16.7-16.7,31.9-24.4,45l-6.5,3.5c-0.6,0.3-14.1,7.5-17.5,9.5c-28.5,17-46.8,36-50,52.2c-2,9.8,2.4,16.2,7.1,18.9l0.1,0.1
	l0.1,0.1l7.6,3.8c4.1,2,8.3,3.1,12.7,3.1c21.3,0,44-23.4,75.5-78.1c33.9-10.9,72.4-20,106.2-25.2c27.6,15.2,60.2,25.4,81.7,25.4
	c4.2,0,7.8-0.4,10.8-1.2c5.3-1.4,9.7-4.5,12.5-8.6c4.4-6.6,6-15.8,4.6-26.7c-0.5-4.2-3.5-8.4-6.1-11c-7.3-7.2-21.8-10.8-44.4-11.1
	c-0.8,0-1.6,0-2.5,0c-13.4,0-29.1,1.2-45.5,3.4C310.1,260.3,302.6,255.6,296.8,250.2z M243.8,113.3c0.9,4.1,1.6,9.5,1.8,16
	c0.1,4-0.1,7.8-0.6,11.4c-0.8-6.9-1.2-13.9-1.2-19.5v0l0,0C243.7,118.6,243.7,115.9,243.8,113.3z M216.4,287.7
	c2.3-4.2,4.4-8.1,6.5-12c9-17,15.2-30.8,19.5-41.3c9,14.4,19.6,27,31.6,37.6C252.9,276.5,233.9,281.7,216.4,287.7z M389.2,291.3
	c1.1,0.3,2.1,0.6,2.8,0.9c-1,0.1-2,0.2-3,0.2c-5.2,0-11.2-1.3-18.4-3.6C377.2,288.8,380.7,289.1,389.2,291.3z"/>
</svg>
