<?xml version="1.0" encoding="utf-8"?>
<!-- Generator: Adobe Illustrator 19.1.0, SVG Export Plug-In . SVG Version: 6.00 Build 0)  -->
<svg version="1.1" id="Layer_1" xmlns="http://www.w3.org/2000/svg" xmlns:xlink="http://www.w3.org/1999/xlink" x="0px" y="0px"
	 viewBox="-223 345 512 512" style="enable-background:new -223 345 512 512;" xml:space="preserve">
<style type="text/css">
	.st0{fill:none;stroke:#B35047;}
	.st1{fill:#231F20;}
</style>
<g id="Layer_1_1_">
	<g id="svgGrid">
		<line class="st0" x1="-190.6" y1="345" x2="-190.6" y2="857"/>
		<line class="st0" x1="-158.6" y1="345" x2="-158.6" y2="857"/>
		<line class="st0" x1="-126.6" y1="345" x2="-126.6" y2="857"/>
		<line class="st0" x1="-94.6" y1="345" x2="-94.6" y2="857"/>
		<line class="st0" x1="-62.6" y1="345" x2="-62.6" y2="857"/>
		<line class="st0" x1="-30.6" y1="345" x2="-30.6" y2="857"/>
		<line class="st0" x1="1.4" y1="345" x2="1.4" y2="857"/>
		<line class="st0" x1="33.4" y1="345" x2="33.4" y2="857"/>
		<line class="st0" x1="65.4" y1="345" x2="65.4" y2="857"/>
		<line class="st0" x1="97.4" y1="345" x2="97.4" y2="857"/>
		<line class="st0" x1="129.4" y1="345" x2="129.4" y2="857"/>
		<line class="st0" x1="161.4" y1="345" x2="161.4" y2="857"/>
		<line class="st0" x1="193.4" y1="345" x2="193.4" y2="857"/>
		<line class="st0" x1="225.4" y1="345" x2="225.4" y2="857"/>
		<line class="st0" x1="257.4" y1="345" x2="257.4" y2="857"/>
		<line class="st0" x1="-222.6" y1="377" x2="289.4" y2="377"/>
		<line class="st0" x1="-222.6" y1="409" x2="289.4" y2="409"/>
		<line class="st0" x1="-222.6" y1="441" x2="289.4" y2="441"/>
		<line class="st0" x1="-222.6" y1="473" x2="289.4" y2="473"/>
		<line class="st0" x1="-222.6" y1="505" x2="289.4" y2="505"/>
		<line class="st0" x1="-222.6" y1="537" x2="289.4" y2="537"/>
		<line class="st0" x1="-222.6" y1="569" x2="289.4" y2="569"/>
		<line class="st0" x1="-222.6" y1="601" x2="289.4" y2="601"/>
		<line class="st0" x1="-222.6" y1="633" x2="289.4" y2="633"/>
		<line class="st0" x1="-222.6" y1="665" x2="289.4" y2="665"/>
		<line class="st0" x1="-222.6" y1="697" x2="289.4" y2="697"/>
		<line class="st0" x1="-222.6" y1="729" x2="289.4" y2="729"/>
		<line class="st0" x1="-222.6" y1="761" x2="289.4" y2="761"/>
		<line class="st0" x1="-222.6" y1="793" x2="289.4" y2="793"/>
		<line class="st0" x1="-222.6" y1="825" x2="289.4" y2="825"/>
		<polygon class="st0" points="-222.6,345 289.4,345 291.4,857 -220.6,857 		"/>
	</g>
</g>
<path class="st1" d="M164,858H-94.4L-161,534.6l388,0.2L164,858z M226,440.9V505h-385v-64.1h96.2V345h60.3v0.3h67.8V345h63.9v95.8
	H226z M1.5,440.9h63.8v-31.7H1.5V440.9z"/>
</svg>
