<?xml version="1.0" encoding="utf-8"?>
<!-- Generator: Adobe Illustrator 19.1.0, SVG Export Plug-In . SVG Version: 6.00 Build 0)  -->
<svg version="1.1" id="Layer_1" xmlns="http://www.w3.org/2000/svg" xmlns:xlink="http://www.w3.org/1999/xlink" x="0px" y="0px"
	 viewBox="-223 345 512 512" style="enable-background:new -223 345 512 512;" xml:space="preserve">
<style type="text/css">
	.st0{display:none;}
	.st1{display:inline;}
	.st2{fill:none;stroke:#B35047;}
	.st3{fill:none;stroke:#000000;stroke-width:60;stroke-linecap:round;stroke-miterlimit:10;}
</style>
<g id="Layer_1_1_" class="st0">
	<g id="svgGrid" class="st1">
		<line class="st2" x1="-191" y1="345" x2="-191" y2="857"/>
		<line class="st2" x1="-159" y1="345" x2="-159" y2="857"/>
		<line class="st2" x1="-127" y1="345" x2="-127" y2="857"/>
		<line class="st2" x1="-95" y1="345" x2="-95" y2="857"/>
		<line class="st2" x1="-63" y1="345" x2="-63" y2="857"/>
		<line class="st2" x1="-31" y1="345" x2="-31" y2="857"/>
		<line class="st2" x1="1" y1="345" x2="1" y2="857"/>
		<line class="st2" x1="33" y1="345" x2="33" y2="857"/>
		<line class="st2" x1="65" y1="345" x2="65" y2="857"/>
		<line class="st2" x1="97" y1="345" x2="97" y2="857"/>
		<line class="st2" x1="129" y1="345" x2="129" y2="857"/>
		<line class="st2" x1="161" y1="345" x2="161" y2="857"/>
		<line class="st2" x1="193" y1="345" x2="193" y2="857"/>
		<line class="st2" x1="225" y1="345" x2="225" y2="857"/>
		<line class="st2" x1="257" y1="345" x2="257" y2="857"/>
		<line class="st2" x1="-223" y1="377" x2="289" y2="377"/>
		<line class="st2" x1="-223" y1="409" x2="289" y2="409"/>
		<line class="st2" x1="-223" y1="441" x2="289" y2="441"/>
		<line class="st2" x1="-223" y1="473" x2="289" y2="473"/>
		<line class="st2" x1="-223" y1="505" x2="289" y2="505"/>
		<line class="st2" x1="-223" y1="537" x2="289" y2="537"/>
		<line class="st2" x1="-223" y1="569" x2="289" y2="569"/>
		<line class="st2" x1="-223" y1="601" x2="289" y2="601"/>
		<line class="st2" x1="-223" y1="633" x2="289" y2="633"/>
		<line class="st2" x1="-223" y1="665" x2="289" y2="665"/>
		<line class="st2" x1="-223" y1="697" x2="289" y2="697"/>
		<line class="st2" x1="-223" y1="729" x2="289" y2="729"/>
		<line class="st2" x1="-223" y1="761" x2="289" y2="761"/>
		<line class="st2" x1="-223" y1="793" x2="289" y2="793"/>
		<line class="st2" x1="-223" y1="825" x2="289" y2="825"/>
		<rect x="-223" y="345" class="st2" width="512" height="512"/>
	</g>
</g>
<path d="M-0.5,799.6c-15.2,0-30.1-4.1-43.7-12.3c-23-13.9-40.1-38.7-41.6-60.2c-1-13.8,9.4-25.7,23.2-26.7
	c13.7-1,25.6,9.4,26.7,23.1c0.6,3.6,6.9,15.1,18.8,21.8c10.3,5.7,21.3,5.9,33.5,0.5c11.8-5.2,22.7-19.9,18.5-39.7
	c-2-9.7-9.4-26.1-35.5-26.1h-198.1c-13.8,0-25-11.2-25-25s11.2-25,25-25H-5.2c1.5,0,3,0.1,4.5,0.4l0-0.4c42.9,0,76.1,25.8,84.5,65.8
	c3.8,18.3,1.8,37.7-5.8,54.5c-8.3,18.5-23.1,33.1-41.5,41.2C24.3,797,11.7,799.6-0.5,799.6z"/>
<path d="M263.6,599.7H-131c-13.8,0-25-11.2-25-25s11.2-25,25-25h394.6c13.8,0,25,11.2,25,25S277.4,599.7,263.6,599.7z"/>
<path class="st3" d="M80.9,498"/>
<path d="M146.1,515.4h-347.6c-13.8,0-25-11.2-25-25s11.2-25,25-25h347.6c26.1,0,33.5-16.3,35.5-26.1c4.2-19.9-6.7-34.5-18.5-39.7
	c-12.2-5.4-23.1-5.2-33.5,0.5c-11.9,6.6-18.3,18.2-18.8,21.8c-1,13.7-12.9,24-26.7,23.1c-13.8-1-24.2-12.9-23.2-26.7
	c1.5-21.6,18.6-46.3,41.6-60.2c24.6-14.8,53.3-16.4,80.8-4.3c18.4,8.1,33.1,22.7,41.5,41.2c7.6,16.9,9.7,36.2,5.8,54.5
	C222.1,489.6,189,515.4,146.1,515.4z"/>
<path d="M198.3,797.4c-15.2,0-30.1-4.1-43.7-12.3c-23-13.9-40.1-38.7-41.6-60.2c-1-13.8,9.4-25.7,23.2-26.7
	c13.7-1,25.6,9.4,26.7,23.1c0.6,3.6,6.9,15.1,18.8,21.8c10.3,5.7,21.3,5.9,33.5,0.5c11.8-5.2,22.7-19.9,18.5-39.7
	c-2-9.7-9.4-26.1-35.5-26.1H98.6c-13.8,0-25-11.2-25-25c0-13.8,11.2-25,25-25h99.6c42.9,0,76.1,25.8,84.5,65.8
	c3.8,18.3,1.8,37.7-5.8,54.5c-8.3,18.5-23.1,33.1-41.5,41.2C223.1,794.7,210.6,797.4,198.3,797.4z"/>
</svg>
