<?xml version="1.0" encoding="utf-8"?>
<!-- Generator: Adobe Illustrator 21.1.0, SVG Export Plug-In . SVG Version: 6.00 Build 0)  -->
<svg version="1.1" id="Layer_1" xmlns="http://www.w3.org/2000/svg" xmlns:xlink="http://www.w3.org/1999/xlink" x="0px" y="0px"
	 width="480px" height="110px" viewBox="0 0 480 110" enable-background="new 0 0 480 110" xml:space="preserve">
<g>
	<path fill="none" d="M376.2,88.1c0,2.3,2.2,3.4,4.5,3.4c4.2,0,6.6-1.9,6.6-6.1v-1.3h-1.7C380,84.1,376.2,85.2,376.2,88.1z"/>
	<path d="M332.3,59.5c-2.3,0-4.1,1.7-4.1,3.9s1.8,3.9,4.1,3.9c2.4,0,4.2-1.7,4.2-3.9C336.5,61.2,334.7,59.5,332.3,59.5z"/>
	<g>
		<path fill="none" d="M244.9,75.1c-4.2,0-7.6,2.9-7.6,7.6c0,4.4,3.4,7.6,7.6,7.6s7.6-2.8,7.6-7.6C252.5,77.7,249.1,75.1,244.9,75.1
			z"/>
		<path fill="none" d="M51.7,74.1c-3.6,0-6.2,2.2-6.7,6.1h13.2C58.2,76.4,55.7,74.1,51.7,74.1z"/>
		<path fill="none" d="M195.8,74.1c-3.6,0-6.2,2.2-6.7,6.1h13.2C202.4,76.4,199.8,74.1,195.8,74.1z"/>
		<path fill="none" d="M466.3,74.1c-3.6,0-6.2,2.2-6.7,6.1h13.2C472.8,76.4,470.2,74.1,466.3,74.1z"/>
		<path d="M413.9,69.3c-5.5,0-7.5,3.8-7.9,4.8h-0.1v-4.1h-6.1v25.8h6.4V81.8c0-4.3,2.2-6.7,5.9-6.7c3.6,0,4.8,2.9,4.8,6.8v13.8h6.4
			V79.4C423.3,73.3,420.2,69.3,413.9,69.3z"/>
		<polygon points="27.5,86 27.5,86 9,57.7 0,57.7 0,95.7 6.8,95.7 6.8,66.5 6.9,66.5 25.7,95.7 34.3,95.7 34.3,57.7 27.5,57.7 		"/>
		<polygon points="96.2,88 96.1,88 90.5,69.9 83.5,69.9 78.3,88 78.2,88 72.6,69.9 65.6,69.9 74.6,95.7 81.2,95.7 86.7,78.1 
			86.8,78.1 92.9,95.7 99.3,95.7 108.1,69.9 101.6,69.9 		"/>
		<path d="M52.7,69.3c-8.5,0-14.1,6-14.1,13.6c0,7.7,5.9,13.5,14,13.5c4.9,0,8.5-2.1,11-5.2l-4.6-3.5c-1,1.1-2.9,3.5-6.9,3.5
			c-5.3,0-6.9-4.4-7-6.1h19.7C65.2,79.6,63.2,69.3,52.7,69.3z M45,80.2c0.5-3.9,3.1-6.1,6.7-6.1c4,0,6.6,2.3,6.6,6.1H45z"/>
		<path d="M467.2,69.3c-8.5,0-14.1,6-14.1,13.6c0,7.7,5.9,13.5,14,13.5c4.9,0,8.5-2.1,11-5.2l-4.6-3.5c-1,1.1-2.9,3.5-6.9,3.5
			c-5.3,0-6.9-4.4-7-6.1h19.7C479.8,79.6,477.8,69.3,467.2,69.3z M459.6,80.2c0.5-3.9,3.1-6.1,6.7-6.1c4,0,6.6,2.3,6.6,6.1H459.6z"
			/>
		<polygon points="130.4,79.3 147.9,79.3 147.9,73.1 130.4,73.1 130.4,63.8 148.8,63.8 148.8,57.7 123.6,57.7 123.6,95.7 
			149.8,95.7 149.8,89.6 130.4,89.6 		"/>
		<path d="M441.9,75.1c2.4,0,4.3,2,4.9,2.6l4.5-4.5c-0.7-0.9-3.8-3.9-9.4-3.9c-8.4,0-14,6.1-14,13.6c0,7.6,5.8,13.5,14,13.5
			c3.8,0,7.7-1.9,9.3-3.6l-4.3-4.6c-0.5,0.6-2.1,2.4-5,2.4c-4.5,0-7.6-3.4-7.6-7.7C434.4,78.6,437.4,75.1,441.9,75.1z"/>
		<path d="M219.8,74h-0.1v-4.1h-6.4v25.8h6.4V82.4c0-4.4,2.8-7,6.9-7c1.3,0,2.8,0.4,3.1,0.5v-6.2c-0.2-0.1-1.2-0.4-2.3-0.4
			C221.9,69.3,219.9,73.7,219.8,74z"/>
		<path d="M168.5,69.3c-5.5,0-7.5,3.8-7.9,4.8h-0.1v-4.1h-6.1v25.8h6.4V81.8c0-4.3,2.2-6.7,5.9-6.7c3.6,0,4.8,2.9,4.8,6.8v13.8h6.4
			V79.4C177.9,73.3,174.8,69.3,168.5,69.3z"/>
		<path d="M252.5,73.8h-0.1c-0.5-0.9-2.9-4.5-8.9-4.5c-8.8,0-12.7,6.8-12.7,13.5c0,7.1,5.1,13.2,12.7,13.2c5.5,0,8.1-3.1,8.5-3.8
			h0.1v2c0,6.3-3.3,8.5-8.2,8.5c-5.1,0-8.1-3.1-8.9-3.7c-0.4,0.5-3.7,5.1-3.9,5.3c0.4,0.4,4.3,4.2,12.6,4.2
			c8.7,0,14.7-4.1,14.7-15.5V69.9h-6.1V73.8z M244.9,90.2c-4.2,0-7.6-3.2-7.6-7.6c0-4.7,3.4-7.6,7.6-7.6s7.6,2.6,7.6,7.6
			C252.5,87.4,249.1,90.2,244.9,90.2z"/>
		<path d="M275.7,87.8h-0.1l-7.2-17.9h-7.1l11,26c-0.8,1.9-1.1,2.7-1.1,2.7c-0.9,2.2-1.5,4.1-5,4.1c-1.9,0-3.1-0.5-3.5-0.6
			c-0.1,0.3-0.8,5.5-0.8,5.8c0.4,0.1,2.5,0.6,5.1,0.6c7.1,0,8.5-4.4,9.9-8c0,0,1.5-3.7,12-30.7h-6.7L275.7,87.8z"/>
		<rect x="329.1" y="69.9" width="6.4" height="25.8"/>
		<polygon points="301,95.7 307.8,95.7 307.8,79.8 324.5,79.8 324.5,73.7 307.8,73.7 307.8,63.8 325.5,63.8 325.5,57.7 301,57.7 		
			"/>
		<path d="M382.4,69.3c-6.8,0-10.2,3.3-11,4.1c2.6,2.6,3.4,3.4,3.4,3.4c1.1-1,3.5-2.7,6.9-2.7c4.1,0,5.9,2.2,5.9,4.8v0.8h-2.1
			c-10.9,0-15.7,3-15.7,8.9c0,5.2,4.7,7.8,9.4,7.8c5.6,0,7.7-3.4,8.3-4.2h0.2v3.5h5.8V80.2C393.4,74.9,391.7,69.3,382.4,69.3z
			 M387.2,85.4c0,4.1-2.3,6.1-6.6,6.1c-2.3,0-4.5-1.1-4.5-3.4c0-3,3.9-4,9.3-4h1.7V85.4z"/>
		<path d="M356,69.3c-5.5,0-7.5,3.8-7.9,4.8H348v-4.1h-6.1v25.8h6.4V81.8c0-4.3,2.2-6.7,5.9-6.7c3.6,0,4.8,2.9,4.8,6.8v13.8h6.4
			V79.4C365.4,73.3,362.3,69.3,356,69.3z"/>
		<path d="M196.8,69.3c-8.5,0-14.1,6-14.1,13.6c0,7.7,5.9,13.5,14,13.5c4.9,0,8.5-2.1,11-5.2l-4.6-3.5c-1,1.1-2.9,3.5-6.9,3.5
			c-5.3,0-6.9-4.4-7-6.1h19.7C209.4,79.6,207.4,69.3,196.8,69.3z M189.2,80.2c0.5-3.9,3.1-6.1,6.7-6.1c4,0,6.6,2.3,6.6,6.1H189.2z"
			/>
	</g>
	<g>
		<path fill="none" d="M19.7,11.6c0-3.3-2.3-4.9-7.4-4.9H6.8v9.7h6.2C17.4,16.4,19.7,14.4,19.7,11.6z"/>
		<path fill="none" d="M165,18.3c-4.7,0-7.6,3.7-7.6,7.7c0,4,2.8,7.7,7.6,7.7s7.6-3.7,7.6-7.7C172.6,22,169.7,18.3,165,18.3z"/>
		<path fill="none" d="M88.2,33.7c4.7,0,7.6-3.7,7.6-7.7c0-4-2.8-7.7-7.6-7.7c-4.7,0-7.6,3.7-7.6,7.7C80.6,30,83.4,33.7,88.2,33.7z"
			/>
		<path fill="none" d="M13.3,22.1H6.8v10.9H13c3.5,0,8.3-0.6,8.3-5.6C21.3,23.5,18.7,22.1,13.3,22.1z"/>
		<path fill="none" d="M195,17.3c-3.8,0-6.2,2.4-6.7,6.1h13.2C201.5,19.7,199.1,17.3,195,17.3z"/>
		<path fill="none" d="M243.6,33.4c4.8,0,7.7-3.3,7.7-7.6c0-4.5-2.9-7.6-7.6-7.6c-4.5,0-7.6,3.1-7.6,7.7
			C236,30,239.2,33.4,243.6,33.4z"/>
		<path fill="none" d="M57.2,33.7c4.7,0,7.6-3.7,7.6-7.7c0-4-2.8-7.7-7.6-7.7c-4.7,0-7.6,3.7-7.6,7.7C49.7,30,52.5,33.7,57.2,33.7z"
			/>
		<path fill="#231F20" d="M242.4,39.2c3.2,0,6.5-1.2,8.4-3.8h0.1v1.9c0,5.1-1.9,8.6-8.2,8.6c-3.6,0-6.3-1.3-8.9-3.7l-3.9,5.3
			c3.6,3.2,8,4.2,12.8,4.2c10,0,14.5-5.9,14.5-15.2V13.1h-6.1V17h-0.1c-1.9-3.1-5.3-4.5-8.9-4.5c-7.9,0-12.7,5.9-12.7,13.5
			C229.6,33.3,234.7,39.2,242.4,39.2z M243.6,18.3c4.7,0,7.6,3.1,7.6,7.6c0,4.3-2.9,7.6-7.7,7.6c-4.3,0-7.6-3.4-7.6-7.5
			C236,21.4,239.1,18.3,243.6,18.3z"/>
		<path fill="#231F20" d="M57.2,39.5c7.8,0,14-5.4,14-13.5c0-8.1-6.2-13.5-14-13.5c-7.8,0-14,5.4-14,13.5
			C43.2,34.1,49.5,39.5,57.2,39.5z M57.2,18.3c4.7,0,7.6,3.7,7.6,7.7c0,4-2.8,7.7-7.6,7.7c-4.7,0-7.6-3.7-7.6-7.7
			C49.7,22,52.5,18.3,57.2,18.3z"/>
		<path fill="#231F20" d="M19.9,18.9v-0.1c3.9-1.2,6.6-4,6.6-8.3c0-6.9-5.9-9.6-11.6-9.6H0v38h13.7c7.2,0,14.4-2.6,14.4-10.8
			C28.1,23.2,24.6,19.4,19.9,18.9z M6.8,6.7h5.6c5.1,0,7.4,1.6,7.4,4.9c0,2.8-2.3,4.8-6.8,4.8H6.8V6.7z M13,33.1H6.8V22.1h6.5
			c5.5,0,8,1.4,8,5.4C21.3,32.5,16.5,33.1,13,33.1z"/>
		<rect x="32.4" y="0" fill="#231F20" width="6.5" height="38.9"/>
		<path fill="#231F20" d="M112.5,24.8c0-3.4,1.7-6.5,5.9-6.5c3.1,0,4.4,2.1,4.4,5.3v15.3h6.4v-14c0-3.3,1.5-6.7,5.5-6.7
			c3.8,0,4.8,2.8,4.8,6v14.6h6.4V23.5c0-6.2-2.4-11.1-9.3-11.1c-3.9,0-6.6,1.5-8.5,4.8c-1.3-3.2-4.1-4.8-8-4.8
			c-4.3,0-6.8,2.3-7.9,4.7h-0.1v-4h-6.1v25.8h6.4V24.8z"/>
		<path fill="#231F20" d="M195.9,12.5c-7.8,0-14,5.4-14,13.5c0,8.1,6.2,13.5,14,13.5c4.1,0,7.9-1.5,10.9-5.2l-4.6-3.5
			c-1.6,2-3.7,3.5-6.9,3.5c-3.6,0-6.5-2.3-6.9-6.1H208v-1.8C208,17.5,203.1,12.5,195.9,12.5z M188.4,23.4c0.5-3.7,2.8-6.1,6.7-6.1
			c4,0,6.5,2.4,6.5,6.1H188.4z"/>
		<path fill="#231F20" d="M166.6,12.5c-4.8,0-7.4,2.3-8.7,3.9h-0.2V0h-6.4v38.9h6.1V35h0.1c1.9,3.1,5.3,4.5,8.9,4.5
			c7.9,0,12.7-5.9,12.7-13.5C179,18.4,173.9,12.5,166.6,12.5z M165,33.7c-4.7,0-7.6-3.7-7.6-7.7c0-4,2.8-7.7,7.6-7.7
			s7.6,3.7,7.6,7.7C172.6,30,169.7,33.7,165,33.7z"/>
		<path fill="#231F20" d="M88.2,39.5c7.8,0,14-5.4,14-13.5c0-8.1-6.2-13.5-14-13.5c-7.8,0-14,5.4-14,13.5
			C74.1,34.1,80.4,39.5,88.2,39.5z M88.2,18.3c4.7,0,7.6,3.7,7.6,7.7c0,4-2.8,7.7-7.6,7.7c-4.7,0-7.6-3.7-7.6-7.7
			C80.6,22,83.4,18.3,88.2,18.3z"/>
		<path fill="#231F20" d="M218.6,25.1c0-1.4,0.9-6.5,6.9-6.5c1,0,2,0.2,3.1,0.5v-6.2c-0.7-0.2-1.5-0.4-2.3-0.4
			c-3.4,0-6.2,1.8-7.6,4.7h-0.1v-4.1h-6.4v25.8h6.4V25.1z"/>
	</g>
</g>
</svg>
