<?xml version="1.0" encoding="utf-8"?>
<!-- Generator: Adobe Illustrator 21.0.0, SVG Export Plug-In . SVG Version: 6.00 Build 0)  -->
<svg version="1.1" id="Layer_1" xmlns="http://www.w3.org/2000/svg" xmlns:xlink="http://www.w3.org/1999/xlink" x="0px" y="0px"
	 width="118px" height="128px" viewBox="0 0 118 128" enable-background="new 0 0 118 128" xml:space="preserve">
<g>
	<path d="M0,84.3h5.6v16.1c0,1.8,0.2,3.1,0.6,3.9c0.7,1.5,2.1,2.2,4.3,2.2c2.2,0,3.6-0.7,4.3-2.2c0.4-0.8,0.6-2.1,0.6-3.9V84.3h5.6
		v16.1c0,2.8-0.4,5-1.3,6.5c-1.6,2.8-4.7,4.3-9.2,4.3S3,109.8,1.3,107c-0.9-1.6-1.3-3.7-1.3-6.5V84.3z"/>
	<polygon points="26.4,84.3 31.8,84.3 31.8,95.1 42,84.3 49,84.3 38.3,95.1 49.6,110.5 42.5,110.5 34.5,99.1 31.8,101.8 31.8,110.5 
		26.4,110.5 	"/>
	<path d="M64.5,95c1.2-0.2,2.1-0.4,2.7-0.6c1-0.4,1.4-1,1.4-1.9c0-1-0.4-1.8-1.1-2.2c-0.7-0.4-1.8-0.6-3.2-0.6
		c-1.6,0-2.7,0.4-3.4,1.2c-0.5,0.6-0.8,1.4-0.9,2.3h-6.4c0.1-2.2,0.8-4.1,1.9-5.5c1.8-2.2,4.8-3.4,9.1-3.4c2.8,0,5.3,0.6,7.5,1.7
		c2.2,1.1,3.3,3.2,3.3,6.3v11.7c0,0.8,0,1.8,0,2.9c0,0.9,0.2,1.5,0.4,1.8c0.2,0.3,0.5,0.6,1,0.8v1h-7.3c-0.2-0.5-0.3-1-0.4-1.5
		c-0.1-0.5-0.1-1-0.2-1.5c-0.9,1-2,1.8-3.2,2.6c-1.4,0.8-3.1,1.2-4.9,1.2c-2.3,0-4.2-0.7-5.8-2c-1.5-1.3-2.3-3.2-2.3-5.6
		c0-3.1,1.2-5.4,3.7-6.8c1.3-0.8,3.3-1.3,5.9-1.6L64.5,95z M68.6,98.1c-0.4,0.3-0.9,0.5-1.3,0.6c-0.4,0.2-1,0.3-1.8,0.5L64,99.5
		c-1.4,0.2-2.4,0.6-3.1,0.9c-1.1,0.6-1.6,1.6-1.6,2.8c0,1.1,0.3,2,1,2.5c0.6,0.5,1.4,0.8,2.3,0.8c1.5,0,2.8-0.4,4-1.3
		c1.2-0.8,1.9-2.4,1.9-4.6V98.1z"/>
	<rect x="80.6" y="76.1" width="6.8" height="6.8"/>
	<rect x="80.6" y="85" width="6.8" height="25.5"/>
	<path d="M106.5,85.4c1.2,0.7,2.2,1.6,2.9,2.8V76.1h6.8v34.4h-6.5V107c-1,1.5-2,2.6-3.3,3.3c-1.2,0.7-2.7,1-4.5,1
		c-3,0-5.5-1.2-7.5-3.6c-2-2.4-3.1-5.5-3.1-9.3c0-4.4,1-7.8,3-10.3c2-2.5,4.7-3.7,8-3.7C103.9,84.4,105.3,84.8,106.5,85.4
		 M108.1,103.6c1-1.4,1.5-3.2,1.5-5.5c0-3.1-0.8-5.4-2.4-6.7c-1-0.8-2.1-1.2-3.4-1.2c-2,0-3.4,0.7-4.3,2.2c-0.9,1.5-1.4,3.3-1.4,5.5
		c0,2.4,0.5,4.2,1.4,5.7c0.9,1.4,2.3,2.1,4.2,2.1C105.7,105.7,107.1,105,108.1,103.6"/>
	<polygon fill-rule="evenodd" clip-rule="evenodd" points="116.2,23.1 116.2,8.1 91,23.1 	"/>
	<polygon fill-rule="evenodd" clip-rule="evenodd" points="46.5,0 13.6,0 46.5,19.7 	"/>
	<polygon fill-rule="evenodd" clip-rule="evenodd" points="0,46.2 0,61.3 25.2,46.2 	"/>
	<polygon fill-rule="evenodd" clip-rule="evenodd" points="69.7,0 69.7,19.7 102.6,0 	"/>
	<polygon fill-rule="evenodd" clip-rule="evenodd" points="0,8.1 0,23.1 25.2,23.1 	"/>
	<polygon fill-rule="evenodd" clip-rule="evenodd" points="116.2,61.3 116.2,46.2 91,46.2 	"/>
	<polygon fill-rule="evenodd" clip-rule="evenodd" points="13.6,69.3 46.5,69.3 46.5,49.7 	"/>
	<polygon fill-rule="evenodd" clip-rule="evenodd" points="69.7,69.3 102.7,69.3 69.7,49.7 	"/>
	<path d="M29.7,23.1L0,5.4V0l38.7,23.1H29.7z M86.5,46.2l29.7,17.7v5.4L77.5,46.2H86.5z M69.7,22.3L107.2,0h9L77.5,23.1h-7.7V22.3z
		 M0,69.3l38.7-23.1h7.7V47L9.1,69.3H0z"/>
	<polygon points="51.2,69.3 51.2,41.6 0,41.6 0,27.7 51.2,27.7 51.2,0 65.1,0 65.1,27.7 116.2,27.7 116.2,41.6 65.1,41.6 65.1,69.3 
			"/>
	<path d="M0,120.5v-0.9h1v-0.9c0-0.5,0.1-0.9,0.4-1.1c0.3-0.3,0.7-0.4,1.2-0.4c0.1,0,0.2,0,0.3,0c0.1,0,0.2,0,0.3,0.1v0.9
		c-0.1,0-0.2-0.1-0.3-0.1s-0.2,0-0.3,0c-0.2,0-0.4,0-0.6,0.1c-0.1,0.1-0.2,0.3-0.2,0.5v0.8h1.2v0.9H2v5.2H1v-5.2H0z"/>
	<path d="M4.8,119.7v1.3h0c0.2-0.5,0.5-0.9,0.9-1.1c0.4-0.2,0.8-0.3,1.3-0.3v1.1c-0.4,0-0.7,0.1-1,0.2c-0.3,0.1-0.5,0.3-0.7,0.5
		c-0.2,0.2-0.3,0.5-0.4,0.8c-0.1,0.3-0.1,0.6-0.1,1v2.7h-1v-6H4.8z"/>
	<path d="M7.5,121.4c0.1-0.4,0.3-0.7,0.6-1c0.2-0.3,0.6-0.5,0.9-0.7c0.4-0.2,0.8-0.2,1.3-0.2c0.5,0,0.9,0.1,1.3,0.2
		c0.4,0.2,0.7,0.4,0.9,0.7c0.2,0.3,0.4,0.6,0.6,1c0.1,0.4,0.2,0.8,0.2,1.2c0,0.4-0.1,0.9-0.2,1.2c-0.1,0.4-0.3,0.7-0.6,1
		c-0.2,0.3-0.6,0.5-0.9,0.7c-0.4,0.2-0.8,0.2-1.3,0.2c-0.5,0-0.9-0.1-1.3-0.2c-0.4-0.2-0.7-0.4-0.9-0.7c-0.2-0.3-0.4-0.6-0.6-1
		c-0.1-0.4-0.2-0.8-0.2-1.2C7.3,122.2,7.3,121.8,7.5,121.4 M8.5,123.7c0.1,0.3,0.2,0.5,0.4,0.7c0.2,0.2,0.4,0.3,0.6,0.4
		c0.2,0.1,0.5,0.2,0.7,0.2s0.5-0.1,0.7-0.2c0.2-0.1,0.4-0.2,0.6-0.4c0.2-0.2,0.3-0.4,0.4-0.7c0.1-0.3,0.1-0.6,0.1-1
		c0-0.4,0-0.7-0.1-1c-0.1-0.3-0.2-0.5-0.4-0.7c-0.2-0.2-0.4-0.3-0.6-0.4c-0.2-0.1-0.5-0.2-0.7-0.2s-0.5,0.1-0.7,0.2
		c-0.2,0.1-0.4,0.2-0.6,0.4c-0.2,0.2-0.3,0.4-0.4,0.7c-0.1,0.3-0.1,0.6-0.1,1C8.3,123.1,8.4,123.4,8.5,123.7"/>
	<path d="M15.1,119.7v0.9h0c0.5-0.7,1.1-1,2-1c0.4,0,0.7,0.1,1,0.2c0.3,0.2,0.5,0.4,0.6,0.8c0.2-0.3,0.5-0.6,0.8-0.8
		c0.3-0.2,0.7-0.3,1.1-0.3c0.3,0,0.6,0,0.8,0.1c0.2,0.1,0.5,0.2,0.6,0.3c0.2,0.1,0.3,0.3,0.4,0.5c0.1,0.2,0.1,0.5,0.1,0.8v4.4h-1v-4
		c0-0.2,0-0.4,0-0.5c0-0.2-0.1-0.3-0.2-0.4c-0.1-0.1-0.2-0.2-0.4-0.3c-0.2-0.1-0.3-0.1-0.6-0.1c-0.5,0-0.9,0.1-1.2,0.4
		c-0.3,0.3-0.4,0.7-0.4,1.1v3.8h-1v-4c0-0.2,0-0.4-0.1-0.5c0-0.2-0.1-0.3-0.2-0.4c-0.1-0.1-0.2-0.2-0.3-0.3
		c-0.1-0.1-0.3-0.1-0.6-0.1c-0.3,0-0.5,0.1-0.7,0.2c-0.2,0.1-0.4,0.3-0.5,0.4c-0.1,0.2-0.2,0.3-0.3,0.5c-0.1,0.2-0.1,0.3-0.1,0.4
		v3.8h-1v-6H15.1z"/>
	<path d="M29.9,119.7v0.9h-1.2v3.7c0,0.1,0,0.2,0,0.3c0,0.1,0.1,0.1,0.1,0.2c0.1,0,0.1,0.1,0.2,0.1c0.1,0,0.2,0,0.4,0h0.5v0.9h-0.8
		c-0.3,0-0.5,0-0.7-0.1c-0.2,0-0.3-0.1-0.4-0.2c-0.1-0.1-0.2-0.2-0.3-0.4c-0.1-0.2-0.1-0.4-0.1-0.7v-3.8h-1v-0.9h1v-1.8h1v1.8H29.9z
		"/>
	<path d="M31.8,117.4v3.2h0c0.1-0.2,0.2-0.3,0.3-0.5c0.1-0.1,0.3-0.2,0.5-0.3c0.2-0.1,0.4-0.1,0.5-0.2c0.2,0,0.4-0.1,0.6-0.1
		c0.4,0,0.7,0.1,1,0.2c0.3,0.1,0.5,0.3,0.6,0.5c0.2,0.2,0.3,0.4,0.3,0.7c0.1,0.3,0.1,0.6,0.1,0.9v4h-1v-4.1c0-0.4-0.1-0.7-0.3-0.9
		c-0.2-0.2-0.5-0.3-0.9-0.3c-0.3,0-0.6,0-0.8,0.1c-0.2,0.1-0.4,0.2-0.6,0.4c-0.1,0.2-0.3,0.4-0.3,0.6c-0.1,0.2-0.1,0.5-0.1,0.8v3.4
		h-1v-8.3H31.8z"/>
	<path d="M41.4,125.3c-0.5,0.3-1,0.5-1.7,0.5c-0.5,0-0.9-0.1-1.3-0.2c-0.4-0.2-0.7-0.4-0.9-0.7c-0.2-0.3-0.4-0.6-0.5-1
		c-0.1-0.4-0.2-0.8-0.2-1.3c0-0.5,0.1-0.9,0.2-1.3c0.1-0.4,0.3-0.7,0.6-1c0.3-0.3,0.6-0.5,0.9-0.7c0.3-0.2,0.7-0.2,1.1-0.2
		c0.5,0,1,0.1,1.3,0.3c0.4,0.2,0.6,0.5,0.9,0.8c0.2,0.3,0.4,0.7,0.4,1.1c0.1,0.4,0.1,0.8,0.1,1.2h-4.5c0,0.3,0,0.5,0.1,0.8
		c0.1,0.2,0.2,0.4,0.3,0.6c0.2,0.2,0.4,0.3,0.6,0.4c0.2,0.1,0.5,0.2,0.9,0.2c0.4,0,0.8-0.1,1-0.3c0.3-0.2,0.4-0.5,0.5-0.9h1
		C42.1,124.5,41.8,125,41.4,125.3 M41.1,121.4c-0.1-0.2-0.2-0.4-0.4-0.5c-0.2-0.2-0.3-0.3-0.5-0.4c-0.2-0.1-0.4-0.1-0.7-0.1
		c-0.3,0-0.5,0-0.7,0.1c-0.2,0.1-0.4,0.2-0.5,0.4c-0.1,0.2-0.3,0.3-0.4,0.5c-0.1,0.2-0.1,0.4-0.2,0.7h3.5
		C41.3,121.9,41.2,121.6,41.1,121.4"/>
	<path d="M49.8,117.4c0.2,0,0.4,0,0.6,0c0.2,0,0.4,0,0.6,0c0.2,0,0.4,0,0.6,0.1c0.2,0,0.3,0.1,0.4,0.2c0.3,0.2,0.5,0.4,0.7,0.7
		c0.2,0.3,0.3,0.6,0.3,1.1c0,0.4-0.1,0.8-0.3,1.2c-0.2,0.3-0.5,0.6-0.9,0.7v0c0.5,0.1,0.9,0.3,1.2,0.7c0.3,0.4,0.4,0.8,0.4,1.3
		c0,0.3-0.1,0.6-0.2,0.9c-0.1,0.3-0.3,0.5-0.5,0.8c-0.2,0.2-0.5,0.4-0.8,0.5c-0.3,0.1-0.7,0.2-1.1,0.2h-4v-8.3H49.8z M50.1,120.9
		c0.6,0,1.1-0.1,1.4-0.3c0.3-0.2,0.4-0.6,0.4-1c0-0.3,0-0.5-0.1-0.7c-0.1-0.2-0.2-0.3-0.4-0.4c-0.2-0.1-0.4-0.2-0.6-0.2
		c-0.2,0-0.4,0-0.7,0h-2.2v2.7H50.1z M50.7,124.8c0.5,0,0.9-0.1,1.2-0.4c0.3-0.3,0.4-0.6,0.4-1.1c0-0.3-0.1-0.5-0.2-0.7
		c-0.1-0.2-0.2-0.3-0.4-0.4c-0.2-0.1-0.4-0.2-0.6-0.2c-0.2,0-0.4-0.1-0.7-0.1h-2.5v2.9H50.7z"/>
	<path d="M55.4,119.7v1.3h0c0.2-0.5,0.5-0.9,0.9-1.1c0.4-0.2,0.8-0.3,1.3-0.3v1.1c-0.4,0-0.7,0.1-1,0.2c-0.3,0.1-0.5,0.3-0.7,0.5
		c-0.2,0.2-0.3,0.5-0.4,0.8c-0.1,0.3-0.1,0.6-0.1,1v2.7h-1v-6H55.4z"/>
	<path d="M58.3,117.4h1v1.2h-1V117.4z M59.3,125.7h-1v-6h1V125.7z"/>
	<path d="M63.2,119.7v0.9H62v3.7c0,0.1,0,0.2,0,0.3c0,0.1,0.1,0.1,0.1,0.2c0.1,0,0.1,0.1,0.2,0.1c0.1,0,0.2,0,0.4,0h0.5v0.9h-0.8
		c-0.3,0-0.5,0-0.7-0.1c-0.2,0-0.3-0.1-0.4-0.2c-0.1-0.1-0.2-0.2-0.3-0.4c-0.1-0.2-0.1-0.4-0.1-0.7v-3.8h-1v-0.9h1v-1.8h1v1.8H63.2z
		"/>
	<path d="M64.1,117.4h1v1.2h-1V117.4z M65.1,125.7h-1v-6h1V125.7z"/>
	<path d="M67.3,124.4c0.1,0.2,0.2,0.3,0.4,0.4c0.2,0.1,0.3,0.2,0.5,0.2c0.2,0,0.4,0.1,0.6,0.1c0.2,0,0.3,0,0.5,0
		c0.2,0,0.3-0.1,0.5-0.1c0.1-0.1,0.3-0.2,0.4-0.3c0.1-0.1,0.1-0.3,0.1-0.5c0-0.3-0.1-0.5-0.3-0.6c-0.2-0.1-0.4-0.2-0.7-0.3
		c-0.3-0.1-0.6-0.2-1-0.2c-0.3-0.1-0.7-0.2-1-0.3c-0.3-0.1-0.5-0.3-0.7-0.5s-0.3-0.5-0.3-0.9c0-0.3,0.1-0.6,0.2-0.8
		c0.1-0.2,0.3-0.4,0.5-0.5c0.2-0.1,0.5-0.2,0.7-0.3c0.3-0.1,0.5-0.1,0.8-0.1c0.3,0,0.7,0,0.9,0.1c0.3,0.1,0.5,0.2,0.8,0.3
		c0.2,0.1,0.4,0.3,0.5,0.6c0.1,0.2,0.2,0.6,0.2,0.9h-1c0-0.2-0.1-0.4-0.2-0.5c-0.1-0.1-0.2-0.2-0.3-0.3c-0.1-0.1-0.3-0.1-0.4-0.2
		c-0.2,0-0.3-0.1-0.5-0.1c-0.1,0-0.3,0-0.4,0c-0.2,0-0.3,0.1-0.4,0.1c-0.1,0.1-0.2,0.1-0.3,0.2c-0.1,0.1-0.1,0.2-0.1,0.4
		c0,0.2,0.1,0.3,0.2,0.4c0.1,0.1,0.3,0.2,0.5,0.3c0.2,0.1,0.4,0.1,0.6,0.2c0.2,0.1,0.5,0.1,0.7,0.2c0.2,0.1,0.5,0.1,0.7,0.2
		c0.2,0.1,0.4,0.2,0.6,0.3c0.2,0.1,0.3,0.3,0.4,0.5c0.1,0.2,0.2,0.4,0.2,0.7c0,0.4-0.1,0.7-0.2,0.9c-0.2,0.2-0.4,0.4-0.6,0.6
		c-0.2,0.1-0.5,0.3-0.8,0.3c-0.3,0.1-0.6,0.1-0.9,0.1c-0.3,0-0.7,0-1-0.1c-0.3-0.1-0.6-0.2-0.8-0.3c-0.2-0.2-0.4-0.4-0.6-0.6
		c-0.1-0.3-0.2-0.6-0.2-1h1C67.1,124,67.2,124.2,67.3,124.4"/>
	<path d="M73.2,117.4v3.2h0c0.1-0.2,0.2-0.3,0.3-0.5c0.1-0.1,0.3-0.2,0.5-0.3c0.2-0.1,0.4-0.1,0.5-0.2c0.2,0,0.4-0.1,0.6-0.1
		c0.4,0,0.7,0.1,1,0.2c0.3,0.1,0.5,0.3,0.6,0.5c0.2,0.2,0.3,0.4,0.3,0.7c0.1,0.3,0.1,0.6,0.1,0.9v4h-1v-4.1c0-0.4-0.1-0.7-0.3-0.9
		c-0.2-0.2-0.5-0.3-0.9-0.3c-0.3,0-0.6,0-0.8,0.1c-0.2,0.1-0.4,0.2-0.6,0.4c-0.1,0.2-0.3,0.4-0.3,0.6c-0.1,0.2-0.1,0.5-0.1,0.8v3.4
		h-1v-8.3H73.2z"/>
	<path d="M83,119.7v0.8h0c0.2-0.3,0.4-0.6,0.8-0.7c0.4-0.2,0.7-0.2,1.2-0.2c0.5,0,0.9,0.1,1.2,0.3c0.3,0.2,0.6,0.4,0.9,0.7
		c0.2,0.3,0.4,0.6,0.5,1c0.1,0.4,0.2,0.8,0.2,1.2c0,0.4-0.1,0.8-0.2,1.2c-0.1,0.4-0.3,0.7-0.5,1c-0.2,0.3-0.5,0.5-0.9,0.7
		c-0.3,0.2-0.7,0.2-1.2,0.2c-0.1,0-0.3,0-0.5,0c-0.2,0-0.4-0.1-0.5-0.2c-0.2-0.1-0.3-0.2-0.5-0.3c-0.2-0.1-0.3-0.3-0.4-0.5h0v3.1h-1
		v-8.3H83z M86.5,121.8c-0.1-0.3-0.2-0.5-0.3-0.7c-0.2-0.2-0.3-0.4-0.6-0.5c-0.2-0.1-0.5-0.2-0.8-0.2c-0.3,0-0.6,0.1-0.9,0.2
		c-0.2,0.1-0.4,0.3-0.6,0.5c-0.1,0.2-0.3,0.5-0.3,0.7c-0.1,0.3-0.1,0.5-0.1,0.8c0,0.3,0,0.6,0.1,0.9c0.1,0.3,0.2,0.5,0.3,0.7
		s0.3,0.4,0.6,0.5c0.2,0.1,0.5,0.2,0.9,0.2c0.3,0,0.6-0.1,0.9-0.2c0.2-0.1,0.4-0.3,0.6-0.5c0.1-0.2,0.2-0.5,0.3-0.7
		c0.1-0.3,0.1-0.6,0.1-0.9C86.7,122.3,86.6,122.1,86.5,121.8"/>
	<path d="M93,125.3c-0.5,0.3-1,0.5-1.7,0.5c-0.5,0-0.9-0.1-1.3-0.2c-0.4-0.2-0.7-0.4-0.9-0.7c-0.2-0.3-0.4-0.6-0.5-1
		c-0.1-0.4-0.2-0.8-0.2-1.3c0-0.5,0.1-0.9,0.2-1.3c0.1-0.4,0.3-0.7,0.6-1c0.3-0.3,0.6-0.5,0.9-0.7c0.3-0.2,0.7-0.2,1.1-0.2
		c0.5,0,1,0.1,1.3,0.3c0.4,0.2,0.6,0.5,0.9,0.8c0.2,0.3,0.4,0.7,0.4,1.1c0.1,0.4,0.1,0.8,0.1,1.2h-4.5c0,0.3,0,0.5,0.1,0.8
		c0.1,0.2,0.2,0.4,0.3,0.6c0.2,0.2,0.4,0.3,0.6,0.4c0.2,0.1,0.5,0.2,0.9,0.2c0.4,0,0.8-0.1,1-0.3c0.3-0.2,0.4-0.5,0.5-0.9h1
		C93.7,124.5,93.4,125,93,125.3 M92.8,121.4c-0.1-0.2-0.2-0.4-0.4-0.5c-0.2-0.2-0.3-0.3-0.5-0.4c-0.2-0.1-0.4-0.1-0.7-0.1
		c-0.3,0-0.5,0-0.7,0.1c-0.2,0.1-0.4,0.2-0.5,0.4c-0.1,0.2-0.3,0.3-0.4,0.5s-0.1,0.4-0.2,0.7h3.5C92.9,121.9,92.8,121.6,92.8,121.4"
		/>
	<path d="M94.8,121.4c0.1-0.4,0.3-0.7,0.6-1c0.2-0.3,0.6-0.5,0.9-0.7c0.4-0.2,0.8-0.2,1.3-0.2c0.5,0,0.9,0.1,1.3,0.2
		c0.4,0.2,0.7,0.4,0.9,0.7c0.2,0.3,0.4,0.6,0.6,1c0.1,0.4,0.2,0.8,0.2,1.2c0,0.4-0.1,0.9-0.2,1.2c-0.1,0.4-0.3,0.7-0.6,1
		c-0.2,0.3-0.6,0.5-0.9,0.7c-0.4,0.2-0.8,0.2-1.3,0.2c-0.5,0-0.9-0.1-1.3-0.2c-0.4-0.2-0.7-0.4-0.9-0.7c-0.2-0.3-0.4-0.6-0.6-1
		c-0.1-0.4-0.2-0.8-0.2-1.2C94.6,122.2,94.6,121.8,94.8,121.4 M95.8,123.7c0.1,0.3,0.2,0.5,0.4,0.7c0.2,0.2,0.4,0.3,0.6,0.4
		c0.2,0.1,0.5,0.2,0.7,0.2c0.3,0,0.5-0.1,0.7-0.2c0.2-0.1,0.4-0.2,0.6-0.4c0.2-0.2,0.3-0.4,0.4-0.7c0.1-0.3,0.1-0.6,0.1-1
		c0-0.4,0-0.7-0.1-1c-0.1-0.3-0.2-0.5-0.4-0.7c-0.2-0.2-0.4-0.3-0.6-0.4c-0.2-0.1-0.5-0.2-0.7-0.2c-0.3,0-0.5,0.1-0.7,0.2
		c-0.2,0.1-0.4,0.2-0.6,0.4c-0.2,0.2-0.3,0.4-0.4,0.7c-0.1,0.3-0.1,0.6-0.1,1C95.6,123.1,95.7,123.4,95.8,123.7"/>
	<path d="M102.5,119.7v0.8h0c0.2-0.3,0.4-0.6,0.8-0.7c0.4-0.2,0.7-0.2,1.2-0.2c0.5,0,0.9,0.1,1.2,0.3c0.3,0.2,0.6,0.4,0.9,0.7
		c0.2,0.3,0.4,0.6,0.5,1c0.1,0.4,0.2,0.8,0.2,1.2c0,0.4-0.1,0.8-0.2,1.2c-0.1,0.4-0.3,0.7-0.5,1c-0.2,0.3-0.5,0.5-0.9,0.7
		c-0.3,0.2-0.7,0.2-1.2,0.2c-0.1,0-0.3,0-0.5,0c-0.2,0-0.4-0.1-0.5-0.2c-0.2-0.1-0.3-0.2-0.5-0.3c-0.2-0.1-0.3-0.3-0.4-0.5h0v3.1h-1
		v-8.3H102.5z M106,121.8c-0.1-0.3-0.2-0.5-0.3-0.7c-0.2-0.2-0.3-0.4-0.6-0.5c-0.2-0.1-0.5-0.2-0.8-0.2c-0.3,0-0.6,0.1-0.9,0.2
		c-0.2,0.1-0.4,0.3-0.6,0.5c-0.1,0.2-0.3,0.5-0.3,0.7c-0.1,0.3-0.1,0.5-0.1,0.8c0,0.3,0,0.6,0.1,0.9c0.1,0.3,0.2,0.5,0.3,0.7
		c0.2,0.2,0.3,0.4,0.6,0.5c0.2,0.1,0.5,0.2,0.9,0.2c0.3,0,0.6-0.1,0.9-0.2c0.2-0.1,0.4-0.3,0.6-0.5c0.1-0.2,0.2-0.5,0.3-0.7
		c0.1-0.3,0.1-0.6,0.1-0.9C106.1,122.3,106.1,122.1,106,121.8"/>
	<rect x="108.2" y="117.4" width="1" height="8.3"/>
	<path d="M114.9,125.3c-0.5,0.3-1,0.5-1.7,0.5c-0.5,0-0.9-0.1-1.3-0.2c-0.4-0.2-0.7-0.4-0.9-0.7c-0.2-0.3-0.4-0.6-0.5-1
		c-0.1-0.4-0.2-0.8-0.2-1.3c0-0.5,0.1-0.9,0.2-1.3c0.1-0.4,0.3-0.7,0.6-1c0.3-0.3,0.6-0.5,0.9-0.7c0.3-0.2,0.7-0.2,1.1-0.2
		c0.5,0,1,0.1,1.3,0.3c0.4,0.2,0.6,0.5,0.9,0.8c0.2,0.3,0.4,0.7,0.4,1.1c0.1,0.4,0.1,0.8,0.1,1.2h-4.5c0,0.3,0,0.5,0.1,0.8
		c0.1,0.2,0.2,0.4,0.3,0.6c0.2,0.2,0.4,0.3,0.6,0.4c0.2,0.1,0.5,0.2,0.9,0.2c0.4,0,0.8-0.1,1-0.3c0.3-0.2,0.4-0.5,0.5-0.9h1
		C115.6,124.5,115.3,125,114.9,125.3 M114.6,121.4c-0.1-0.2-0.2-0.4-0.4-0.5c-0.2-0.2-0.3-0.3-0.5-0.4c-0.2-0.1-0.4-0.1-0.7-0.1
		c-0.3,0-0.5,0-0.7,0.1c-0.2,0.1-0.4,0.2-0.5,0.4c-0.1,0.2-0.3,0.3-0.4,0.5s-0.1,0.4-0.2,0.7h3.5
		C114.8,121.9,114.7,121.6,114.6,121.4"/>
</g>
</svg>
