<?xml version="1.0" encoding="utf-8"?>
<!-- Generator: Adobe Illustrator 23.0.1, SVG Export Plug-In . SVG Version: 6.00 Build 0)  -->
<svg version="1.1" id="Layer_1" xmlns="http://www.w3.org/2000/svg" xmlns:xlink="http://www.w3.org/1999/xlink" x="0px" y="0px"
	 width="374px" height="256px" viewBox="0 0 374 256" style="enable-background:new 0 0 374 256;" xml:space="preserve">
<g>
	<rect width="4.5" height="245.4"/>
	<path d="M26.9,94.9H40c11.8,0,18.3,5.9,18.3,18.2c0,12.8-5.6,20-18.3,20H26.9V94.9z M32,128.8h8.4c3.5,0,12.8-1,12.8-15
		c0-9.1-3.4-14.6-12.7-14.6H32V128.8z"/>
	<path d="M86.3,124.3c-1.2,6.1-5.6,9.4-11.8,9.4c-8.8,0-13-6.1-13.3-14.5c0-8.3,5.5-14.4,13-14.4c9.8,0,12.8,9.1,12.5,15.8H66.1
		c-0.2,4.8,2.6,9.1,8.6,9.1c3.7,0,6.4-1.8,7.2-5.4H86.3z M81.9,116.6c-0.2-4.3-3.5-7.8-8-7.8c-4.8,0-7.6,3.6-7.9,7.8H81.9z"/>
	<path d="M90.6,105.5h4.5v3.7h0.1c1.5-3,5-4.4,8.8-4.4c8.5,0,12.7,6.7,12.7,14.5c0,7.8-4.2,14.4-12.6,14.4c-2.8,0-6.9-1.1-8.9-4.3
		h-0.1v14.3h-4.5V105.5z M103.4,108.8c-6.1,0-8.4,5.2-8.4,10.4c0,5.5,2.5,10.5,8.7,10.5c6.2,0,8.3-5.3,8.3-10.7
		C111.9,113.9,109.3,108.8,103.4,108.8"/>
	<path d="M145.2,133c-0.8,0.5-1.8,0.7-3.3,0.7c-2.4,0-3.8-1.3-3.8-4.3c-2.5,2.9-5.9,4.3-9.7,4.3c-5,0-9.1-2.2-9.1-7.8
		c0-6.3,4.7-7.6,9.4-8.5c5-1,9.3-0.6,9.3-4.1c0-4-3.3-4.6-6.1-4.6c-3.9,0-6.7,1.2-6.9,5.2h-4.5c0.3-6.8,5.6-9.2,11.7-9.2
		c5,0,10.4,1.1,10.4,7.6v14.2c0,2.1,0,3.1,1.4,3.1c0.4,0,0.8-0.1,1.4-0.3V133z M137.8,118.8c-1.8,1.3-5.2,1.3-8.2,1.9
		c-3,0.5-5.6,1.6-5.6,5c0,3,2.6,4.1,5.3,4.1c6,0,8.4-3.7,8.4-6.3V118.8z"/>
	<path d="M148.3,105.5h4.3v5.8h0.1c2.2-4.4,5.2-6.6,10.2-6.5v4.8c-7.3,0-10,4.2-10,11.2v12.3h-4.5V105.5z"/>
	<path d="M173.2,105.5h5.5v4h-5.5v17.2c0,2.1,0.6,2.5,3.4,2.5h2.1v4h-3.5c-4.7,0-6.6-1-6.6-6v-17.6H164v-4h4.7v-8.3h4.5V105.5z"/>
	<path d="M182.1,105.5h4.3v4.1h0.1c2-3.1,5.1-4.7,8.9-4.7c3.4,0,6.5,1.3,7.6,4.7c1.9-2.9,5.1-4.7,8.7-4.7c5.5,0,9.2,2.3,9.2,8v20.3
		h-4.5V115c0-3.4-0.9-6.1-5.3-6.1c-4.4,0-7.2,2.8-7.2,7.1v17.2h-4.5V115c0-3.6-1.1-6.1-5.2-6.1c-5.4,0-7.4,5-7.4,7.1v17.2h-4.5
		V105.5z"/>
	<path d="M250,124.3c-1.2,6.1-5.6,9.4-11.8,9.4c-8.8,0-13-6.1-13.3-14.5c0-8.3,5.5-14.4,13-14.4c9.8,0,12.8,9.1,12.5,15.8h-20.7
		c-0.2,4.8,2.6,9.1,8.6,9.1c3.7,0,6.4-1.8,7.2-5.4H250z M245.6,116.6c-0.2-4.3-3.5-7.8-8-7.8c-4.8,0-7.6,3.6-7.9,7.8H245.6z"/>
	<path d="M254.2,105.5h4.3v4.4h0.1c1.9-3.4,5-5,9-5c7.3,0,9.5,4.2,9.5,10.1v18.2h-4.5v-18.7c0-3.4-2.1-5.6-5.6-5.6
		c-5.5,0-8.2,3.7-8.2,8.7v15.6h-4.5V105.5z"/>
	<path d="M288.7,105.5h5.5v4h-5.5v17.2c0,2.1,0.6,2.5,3.4,2.5h2.1v4h-3.5c-4.7,0-6.6-1-6.6-6v-17.6h-4.7v-4h4.7v-8.3h4.5V105.5z"/>
	<path d="M28,165.6h-4.7v-4H28v-4.1c0-4.5,2.7-6.8,7.6-6.8c0.9,0,2.1,0.2,2.9,0.4v4c-0.8-0.3-1.8-0.4-2.6-0.4
		c-2.2,0-3.5,0.7-3.5,3.1v3.8h5.3v4h-5.3v23.6H28V165.6z"/>
	<path d="M52.1,161c8.8,0,13.4,6.4,13.4,14.5c0,8.1-4.7,14.4-13.4,14.4c-8.8,0-13.4-6.4-13.4-14.4C38.7,167.3,43.4,161,52.1,161
		 M52.1,185.9c4.8,0,8.6-3.7,8.6-10.4c0-6.7-3.9-10.5-8.6-10.5c-4.8,0-8.6,3.7-8.6,10.5C43.5,182.2,47.4,185.9,52.1,185.9"/>
	<path d="M69.6,161.6h4.3v5.8H74c2.2-4.4,5.2-6.6,10.2-6.5v4.8c-7.3,0-10,4.2-10,11.2v12.3h-4.5V161.6z"/>
	<rect x="102.3" y="151.1" width="5.1" height="38.2"/>
	<path d="M113.6,161.6h4.3v4.4h0.1c1.9-3.4,5-5,9-5c7.3,0,9.5,4.2,9.5,10.1v18.2H132v-18.7c0-3.4-2.1-5.6-5.6-5.6
		c-5.5,0-8.2,3.7-8.2,8.7v15.6h-4.5V161.6z"/>
	<path d="M148.2,161.6h5.5v4h-5.5v17.2c0,2.1,0.6,2.5,3.4,2.5h2.1v4h-3.5c-4.7,0-6.6-1-6.6-6v-17.6h-4.7v-4h4.7v-8.3h4.5V161.6z"/>
	<path d="M180,180.5c-1.2,6.1-5.6,9.4-11.8,9.4c-8.8,0-13-6.1-13.3-14.5c0-8.3,5.5-14.4,13-14.4c9.8,0,12.8,9.1,12.5,15.8h-20.7
		c-0.2,4.8,2.6,9.1,8.6,9.1c3.7,0,6.4-1.8,7.2-5.4H180z M175.6,172.8c-0.2-4.3-3.5-7.8-8-7.8c-4.8,0-7.6,3.6-7.9,7.8H175.6z"/>
	<path d="M184.1,161.6h4.3v5.8h0.1c2.2-4.4,5.2-6.6,10.2-6.5v4.8c-7.3,0-10,4.2-10,11.2v12.3h-4.5V161.6z"/>
	<path d="M201.2,161.6h4.3v4.4h0.1c1.9-3.4,5-5,9-5c7.3,0,9.5,4.2,9.5,10.1v18.2h-4.5v-18.7c0-3.4-2.1-5.6-5.6-5.6
		c-5.5,0-8.2,3.7-8.2,8.7v15.6h-4.5V161.6z"/>
	<path d="M254,189.2c-0.8,0.5-1.8,0.7-3.3,0.7c-2.4,0-3.9-1.3-3.9-4.3c-2.5,2.9-5.9,4.3-9.7,4.3c-5,0-9.1-2.2-9.1-7.8
		c0-6.3,4.7-7.6,9.4-8.5c5-1,9.3-0.6,9.3-4.1c0-4-3.3-4.6-6.1-4.6c-3.9,0-6.7,1.2-6.9,5.2h-4.5c0.3-6.8,5.6-9.2,11.7-9.2
		c5,0,10.4,1.1,10.4,7.6v14.2c0,2.1,0,3.1,1.4,3.1c0.4,0,0.8-0.1,1.4-0.3V189.2z M246.6,175c-1.8,1.3-5.2,1.3-8.2,1.9
		c-3,0.5-5.6,1.6-5.6,5c0,3,2.6,4.1,5.3,4.1c6,0,8.4-3.7,8.4-6.3V175z"/>
	<path d="M263.2,161.6h5.5v4h-5.5v17.2c0,2.1,0.6,2.5,3.4,2.5h2.1v4h-3.5c-4.7,0-6.6-1-6.6-6v-17.6h-4.7v-4h4.7v-8.3h4.5V161.6z"/>
	<path d="M276.8,156.7h-4.5v-5.6h4.5V156.7z M272.3,161.6h4.5v27.6h-4.5V161.6z"/>
	<path d="M294.4,161c8.8,0,13.4,6.4,13.4,14.5c0,8.1-4.7,14.4-13.4,14.4c-8.8,0-13.4-6.4-13.4-14.4C281,167.3,285.7,161,294.4,161
		 M294.4,185.9c4.8,0,8.6-3.7,8.6-10.4c0-6.7-3.8-10.5-8.6-10.5c-4.8,0-8.6,3.7-8.6,10.5C285.8,182.2,289.7,185.9,294.4,185.9"/>
	<path d="M311.9,161.6h4.3v4.4h0.1c1.9-3.4,5-5,9-5c7.3,0,9.5,4.2,9.5,10.1v18.2h-4.5v-18.7c0-3.4-2.1-5.6-5.6-5.6
		c-5.5,0-8.2,3.7-8.2,8.7v15.6h-4.5V161.6z"/>
	<path d="M364.8,189.2c-0.8,0.5-1.8,0.7-3.3,0.7c-2.4,0-3.9-1.3-3.9-4.3c-2.5,2.9-5.9,4.3-9.7,4.3c-5,0-9.1-2.2-9.1-7.8
		c0-6.3,4.7-7.6,9.4-8.5c5-1,9.3-0.6,9.3-4.1c0-4-3.3-4.6-6.1-4.6c-3.9,0-6.7,1.2-6.9,5.2h-4.5c0.3-6.8,5.6-9.2,11.7-9.2
		c5,0,10.4,1.1,10.4,7.6v14.2c0,2.1,0,3.1,1.4,3.1c0.4,0,0.8-0.1,1.4-0.3V189.2z M357.4,175c-1.8,1.3-5.2,1.3-8.2,1.9
		c-3,0.5-5.6,1.6-5.6,5c0,3,2.6,4.1,5.3,4.1c6,0,8.4-3.7,8.4-6.3V175z"/>
	<rect x="368.1" y="151.1" width="4.5" height="38.2"/>
	<path d="M26.9,207.2H40c11.8,0,18.3,5.9,18.3,18.2c0,12.8-5.6,20-18.3,20H26.9V207.2z M32,241.1h8.4c3.5,0,12.8-1,12.8-15
		c0-9.1-3.4-14.6-12.7-14.6H32V241.1z"/>
	<path d="M86.3,236.6c-1.2,6.1-5.6,9.4-11.8,9.4c-8.8,0-13-6.1-13.3-14.5c0-8.3,5.5-14.4,13-14.4c9.8,0,12.8,9.1,12.5,15.8H66.1
		c-0.2,4.8,2.6,9.1,8.6,9.1c3.7,0,6.4-1.8,7.2-5.4H86.3z M81.9,229c-0.2-4.3-3.5-7.8-8-7.8c-4.8,0-7.6,3.6-7.9,7.8H81.9z"/>
	<polygon points="101.9,245.4 97,245.4 86.8,217.8 91.9,217.8 99.6,240.8 99.7,240.8 107.2,217.8 112,217.8 	"/>
	<path d="M137.4,236.6c-1.2,6.1-5.6,9.4-11.8,9.4c-8.8,0-13-6.1-13.3-14.5c0-8.3,5.5-14.4,13-14.4c9.8,0,12.8,9.1,12.5,15.8h-20.7
		c-0.2,4.8,2.6,9.1,8.6,9.1c3.7,0,6.4-1.8,7.2-5.4H137.4z M133,229c-0.2-4.3-3.5-7.8-8-7.8c-4.8,0-7.6,3.6-7.9,7.8H133z"/>
	<rect x="141.6" y="207.2" width="4.5" height="38.2"/>
	<path d="M163.8,217.1c8.8,0,13.4,6.4,13.4,14.5c0,8.1-4.7,14.4-13.4,14.4c-8.8,0-13.4-6.4-13.4-14.4
		C150.4,223.5,155,217.1,163.8,217.1 M163.8,242c4.8,0,8.6-3.7,8.6-10.4c0-6.7-3.8-10.5-8.6-10.5c-4.8,0-8.6,3.7-8.6,10.5
		C155.2,238.3,159,242,163.8,242"/>
	<path d="M181.4,217.8h4.5v3.7h0.1c1.5-3,5-4.4,8.8-4.4c8.5,0,12.7,6.7,12.7,14.5c0,7.8-4.2,14.4-12.6,14.4c-2.8,0-6.9-1.1-8.9-4.3
		h-0.1V256h-4.5V217.8z M194.2,221.1c-6.1,0-8.4,5.2-8.4,10.4c0,5.5,2.5,10.5,8.7,10.5c6.2,0,8.3-5.3,8.3-10.7
		C202.8,226.2,200.1,221.1,194.2,221.1"/>
	<path d="M211.8,217.8h4.3v4.1h0.1c2-3.1,5.1-4.7,8.9-4.7c3.4,0,6.5,1.3,7.6,4.7c1.9-2.9,5.1-4.7,8.7-4.7c5.5,0,9.2,2.3,9.2,8v20.3
		H246v-18.1c0-3.4-0.9-6.1-5.3-6.1c-4.4,0-7.2,2.8-7.2,7.1v17.2h-4.5v-18.1c0-3.6-1.1-6.1-5.2-6.1c-5.4,0-7.4,5-7.4,7.1v17.2h-4.5
		V217.8z"/>
	<path d="M279.6,236.6c-1.2,6.1-5.6,9.4-11.8,9.4c-8.8,0-13-6.1-13.3-14.5c0-8.3,5.5-14.4,13-14.4c9.8,0,12.8,9.1,12.5,15.8h-20.7
		c-0.2,4.8,2.6,9.1,8.6,9.1c3.7,0,6.4-1.8,7.2-5.4H279.6z M275.2,229c-0.2-4.3-3.5-7.8-8-7.8c-4.8,0-7.6,3.6-7.9,7.8H275.2z"/>
	<path d="M283.8,217.8h4.3v4.4h0.1c1.9-3.4,5-5,9-5c7.3,0,9.5,4.2,9.5,10.1v18.2h-4.5v-18.7c0-3.4-2.1-5.6-5.6-5.6
		c-5.5,0-8.2,3.7-8.2,8.7v15.6h-4.5V217.8z"/>
	<path d="M318.3,217.8h5.5v4h-5.5v17.2c0,2.1,0.6,2.5,3.4,2.5h2.1v4h-3.5c-4.7,0-6.6-1-6.6-6v-17.6h-4.7v-4h4.7v-8.3h4.5V217.8z"/>
	<path d="M24.5,35.6C24.5,35.6,24.5,35.6,24.5,35.6C24.5,35.6,24.5,35.6,24.5,35.6"/>
	<path d="M78,38.7c-0.3-1.9-1-3.8-2.1-5.4c0.1-0.1,0.3-0.3,0.3-0.5c-0.2,0-0.4,0-0.6,0.2c-0.1-0.1-0.1-0.2-0.2-0.3
		c-1.4-1.7-3.1-2.9-4.9-3.5c0-0.3-0.3-0.4-0.4-0.4c-0.1,0-0.2,0.1-0.2,0.2c0,0-0.1,0-0.1,0c-0.1-0.1-0.2-0.2-0.4-0.2
		c0,0.2,0,0.4,0.1,0.5v0c-0.1,0-0.2,0.1-0.3,0.1c-0.1,0.1,0,0.4,0.3,0.5v4c-0.2,0-0.3,0.1-0.5,0.2c0.2,0.1,0.3,0.2,0.5,0.2v4.3
		c-0.3,0.1-0.4,0.3-0.3,0.5c0,0.1,0.1,0.2,0.3,0.2v0.1c-0.1,0.1-0.1,0.2-0.1,0.4c0.2,0,0.3,0,0.4-0.1h0.1c0,0.1,0.1,0.2,0.2,0.3
		c0.1,0.1,0.4,0,0.5-0.3h2.9c0,0.2,0.1,0.3,0.2,0.5c0.2-0.2,0.2-0.3,0.2-0.5H77c0.1,0.3,0.3,0.4,0.5,0.3c0.1,0,0.2-0.1,0.2-0.3h0.1
		c0.1,0.1,0.3,0.1,0.4,0.1c0-0.2-0.1-0.3-0.1-0.4c0,0,0-0.1,0-0.1c0.2,0,0.2-0.1,0.3-0.2C78.4,39,78.3,38.7,78,38.7 M75.2,32.8
		c1.5,1.9,2.4,4.2,2.6,6.6h-8.1V29.3C71.7,29.6,73.7,30.9,75.2,32.8"/>
	<path d="M77.6,39.1c-0.2-2.3-1.1-4.5-2.5-6.2c-0.7-0.9-1.5-1.6-2.3-2.2c-0.9-0.6-1.8-1-2.7-1.2l-0.2,0v9.8h7.7L77.6,39.1z
		 M74.7,32.9c-0.1,0.1-0.1,0.2-0.1,0.3c0,0.1,0.1,0.2,0.3,0.2c-0.1,0.1-0.2,0.3-0.3,0.5c0.2,0,0.4,0,0.5-0.1c0,0.2,0,0.3,0.1,0.4
		c0.1,0,0.1,0,0.2,0c0.8,1.4,1.4,2.9,1.6,4.5c-0.1-0.1-0.2-0.1-0.4-0.1c0,0.2,0.1,0.3,0.1,0.4h-2.7c0-0.1-0.1-0.3-0.2-0.3
		c-0.1,0-0.2,0-0.4,0.1c0-0.2-0.1-0.3-0.2-0.5c-0.1,0.2-0.2,0.3-0.2,0.5c-0.1-0.2-0.3-0.2-0.4-0.1c-0.1,0-0.2,0.1-0.2,0.3h-2.3
		c0.1-0.1,0.1-0.2,0.1-0.4c-0.2,0-0.3,0.1-0.4,0.1v-3.8c0.2,0,0.3-0.1,0.3-0.2c0-0.1,0-0.2-0.1-0.4c0.2,0,0.3-0.1,0.5-0.2
		c-0.2-0.1-0.3-0.2-0.5-0.2c0.2-0.1,0.2-0.3,0.1-0.4c0-0.1-0.2-0.2-0.3-0.2v-3.2c0.1,0.1,0.2,0.1,0.4,0.1c0-0.2,0-0.3-0.1-0.4
		C72,30.4,73.5,31.4,74.7,32.9"/>
	<path d="M76,37.6L76,37.6c0.1-0.1,0.3-0.2,0.3-0.3c-0.2,0.1-0.3,0-0.3,0c0.1-0.1,0.3,0,0.1-0.2c-0.1-0.2-0.2-0.2-0.4-0.1
		c-0.1,0.1-1.1,0-1.1-0.7c0,0,0,0,0,0c0.1,0.1,0.2,0.2,0.3,0.3c0.4,0.3,0.9,0.1,0.9-0.3c0-0.4-0.3-0.6-0.7-0.9
		c-0.2-0.1-0.3-0.3-0.4-0.4c-0.1-0.3,0-0.5-0.4-1c0-0.1,0-0.3-0.1-0.4c-0.2,0.3-0.3,1,0.2,1.5c0.4,0.4,1.2,0.8,1.2,1.2
		c0,0.1-0.1,0.2-0.2,0.2c-0.2,0-0.4-0.1-0.6-0.3c0,0-0.1-0.1-0.1-0.1h0c-0.3-0.3-0.7-0.8-0.9-1.1c-0.4-0.5-0.2-1-0.1-1.4
		c0.3-0.4-0.2-1.1-0.4-1.3c0,0,0.1-0.2,0-0.4c-0.1,0.1-0.2,0-0.2,0c-0.1-0.1-0.1-0.2-0.2-0.2c-0.2,0-0.2-0.1-0.2-0.2
		c-0.1,0.1-0.1,0.2-0.2,0.2c-0.1,0-0.2,0-0.3,0c-0.1,0.1-0.1,0.1-0.3,0.1c-0.2,0-0.2,0.1-0.1,0.2c0,0.1,0,0.2,0.1,0.2c0,0,0,0,0,0
		l0.1,0.1l0.1-0.2c0,0,0,0,0,0c0.1-0.1,0.3-0.1,0.3,0.1c0,0.1,0,0.1-0.1,0.1c-0.1,0-0.2,0-0.3,0c-0.1,0-0.1,0.1-0.1,0.2
		c0,0.1,0.1,0.1,0.3,0.1c0.2,0,0.5-0.1,0.5,0.1c0,0.4-0.5,0.4-0.6,0.9c-0.1-0.1-0.2-0.2-0.3-0.3c-0.1-0.1-0.2-0.3-0.4-0.4
		c-0.1-0.1-0.2-0.2-0.4-0.3c-0.2-0.1-0.2-0.2-0.2-0.3c0-0.1,0.1-0.3,0.1-0.4c0,0,0-0.1,0-0.1c0-0.1-0.2-0.2-0.2-0.1
		c0,0,0.1,0.1,0.1,0.1c0,0-0.1,0.1-0.1,0.1c0,0,0,0.1,0,0.1c0,0,0,0,0,0c0,0,0,0,0,0.1c0,0,0,0,0,0c0-0.1-0.1-0.3-0.2-0.3
		c0,0-0.1,0-0.1,0c0,0,0,0,0,0c0-0.1-0.1-0.2-0.2-0.1c0,0,0.1,0,0.1,0c0,0,0,0.1,0,0.1c0,0.1,0.1,0.2,0.2,0.2c0,0,0,0,0,0
		c0,0,0,0,0,0c0,0,0,0,0,0c-0.2-0.1-0.3,0-0.3,0.1c0,0,0,0.1,0,0.1c-0.1,0-0.1,0.1,0,0.2c0,0,0-0.1,0-0.1c0,0,0,0,0,0
		c0,0,0,0,0.1,0.1c0,0,0,0,0.1,0c0,0,0,0,0,0c0,0,0,0,0.1,0c0,0,0,0,0,0c-0.1,0.1-0.1,0.2,0.1,0.3c-0.1,0.1-0.3,0.1-0.3-0.1
		c-0.2,0.3,0.1,0.5,0.3,0.4c0,0.1,0,0.3,0,0.3c0,0,0-0.1,0-0.1c0,0,0,0,0,0c0,0.1,0,0.1,0.1,0.2c0,0,0-0.1,0-0.1
		c0,0.1,0.1,0.1,0.1,0.2c0.1,0.2,0.3,0.7,0.8,0.9c-0.3,0.1-0.4,0.4-0.6,0.6c-0.1,0.1-0.3,0.3-0.5,0.2c-0.1,0-0.1-0.1-0.1-0.1
		c-0.1,0-0.1-0.1-0.2,0c0,0-0.1,0-0.1,0c-0.1,0-0.2,0-0.3,0.1c0,0,0.1,0,0.2,0c0,0,0,0.1,0,0.1c0,0.1,0,0.1,0.3,0.1c0,0,0,0,0,0
		c0,0-0.1,0.1-0.1,0c-0.1,0-0.2-0.1-0.2,0c0,0,0,0-0.1,0.1c0,0,0,0,0,0c-0.1,0-0.2,0.2-0.1,0.3c0,0,0-0.1,0.1-0.2c0,0,0,0.1,0.1,0.1
		c0.1,0.1,0.2,0.2,0.3-0.1c0,0,0,0,0,0c0,0.1-0.1,0.3,0,0.3c0,0,0,0,0.1,0c0,0,0,0,0,0c0,0.1,0.2,0.2,0.3,0.1c0,0-0.1-0.1-0.2-0.2
		c0,0,0.1,0,0.1,0c0.1-0.1,0-0.2,0-0.3c0,0,0,0,0,0c0,0.1,0.1,0.2,0.2,0.1c0.1,0,0.1-0.1,0.1-0.2c0.2-0.1,0.3-0.1,0.4-0.1
		c0-0.1,0.1-0.2,0.3-0.3c0.2,0,0.3,0,0.3,0.1c0-0.1,0.1-0.2,0.2-0.3c0,0.7,1,0.7,1.2,1.1C73.7,36,73.4,36,73.2,36
		c-0.2,0-0.7,0.3-0.7,0.5c0,0.2,0.2,0.6,0.4,0.8c-0.3,0.1-0.4,0-0.6,0c0,0,0,0,0,0c-0.2,0-0.3-0.4-0.5-0.3c0,0-0.1,0-0.1,0.1
		c-0.1,0-0.3,0.1-0.2,0.2c0,0,0.1-0.1,0.2-0.1c0,0,0,0.1,0,0.1c0,0,0,0.1,0.1,0.1c0.1,0,0.1,0,0.1,0c0,0,0,0,0,0
		c0,0.1-0.3-0.1-0.3,0.2c0,0,0,0.1,0.1,0.1c0,0.1,0.1,0.2,0.2,0.1c0,0-0.1-0.1-0.1-0.1c0,0,0.1,0,0.1,0c0,0,0,0,0,0c0,0,0,0,0,0
		c0,0,0,0,0,0c0,0,0,0,0,0.1c0,0,0,0.1,0,0.1c0,0.1,0.1,0.2,0.3,0.1c0,0-0.1,0-0.1-0.1c0,0,0.1,0,0.1,0c0,0,0-0.1,0-0.1c0,0,0,0,0,0
		c0,0,0,0,0.1,0c0,0,0,0,0,0c0,0.1,0.1,0.1,0.2,0.1c0.1,0,0.1,0,0.1-0.1c0,0,0.1,0,0.1,0.1c0-0.1,0-0.2,0.3,0l0.2-0.1
		c0,0,0.2,0.1,0.3,0c0.1-0.1,0.1-0.1,0.1-0.2c-0.1-0.2-0.2-0.2-0.2-0.4c-0.1-0.4,0.4-0.6,0.7-0.5c0.1,0.2,0.4,0.8,0.9,1
		c0.3,0.1,0.5-0.3,0.6-0.2c0,0,0,0,0.1,0.1c0,0.2,0,0.3,0,0.4c0,0.1-0.2,0-0.3,0c-0.1,0-0.1,0-0.1,0.1c-0.1,0-0.2,0.1-0.2,0.2
		c0,0,0.1-0.1,0.2-0.1c0,0,0,0,0,0c0,0.1,0.2,0.2,0.3,0.1c0,0,0.1,0,0,0c-0.1,0.1-0.2,0.2-0.1,0.3c0,0,0,0,0.1,0
		c0,0.1,0.1,0.2,0.1,0.2c0,0,0-0.1,0-0.2c0,0,0.1,0,0.1,0c0.1,0,0-0.2,0.2-0.2c0,0,0,0,0,0c0,0.1-0.1,0.2,0,0.3c0,0,0,0,0.1,0
		c0,0.1,0.1,0.1,0.3,0.1c0,0-0.1,0-0.1-0.1c0,0,0.1-0.1,0.1-0.1c0.1-0.2-0.1-0.2-0.1-0.3c0-0.1,0.2,0,0.2-0.3c0,0,0,0,0,0
		c0.1-0.1,0.2-0.1,0.2-0.2C76.2,37.6,76.1,37.6,76,37.6"/>
	<path d="M72.3,32.3L72.3,32.3C72.3,32.3,72.3,32.3,72.3,32.3"/>
	<path d="M66.9,43.2l-0.2,0l0-0.2c0-0.7-0.4-1.2-1.1-1.2c-0.7,0-1.9,0.8-3.7,0.8c-0.7,0-1.6-0.4-2.2-0.7l-0.2,0.5c0,0,0,0,0-0.1
		c0-0.2-0.2-0.4-0.4-0.4c-0.2,0-0.4,0.2-0.4,0.4c0,0.2,0.2,0.4,0.4,0.4c0.1,0,0.3-0.1,0.3-0.2l-0.2,0.5c0.1,0,0.1,0.1,0.2,0.1
		c-0.3,2.7,1.7,6,5.1,7.1c0.5-0.1,1.1,0,1.1,0.5c0,0.3-0.2,0.5-0.5,0.5c-0.2,0-0.3-0.1-0.3-0.3c0-0.2,0.4-0.1,0.5-0.3
		c0.1-0.2-0.1-0.3-0.3-0.3c-0.2,0-0.6,0.2-0.6,0.6c0,0.5,0.4,0.8,0.8,0.8c0.4,0,1.2-0.2,1.1-1.2c0.2,0,0.4,0,0.4-0.2l0-0.5l-0.2,0
		l0.1-6.1l0.1,0c0.2,0,0.4-0.1,0.4-0.3C67.3,43.3,67.1,43.2,66.9,43.2 M60.6,43.7l4.2,6.1C62.6,48.9,60.3,46.8,60.6,43.7 M65,49.2
		l-3.9-5.5c0.1,0,0.2,0,0.3,0c0.2,0,0.4,0,0.6,0l3.1,4.4C65.1,48.5,65,48.9,65,49.2 M62.5,43.5c0.3-0.1,0.6-0.2,0.9-0.3l2,2.9
		c-0.1,0.4-0.1,0.8-0.2,1.2L62.5,43.5z M65.9,43.1l-0.2,0c-0.2,0-0.4,0.1-0.4,0.3c0,0.2,0.2,0.4,0.4,0.4l0.1,0l-0.3,1.7l-1.7-2.5
		c0.8-0.3,1.5-0.7,1.8-0.7C65.9,42.4,65.9,42.6,65.9,43.1"/>
	<path d="M65.5,30.2L65.5,30.2C65.5,30.2,65.5,30.2,65.5,30.2"/>
	<path d="M66.4,31.9c0.9,0,1.3-0.3,1.3-0.5c0-0.9-2.3-0.4-2.3-0.9c0-0.1,0.1-0.2,0.2-0.3c0,0,0,0,0,0c1.2-0.1,1.2-0.9,2.1-1.1
		c-1-0.1-1.2,0.7-1.6,0.7c0.2-0.1,0.3-0.4,0.3-0.5c-0.2,0.3-0.7,0.3-0.9,0.6c0,0-0.1,0.1,0,0.2c-0.2,0.1-0.3,0.2-0.3,0.3
		c0,0.9,2.4,0.3,2.4,0.9c0,0.2-0.4,0.4-1.1,0.4c-0.5,0-0.8-0.4-1.8-0.1c0-0.2,0.3-0.4,0.2-0.6c0.1,0,0.1-0.1,0.2-0.2
		c-0.1-0.1-0.1-0.1-0.2-0.1c0,0,0-0.1,0-0.1c0,0,0-0.1,0-0.1c0,0-0.1-0.1-0.2-0.1c-0.1-0.1-0.2-0.1-0.2-0.1c0,0-0.1,0-0.1,0
		c-0.1,0-0.1,0-0.1,0.1c0,0-0.1-0.1-0.2-0.1c0,0.1,0,0.1,0,0.3c-0.1,0-0.2,0.2-0.3,0.2c0,0.1,0.1,0.1,0.1,0.1
		c-0.1,0.1-0.1,0.3-0.2,0.3c0,0,0,0.1,0.1,0.1c-0.1,0.2-0.1,0.4-0.1,0.5h0c0-0.1-0.1-0.1-0.2-0.1c-0.1-0.1-0.1-0.1-0.1-0.3
		c0-0.1,0.1-0.2,0.1-0.3c0,0,0-0.1,0-0.1c0-0.1-0.1-0.1-0.2-0.1c0,0,0.1,0.1,0.1,0.1C63,31,63,31,63,31c0,0-0.1,0.1,0,0.1
		c0,0,0,0,0,0c0,0,0,0,0,0.1c0,0,0,0,0,0c0-0.1,0-0.2-0.1-0.2c0,0,0,0-0.1,0c0,0,0,0,0,0c0-0.1-0.1-0.2-0.2-0.1c0,0,0.1,0,0.1,0
		c0,0,0,0.1,0,0.1c0,0.1,0,0.1,0.1,0.1c0,0,0,0,0,0c0,0,0,0,0,0c0,0,0,0,0,0c-0.2-0.1-0.2,0-0.3,0.1c0,0,0,0,0,0.1
		c-0.1,0-0.1,0.1,0,0.2c0,0,0-0.1,0.1-0.1c0,0,0,0,0,0c0,0,0,0,0,0c0,0,0,0,0.1,0c0,0,0,0,0,0c0,0,0,0,0,0c0,0,0,0,0,0
		c-0.1,0.1-0.1,0.2,0,0.2c0,0,0,0,0,0c0,0.2-0.3,0.2-0.3,0c-0.2,0.2,0.1,0.4,0.3,0.3c0,0,0,0,0,0c0,0,0,0.1,0.1,0.1c0,0,0,0,0.1,0
		c0,0,0,0,0,0c0,0.1,0,0.1,0.1,0.1c0,0,0-0.1,0-0.1c0,0,0.1,0.2,0.2,0.3c-0.2,0.1-0.5,0.2-0.5,0.2c0,0-0.3,0-0.4,0
		c-0.1,0.1-0.5,0.2-0.6,0.1c0,0,0-0.1-0.1-0.2c0,0-0.1-0.1-0.1-0.1c0,0,0,0-0.1,0c-0.1-0.1-0.2-0.1-0.2,0c0,0,0.1,0,0.1,0.1
		c0,0,0,0.1,0,0.1c0,0,0,0.1,0.2,0.2c0,0,0,0,0,0c0,0-0.1,0-0.1,0c-0.1-0.1-0.1-0.2-0.2-0.1c0,0,0,0-0.1,0c0,0,0,0,0,0
		c-0.1,0-0.2,0.1-0.2,0.2c0,0,0-0.1,0.1-0.1c0,0,0,0.1,0,0.1c0,0.1,0.1,0.2,0.3,0c0,0,0,0,0,0c-0.1,0.1-0.2,0.2-0.1,0.3
		c0,0,0,0,0.1,0c0,0,0,0,0,0c0,0.1,0.1,0.2,0.2,0.2c0,0-0.1-0.1-0.1-0.2c0,0,0.1,0,0.1,0c0.1,0,0.1-0.2,0.1-0.2c0,0,0,0,0,0
		c0,0,0,0.2,0.2,0.2c0.1,0,0.2-0.1,0.2-0.2c0,0,0,0,0,0c0,0,0.1,0.1,0.1,0.1c0,0,0.1,0,0.1-0.1c0,0.1,0,0.1-0.1,0.2
		c0.1,0,0.2-0.1,0.2-0.2c0,0,0,0,0,0.1c0,0,0,0,0,0c0,0,0.1,0,0.3,0c0,0,0,0,0,0c0,0.1,0,0.1,0,0.1c0,0,0-0.1,0.1-0.1
		c0,0,0,0.1,0.1,0.2c0-0.3,0.2-0.2,0.4-0.3c0,0,0,0,0,0c0,0,0,0.1-0.1,0.1c0.1,0,0.2-0.1,0.2-0.2c0,0,0.1-0.1,0.1-0.1
		c0.1,0,0.2,0,0.2-0.1c0,0,0,0.1,0,0.1c0.2,0,0.4-0.2,0.5-0.2c0.4-0.1-0.3-0.4,0.6-0.4c0.1,0,0.2,0,0.3-0.1
		c-0.1,0.1-0.1,0.4,0.1,0.4c0.1,0,0.2,0.1,0.2,0.1c0,0,0,0,0,0c-0.1,0-0.2,0-0.2,0.1c-0.2,0.1-0.2-0.3-0.4-0.2c0,0,0,0-0.1,0
		c-0.1,0-0.2,0.1-0.2,0.2c0,0,0.1-0.1,0.1-0.1c0,0,0,0,0,0c0,0,0,0.1,0.1,0.1c0,0,0.1,0,0.1,0c0,0,0,0,0,0c0,0.1-0.3-0.1-0.2,0.2
		c0,0,0,0.1,0,0.1c0,0.1,0,0.1,0.2,0.1c0,0-0.1,0-0.1-0.1c0,0,0.1,0,0.1,0c0,0,0,0,0,0c0,0,0,0,0,0c0,0,0,0,0,0c0,0,0,0,0,0
		c0,0,0,0.1,0,0.1c0,0.1,0.1,0.2,0.2,0.1c0,0-0.1,0-0.1-0.1c0,0,0.1,0,0.1,0c0,0,0,0,0-0.1c0,0,0,0,0,0c0,0,0,0,0.1,0c0,0,0,0,0,0
		c0,0.1,0.1,0.1,0.2,0.1c0.2-0.1,0-0.2,0.1-0.2c0,0,0.1,0,0.1,0c0.1,0,0.3,0,0.3,0c0-0.1,0-0.3-0.1-0.3c-0.1,0,0-0.1-0.1-0.2
		c0.1,0.1,0.3,0.1,0.5,0.1c0.3,0,0-0.1,0.2-0.1c0.2-0.1,0.3-0.1,0.4,0c0,0,0.1,0,0.1,0.1c0,0.2,0,0.2,0,0.3c0,0.1-0.2,0-0.3,0
		c-0.1,0-0.1,0-0.1,0c-0.1,0-0.2,0.1-0.2,0.2c0,0,0.1-0.1,0.1-0.1c0,0,0,0,0,0c0,0.1,0.1,0.2,0.2,0.1c0,0,0,0,0,0
		c-0.1,0.1-0.2,0.2-0.1,0.2c0,0,0,0,0.1,0c0,0.1,0,0.1,0.1,0.2c0,0,0-0.1,0-0.1c0,0,0,0,0.1,0c0.1,0,0-0.1,0.1-0.2c0,0,0,0,0,0
		c0,0.1,0,0.2,0,0.2c0,0,0,0,0.1,0c0,0.1,0.1,0.1,0.2,0.1c0,0-0.1,0-0.1-0.1c0,0,0-0.1,0.1-0.1c0-0.2-0.1-0.2-0.1-0.3
		c0-0.1,0.2,0,0.2-0.2c0,0,0-0.1-0.1-0.1c0,0,0,0,0,0h0c0,0,0.1,0,0.1-0.1c-0.1,0-0.1-0.1-0.1-0.2c0,0,0,0,0,0c0,0,0.1-0.1,0.1-0.2
		c0,0.1-0.2,0.1-0.2,0c0,0,0-0.1-0.1-0.1C66.9,32.1,66.8,32,66.4,31.9C66.4,32,66.3,32,66.4,31.9 M64.2,30.8c0,0.1-0.1,0.1-0.2,0.1
		c-0.1-0.1,0-0.1-0.1-0.2C64,30.7,64.2,30.7,64.2,30.8 M64.4,31.2C64.3,31.2,64.3,31.1,64.4,31.2C64.3,31.1,64.3,31.1,64.4,31.2
		c-0.1,0-0.2,0-0.2,0c0,0,0,0.1,0,0.1c0,0,0,0.1,0,0.1c0,0.1-0.1,0.1-0.2,0.1c-0.1,0-0.1-0.1,0-0.2c0,0,0-0.1,0.1-0.1
		c0,0,0.1,0,0.1-0.1c0-0.1,0-0.1-0.1-0.1c0,0,0.1,0,0-0.1c0,0-0.1,0-0.1,0c0,0,0,0,0-0.1c0,0,0,0,0.1,0l0.2,0.1
		C64.4,31.1,64.4,31.1,64.4,31.2C64.4,31.1,64.4,31.2,64.4,31.2 M64.5,31c-0.1,0-0.1-0.1-0.1-0.2c0,0,0.2,0.1,0.3,0.1
		C64.5,31,64.6,31,64.5,31"/>
	<path d="M61.2,34.8c-0.1-0.1-0.2-0.2-0.3-0.3c-0.2-0.1-0.2-0.2-0.1-0.3c0-0.1,0.1-0.3,0.1-0.4c0,0,0-0.1,0-0.1
		c0-0.1-0.1-0.2-0.2-0.1c0,0,0.1,0.1,0.1,0.1c0,0-0.1,0.1-0.1,0.1c0,0,0,0.1,0,0.1c0,0,0,0,0,0c0,0,0,0,0,0.1c0,0,0,0,0,0
		c0-0.1-0.1-0.2-0.2-0.2c0,0,0,0-0.1,0c0,0,0,0,0,0c0-0.1-0.1-0.2-0.2-0.1c0,0,0.1,0,0.1,0c0,0,0,0.1,0,0.1c0,0.1,0.1,0.1,0.2,0.1
		c0,0,0,0,0,0c0,0,0,0,0,0c0,0,0,0,0,0c-0.2-0.1-0.3,0-0.3,0.1c0,0,0,0.1,0,0.1c-0.1,0-0.1,0.1,0,0.2c0,0,0-0.1,0-0.1c0,0,0,0,0,0
		c0,0,0,0,0.1,0c0,0,0,0,0.1,0c0,0,0,0,0,0c0,0,0,0,0.1,0c0,0,0,0,0,0c-0.1,0.1-0.1,0.2,0,0.3c0,0,0,0,0,0c0,0.2-0.3,0.2-0.3,0
		c-0.2,0.3,0.1,0.4,0.3,0.3c0,0,0,0,0,0c0,0,0,0.1,0.1,0.1c0,0,0-0.1,0-0.1c0,0,0,0,0,0c0,0.1,0,0.1,0.1,0.1c0,0,0-0.1,0-0.1
		c0,0,0.1,0.2,0.3,0.3c0.2,0.1,0.3,0.2,0.4,0.1c0,0.2,0.1,0.3,0.1,0.3c0,0-0.5,0-0.6,0c-0.1,0.1-0.5,0.2-0.6,0.1
		c0-0.1,0-0.1-0.1-0.2c0-0.1-0.1-0.1-0.1-0.1c0,0-0.1,0-0.1,0c-0.1-0.1-0.2-0.1-0.3,0c0,0,0.1,0,0.1,0.1c0,0,0,0.1,0,0.1
		c0,0,0,0.1,0.2,0.2c0,0,0,0,0,0c0,0-0.1,0-0.1,0c-0.1-0.1-0.1-0.2-0.2-0.1c0,0,0,0-0.1,0c0,0,0,0,0,0c-0.1,0-0.3,0.1-0.2,0.2
		c0,0,0-0.1,0.1-0.1c0,0,0,0.1,0,0.1c0,0.1,0.1,0.2,0.3,0c0,0,0,0,0,0c-0.1,0.1-0.2,0.2-0.1,0.3c0,0,0,0,0.1,0c0,0,0,0,0,0
		c0,0.1,0.1,0.2,0.2,0.2c0,0-0.1-0.1-0.1-0.2c0,0,0.1,0,0.1,0c0.1,0,0.1-0.2,0.1-0.2c0,0,0,0,0,0c0,0.1,0,0.2,0.2,0.2
		c0.1,0,0.2-0.1,0.2-0.2c0,0,0,0,0,0c0,0,0.1,0.1,0.1,0.1c0,0,0.1-0.1,0.1-0.1c0,0.1,0,0.2-0.1,0.2c0.1,0,0.2-0.1,0.2-0.2
		c0,0,0,0.1,0.1,0.1c0,0,0,0,0,0c0,0,0.1,0,0.3,0c0,0,0,0,0,0c0,0.1,0,0.1,0,0.1c0,0,0-0.1,0.1-0.1c0,0,0,0.1,0.1,0.2
		c0-0.4,0.2-0.2,0.4-0.4c0,0,0,0,0,0c0,0,0,0.1-0.1,0.1c0.2,0.1,0.6-0.3,0.7-0.5c0.1,0,0.2,0,0.2,0c0.7,0.1,0.2-0.6,1.3-0.4
		c0.1,0,0.2-0.1,0.3-0.1c-0.1,0.1-0.1,0.5,0.1,0.5c0.1,0,0.2,0.1,0.3,0.1c0,0,0,0,0,0c-0.1,0-0.2,0-0.2,0.1
		c-0.2,0.2-0.2-0.4-0.5-0.3c0,0-0.1,0-0.1,0.1c-0.1,0-0.2,0.1-0.2,0.2c0,0,0.1-0.1,0.2-0.1c0,0,0,0.1,0,0.1c0,0,0,0.1,0.1,0.1
		c0.1,0,0.1,0,0.1,0c0,0,0,0,0,0c0,0.1-0.3-0.1-0.3,0.2c0,0,0,0.1,0,0.1c0,0.1,0.1,0.2,0.2,0.1c0,0-0.1-0.1-0.1-0.1c0,0,0.1,0,0.1,0
		c0,0,0,0,0,0c0,0,0,0,0,0c0,0,0,0,0,0c0,0,0,0,0,0.1c0,0,0,0.1,0,0.1c0,0.1,0.1,0.2,0.3,0.1c0,0-0.1,0-0.1-0.1c0,0,0.1,0,0.1,0
		c0,0,0-0.1,0-0.1c0,0,0,0,0,0c0,0,0,0,0.1,0c0,0,0,0,0,0c0,0.1,0.1,0.1,0.2,0.1c0.2-0.1,0-0.2,0.2-0.2c0,0,0.1,0,0.1,0
		c0.1,0,0.3,0,0.4,0c0-0.1,0-0.3-0.1-0.4c-0.1,0,0-0.1-0.1-0.3c0.1,0.1,0.3,0.1,0.5,0.1c0.4,0,0.5-0.1,0.6-0.2
		c0.2-0.1,0.4-0.1,0.4,0c0,0,0.1,0,0.1,0.1c0,0.2,0,0.2,0,0.3c0,0.1-0.2,0-0.3,0c-0.1,0-0.1,0-0.1,0.1c-0.1,0-0.2,0.1-0.2,0.2
		c0,0,0.1-0.1,0.2-0.1c0,0,0,0,0,0c0,0.1,0.2,0.2,0.2,0.1c0,0,0,0,0,0c-0.1,0.1-0.2,0.2-0.1,0.2c0,0,0,0,0.1,0
		c0,0.1,0.1,0.2,0.1,0.2c0,0,0-0.1,0-0.2c0,0,0.1,0,0.1,0c0.1,0,0-0.2,0.1-0.2c0,0,0,0,0,0c0,0.1,0,0.2,0,0.2c0,0,0,0,0.1,0
		c0,0.1,0.1,0.1,0.2,0.1c0,0-0.1,0-0.1-0.1c0,0,0.1-0.1,0.1-0.1c0.1-0.2-0.1-0.2-0.1-0.3c0-0.1,0.2,0,0.2-0.2c0,0,0-0.1-0.1-0.1
		c0,0,0,0,0,0l0,0c0.1,0,0.1,0,0.1-0.1c-0.1,0-0.1-0.1-0.1-0.2c0,0,0,0,0,0c0,0,0.1-0.1,0.1-0.2c0,0.1-0.2,0.1-0.2,0
		c0,0,0-0.1-0.2-0.1c-0.2,0-0.4,0-0.9-0.1c0.5,0,1.3-0.1,1.3-0.4c0-0.2-0.3-0.4-1.1-0.4c-0.8,0-2.6,0.3-2.6-0.1
		c0-0.2,0.3-0.2,0.8-0.2c0,0,0.1,0.1,0.2,0.1c1,0.3,2.2-0.2,2.9-0.1c-0.7-0.6-1.3,0-2.1-0.1c0.5,0,0.6-0.1,0.6-0.3
		c-0.4,0.2-1-0.1-1.4,0.1c0,0,0,0-0.1,0.1c-0.6,0-1,0-1,0.4c0,0.8,2.1,0.3,2.8,0.3s0.8,0.1,0.8,0.2c0,0.2-0.7,0.2-1,0.2
		c-0.6,0-2.3-0.3-3.4-0.1c0.1-0.2,0.3-0.4,0.2-0.5c0.1,0,0.2-0.1,0.2-0.2c-0.1-0.1-0.1-0.1-0.2-0.1c0,0,0-0.1,0-0.1
		c0,0,0-0.1-0.1-0.1c0,0-0.1-0.1-0.2-0.2c-0.1-0.1-0.2-0.1-0.2-0.1c0,0-0.1,0-0.1,0c-0.1,0-0.1,0-0.1,0.1c-0.1,0-0.1-0.1-0.2-0.1
		c0,0.1-0.1,0.2,0,0.3c-0.1,0-0.2,0.3-0.3,0.2c0,0.1,0.1,0.1,0.1,0.1c-0.1,0.1-0.1,0.3-0.2,0.3c0.1,0.1,0.1,0.1,0.1,0.1
		c0,0.1,0,0.2,0,0.3l-0.2-0.1L61.2,34.8z M62.5,34.1c0,0,0.2,0.1,0.3,0.1c-0.1,0-0.1,0.1-0.2,0.1C62.5,34.3,62.5,34.1,62.5,34.1
		 M62.3,34c0,0.1-0.1,0.1-0.2,0.1c-0.1-0.1,0-0.1-0.1-0.2C62.1,33.9,62.3,34,62.3,34 M62,34.6C62,34.6,62.1,34.5,62,34.6
		c0.1-0.1,0.2-0.1,0.2-0.2c0-0.1,0-0.1-0.1-0.1c0.1,0,0.1,0,0.1-0.1c0,0-0.1,0-0.1,0c0,0,0,0,0-0.1c0,0,0,0,0.1,0l0.3,0.1
		c0,0,0.1,0,0.1,0.1c0,0,0,0.1,0,0.1c0,0,0-0.1-0.1-0.1c0,0,0,0,0,0.1c-0.1,0-0.1,0-0.1,0c0,0,0,0.1,0,0.1c0,0,0,0.1,0,0.1
		c0,0.1-0.1,0.1-0.2,0.1C62,34.8,62,34.7,62,34.6 M62.7,36C62.7,36,62.7,36,62.7,36C62.7,36,62.7,36,62.7,36"/>
	<path d="M61.8,39.4c0,0,0.1,0,0.1,0c0,0,0,0,0,0c0.2,0,0.2-0.2,0.3-0.2c1.3,0.2,0.6-0.6,2.1-0.4c0.1,0,0.1,0,0.2-0.1
		c-0.1,0.1-0.1,0.4,0.1,0.4c0.1,0,0.2,0.1,0.3,0.1c0,0,0,0,0,0c-0.1,0-0.2,0-0.2,0.1c-0.2,0.2-0.2-0.4-0.5-0.3c0,0-0.1,0-0.1,0
		c-0.1,0-0.2,0.1-0.2,0.2c0,0,0.1-0.1,0.2-0.1c0,0,0,0,0,0.1c0,0,0,0.1,0.1,0.1c0.1,0,0.1,0,0.1,0c0,0,0,0,0,0
		c0,0.1-0.3-0.1-0.3,0.2c0,0,0,0.1,0.1,0.1c0,0.1,0.1,0.2,0.2,0.1c0,0-0.1-0.1-0.1-0.1c0,0,0.1,0,0.1,0c0,0,0,0,0,0c0,0,0,0,0,0
		c0,0,0,0,0,0c0,0,0,0,0,0.1c0,0,0,0.1,0,0.1c0,0.1,0.1,0.2,0.3,0.1c0,0-0.1,0-0.1-0.1c0,0,0.1,0,0.1,0c0,0,0-0.1,0-0.1c0,0,0,0,0,0
		c0,0,0,0,0.1,0c0,0,0,0,0,0c0,0.1,0.1,0.1,0.2,0.1c0.2-0.1,0-0.2,0.2-0.2c0,0,0.1,0,0.1,0c0.1,0,0.3,0,0.4,0c0-0.1,0-0.3-0.1-0.4
		c-0.1,0,0-0.1-0.1-0.3c0.1,0.1,0.3,0.1,0.5,0.1c0.4,0,0.5-0.1,0.6-0.2c0.2-0.1,0.4-0.1,0.4,0c0,0,0.1,0,0.1,0.1c0,0.2,0,0.2,0,0.3
		c0,0.1-0.2,0-0.3,0c-0.1,0-0.1,0-0.1,0.1c-0.1,0-0.2,0.1-0.2,0.2c0,0,0.1-0.1,0.2-0.1c0,0,0,0,0,0c0,0.1,0.2,0.2,0.2,0.1
		c0,0,0,0,0,0c-0.1,0.1-0.2,0.2-0.1,0.2c0,0,0,0,0.1,0c0,0.1,0.1,0.2,0.1,0.2c0,0,0-0.1,0-0.2c0,0,0.1,0,0.1,0c0.1,0,0-0.2,0.1-0.2
		c0,0,0,0,0,0c0,0.1,0,0.2,0,0.2c0,0,0,0,0.1,0c0,0.1,0.1,0.1,0.2,0.1c0,0-0.1,0-0.1-0.1c0,0,0.1-0.1,0.1-0.1
		c0.1-0.2-0.1-0.2-0.1-0.3c0-0.1,0.2,0,0.2-0.2c0,0,0-0.1-0.1-0.1c0,0,0,0,0,0v0c0.1,0,0.1,0,0.1-0.1c-0.1,0-0.1-0.1-0.1-0.2
		c0,0,0,0,0,0c0,0,0.1-0.1,0.1-0.2c0,0.1-0.2,0.1-0.2,0c0,0,0-0.1-0.2-0.1c-0.2,0-0.4,0-0.9-0.1c0.5,0,1.3-0.1,1.3-0.4
		c0-0.2-0.3-0.4-1.1-0.4c-0.8,0-3.3,0.3-3.3-0.2c0-0.3,0.8-0.2,1.4-0.2c0,0,0.1,0.1,0.2,0.1c1,0.3,2.1-0.4,2.8-0.2
		c-0.6-0.5-1.3,0.1-2.1-0.1c0.5,0,0.9-0.1,1-0.2c-0.4,0.2-1.4-0.2-1.8,0.1c0,0-0.1,0-0.1,0.1c-0.8,0-1.7-0.1-1.7,0.3
		c0,0.8,2.8,0.3,3.5,0.3c0.7,0,0.8,0.1,0.8,0.2c0,0.2-0.7,0.2-1,0.2c-0.6,0-3.2-0.3-4.3,0c0.1-0.2,0.3-0.4,0.2-0.6
		c0.1,0,0.2-0.1,0.2-0.2c-0.1-0.1-0.1-0.1-0.2-0.1c0,0,0-0.1,0-0.1c0,0,0-0.1-0.1-0.1c0,0-0.1-0.1-0.2-0.2c-0.1-0.1-0.2-0.1-0.2-0.1
		c0,0-0.1,0-0.1,0c-0.1,0-0.1,0-0.1,0.1c0-0.1-0.1-0.1-0.2-0.1c0,0.1-0.1,0.2,0,0.3c-0.1,0-0.2,0.2-0.3,0.2c0,0.1,0.1,0.1,0.1,0.1
		c-0.1,0.1-0.1,0.3-0.2,0.3c0,0,0.1,0.1,0.1,0.1c0,0.1,0,0.2,0,0.2l-0.1,0c-0.1,0-0.1,0-0.1,0c0,0-0.1,0-0.1,0
		c-0.1,0-0.2-0.2-0.4-0.3c-0.2-0.1-0.2-0.2-0.2-0.3c0-0.1,0.1-0.3,0.1-0.4c0,0,0-0.1,0-0.1c0-0.1-0.1-0.2-0.2-0.1
		c0,0,0.1,0.1,0.1,0.1c0,0-0.1,0.1-0.1,0.1c0,0,0,0.1,0,0.1c0,0,0,0,0,0c0,0,0,0,0,0.1c0,0,0,0,0,0c0-0.1-0.1-0.2-0.2-0.2
		c0,0,0,0-0.1,0c0,0,0,0,0,0c0-0.1-0.1-0.2-0.2-0.1c0,0,0.1,0,0.1,0c0,0,0,0.1,0,0.1c0,0.1,0.1,0.1,0.2,0.1c0,0,0,0,0,0c0,0,0,0,0,0
		c0,0,0,0,0,0c-0.2-0.1-0.3,0-0.3,0.1c0,0,0,0,0,0.1c-0.1,0-0.1,0.1,0,0.2c0,0,0-0.1,0-0.1c0,0,0,0,0,0c0,0,0,0,0,0c0,0,0,0,0.1,0
		c0,0,0,0,0,0c0,0,0,0,0.1,0c0,0,0,0,0,0c-0.1,0.1-0.1,0.2,0.1,0.3c0,0,0,0,0,0c0,0.2-0.3,0.2-0.3,0c-0.2,0.3,0.1,0.4,0.3,0.3
		c0,0,0,0,0,0c0,0,0,0.1,0.1,0.1c0,0,0,0,0,0c0,0,0,0,0,0c0,0.1,0,0.1,0.1,0.1c0,0,0-0.1,0-0.1c0,0,0.2,0.3,0.5,0.5
		c0.1,0,0.1,0,0.2-0.1c0,0,0,0.1,0.1,0.1c0,0.1,0.1,0.3,0.1,0.3c0,0-0.6,0-0.7,0c-0.1,0.1-0.5,0.2-0.6,0.1c0-0.1,0-0.1-0.1-0.2
		c0-0.1-0.1-0.1-0.1-0.1c0,0-0.1,0-0.1,0c-0.1-0.1-0.2-0.1-0.3,0c0,0,0.1,0,0.1,0.1c0,0,0,0.1,0,0.1c0,0.1,0,0.1,0.2,0.2
		c0,0,0,0,0,0c0,0-0.1,0-0.1,0c-0.1-0.1-0.1-0.2-0.2-0.1c0,0,0,0-0.1,0c0,0,0,0,0,0c-0.1,0-0.3,0.1-0.2,0.2c0,0,0.1-0.1,0.1-0.1
		c0,0,0,0.1,0,0.1c0,0.1,0.1,0.2,0.3,0.1c0,0,0,0,0,0c-0.1,0.1-0.2,0.2-0.1,0.3c0,0,0,0,0.1,0c0,0,0,0,0,0c0,0.1,0.1,0.2,0.2,0.2
		c0,0-0.1-0.1-0.1-0.2c0,0,0.1,0,0.1,0c0.1,0,0.1-0.2,0.1-0.2c0,0,0,0,0,0c0,0.1,0,0.2,0.2,0.2c0.1,0,0.2-0.1,0.2-0.2c0,0,0,0,0,0
		c0,0,0.1,0.1,0.1,0.1c0,0,0.1,0,0.1-0.1c0,0.1,0,0.2-0.1,0.2c0.1,0,0.2-0.1,0.2-0.2c0,0,0,0.1,0,0.1c0,0,0,0,0,0c0,0,0.1,0,0.3,0
		c0,0,0,0,0,0c0,0.1,0,0.1,0,0.1c0,0,0-0.1,0.1-0.1c0,0,0,0.1,0.1,0.2c0-0.4,0.4-0.2,0.7-0.3c0,0,0,0,0,0c0,0,0,0.1-0.1,0.1
		c0.1,0,0.2,0,0.3-0.1C61.5,39.6,61.8,39.5,61.8,39.4 M61.3,37.3c0,0.1-0.1,0.1-0.2,0.1c-0.1-0.1,0-0.1-0.1-0.2
		C61.1,37.2,61.3,37.3,61.3,37.3 M61.5,37.8C61.5,37.8,61.5,37.7,61.5,37.8C61.4,37.7,61.4,37.7,61.5,37.8c-0.1,0-0.2,0-0.2,0
		c0,0.1,0,0.1,0,0.1c0,0,0,0.1,0,0.1c0,0.1-0.1,0.1-0.2,0.1C61,38.1,61,38,61,37.9c0-0.1,0.1-0.1,0.1-0.1c0.1,0,0.1,0,0.1-0.1
		c0-0.1,0-0.1-0.1-0.1c0.1,0,0.1,0,0.1-0.1c0,0-0.1,0-0.1,0c0,0,0,0,0.1-0.1c0,0,0,0,0.1,0l0.3,0.1C61.5,37.6,61.5,37.7,61.5,37.8
		C61.5,37.7,61.5,37.8,61.5,37.8 M61.6,37.6c-0.1,0-0.1-0.1-0.1-0.2c0,0,0.2,0.1,0.3,0.1C61.7,37.5,61.7,37.6,61.6,37.6"/>
	<path d="M77.6,43.7C77.6,43.7,77.6,43.6,77.6,43.7c0.1-0.1,0.1-0.1,0.1-0.2c-0.1,0.1-0.2,0.1-0.2,0c0,0,0-0.1-0.1-0.1
		c-0.2,0-0.5,0-0.9-0.1c0,0-0.1,0,0,0c0.6,0,1.3-0.1,1.3-0.4c0-0.2-0.3-0.4-1.1-0.4c-0.8,0-3.2,0.3-3.2-0.2c0-0.3,0.8-0.2,1.4-0.1
		c0,0,0.1,0.1,0.2,0.1c1,0.3,2.2-0.5,2.8-0.3c-0.8-0.3-1.3,0.2-2.1,0c0.5,0,0.9-0.1,1-0.2c-0.4,0.2-1.4-0.2-1.8,0.1c0,0,0,0-0.1,0.1
		c-0.8,0-1.7-0.1-1.7,0.3c0,0.8,2.8,0.3,3.5,0.3c0.7,0,0.8,0.1,0.8,0.2c0,0.2-0.7,0.2-1,0.2c-0.6,0-3.2-0.3-4.3,0
		c0.1-0.2,0.3-0.4,0.2-0.6c0.1,0,0.2-0.1,0.2-0.2c-0.1-0.1-0.1-0.1-0.2-0.1c0-0.1,0-0.1,0-0.1c0,0,0-0.1-0.1-0.1
		c0,0-0.1-0.1-0.2-0.2c-0.1-0.1-0.2-0.1-0.2-0.1c0,0-0.1,0-0.1,0c-0.1,0-0.1,0-0.1,0.1c0,0-0.1-0.1-0.2-0.1c0,0.1-0.1,0.2,0,0.3
		c-0.1,0-0.2,0.2-0.3,0.2c0,0.1,0.1,0.1,0.1,0.1c-0.1,0.1-0.1,0.3-0.2,0.3c0.1,0.1,0.1,0.1,0.1,0.1c0,0.1,0,0.2,0,0.2l-0.1,0
		c-0.1,0-0.1,0-0.1,0c0,0-0.1,0-0.1,0c-0.1,0-0.2-0.2-0.4-0.3c-0.2-0.1-0.2-0.2-0.2-0.3c0-0.1,0.1-0.3,0.1-0.4c0,0,0-0.1,0-0.1
		c0-0.1-0.1-0.2-0.2-0.1c0,0,0.1,0.1,0.1,0.1c0,0-0.1,0.1-0.1,0.1c0,0,0,0.1,0,0.1c0,0,0,0,0,0c0,0,0,0,0,0.1c0,0,0,0,0,0
		c0-0.1-0.1-0.2-0.2-0.2c0,0-0.1,0-0.1,0c0,0,0,0,0,0c0-0.1-0.1-0.2-0.2-0.1c0,0,0.1,0,0.1,0c0,0,0,0.1,0,0.1c0,0.1,0.1,0.1,0.2,0.1
		c0,0,0,0,0,0c0,0,0,0,0,0c0,0,0,0,0,0c-0.2-0.1-0.3,0-0.3,0.1c0,0,0,0.1,0,0.1c-0.1,0-0.1,0.1,0,0.2c0,0,0-0.1,0-0.1c0,0,0,0,0,0
		c0,0,0,0,0,0c0,0,0,0,0.1,0c0,0,0,0,0,0c0,0,0,0,0.1,0c0,0,0,0,0,0c-0.1,0.1-0.1,0.2,0.1,0.3c0,0,0,0,0,0c0,0.2-0.3,0.2-0.3,0
		c-0.2,0.3,0.1,0.5,0.3,0.3c0,0,0,0,0,0c0,0,0,0.1,0.1,0.1c0,0,0,0,0,0c0,0,0,0,0,0c0,0.1,0,0.1,0.1,0.1c0,0,0-0.1,0-0.1
		c0,0,0.2,0.3,0.5,0.5c0,0,0.1-0.1,0.2-0.1c0,0.1,0,0.1,0.1,0.1l0.1,0c0,0.2,0.2,0.3,0.1,0.3c0,0-0.4,0-0.5,0
		c-0.2,0.1-0.5,0.2-0.6,0.1c0-0.1,0-0.1-0.1-0.2c0-0.1-0.1-0.1-0.1-0.1c0,0-0.1,0-0.1,0c-0.1-0.1-0.2-0.1-0.3,0c0.1,0,0.1,0,0.1,0.1
		c0,0,0,0.1,0,0.1c0,0,0,0.1,0.2,0.2c0,0,0,0,0,0c0,0-0.1,0-0.1,0c-0.1-0.1-0.1-0.2-0.2-0.1c0,0,0,0-0.1,0c0,0,0,0,0,0
		c-0.1,0-0.3,0.1-0.2,0.2c0,0,0.1-0.1,0.1-0.1c0,0,0,0.1,0,0.1c0,0.1,0.1,0.2,0.3,0.1c0,0,0,0,0,0c-0.1,0.1-0.2,0.2-0.1,0.3
		c0,0,0,0,0.1,0c0,0,0,0,0,0c0,0.1,0.1,0.2,0.2,0.2c0,0-0.1-0.1-0.1-0.2c0,0,0.1,0,0.1,0c0.1,0,0.1-0.2,0.1-0.2c0,0,0,0,0,0
		c0,0.1,0,0.2,0.2,0.2c0.1,0,0.2-0.1,0.2-0.2c0,0,0,0,0,0c0,0,0.1,0.1,0.1,0.1c0,0,0.1-0.1,0.1-0.1c0,0.1,0,0.2-0.1,0.2
		c0.1,0,0.2-0.1,0.2-0.2c0,0,0,0.1,0.1,0.1c0,0,0,0,0,0c0,0,0.1,0,0.3,0c0,0,0,0,0,0c0,0.1,0,0.1,0,0.1c0,0,0-0.1,0.1-0.1
		c0,0,0,0.1,0.1,0.2c0-0.4,0.2-0.2,0.4-0.4c0,0,0,0,0,0c0,0,0,0.1-0.1,0.1c0.1,0.1,0.4-0.1,0.4-0.3c0,0,0.1,0,0.2-0.1
		c0.2,0,0.2-0.2,0.3-0.2c1.3,0.2,0.6-0.6,2.1-0.4c0.1,0,0.1-0.1,0.2-0.1c-0.1,0.1-0.1,0.5,0.1,0.5c0.1,0,0.2,0.1,0.3,0.1
		c0,0,0,0,0,0c-0.1,0-0.2,0-0.2,0.1c-0.2,0.2-0.2-0.4-0.5-0.3c0,0-0.1,0-0.1,0.1c-0.1,0-0.2,0.1-0.2,0.2c0,0,0.1-0.1,0.2-0.1
		c0,0,0,0.1,0,0.1c0,0,0,0.1,0.1,0.1c0,0,0.1,0,0.1,0c0,0,0,0,0,0c0,0.1-0.3-0.1-0.3,0.2c0,0,0,0.1,0.1,0.1c0,0.1,0.1,0.2,0.2,0.1
		c0,0-0.1-0.1-0.1-0.1c0,0,0.1,0,0.1,0c0,0,0,0,0,0c0,0,0,0,0,0c0,0,0,0,0,0c0,0,0,0,0,0.1c0,0,0,0.1,0,0.1c0,0.1,0.1,0.2,0.3,0.1
		c0,0-0.1,0-0.1-0.1c0,0,0.1,0,0.1,0c0,0,0-0.1,0-0.1c0,0,0,0,0,0c0,0,0,0,0.1,0c0,0,0,0,0,0c0,0.1,0.1,0.1,0.2,0.1
		c0.2-0.1,0-0.2,0.2-0.2c0,0,0.1,0,0.1,0c0.1,0,0.3,0,0.4,0c0-0.1,0-0.3-0.1-0.4c-0.1,0,0-0.1-0.1-0.3c0.1,0.1,0.3,0.1,0.5,0.1
		c0.4,0,0.5-0.1,0.7-0.2c0.2-0.1,0.4-0.1,0.4,0c0,0,0.1,0,0.1,0.1c-0.1,0.2,0,0.2,0,0.3c0,0.1-0.2,0-0.3,0c-0.1,0-0.1,0-0.1,0.1
		c-0.1,0-0.2,0.1-0.2,0.2c0,0,0.1-0.1,0.2-0.1v0c0,0.1,0.1,0.2,0.2,0.1c0,0,0.1,0,0,0c-0.1,0.1-0.2,0.2-0.1,0.2c0,0,0,0,0.1,0
		c0,0.1,0,0.2,0.1,0.2c0,0,0-0.1,0-0.2H77c0.1,0,0.1-0.2,0.1-0.2c0,0,0,0,0,0c0,0.1-0.1,0.2,0,0.2c0,0,0,0,0.1,0
		c0,0.1,0.1,0.1,0.2,0.1c0,0-0.1,0-0.1-0.1c0,0,0.1-0.1,0.1-0.1c0.1-0.2-0.1-0.2-0.1-0.3c0-0.1,0.2,0,0.2-0.2c0,0,0-0.1-0.1-0.1
		c0,0,0,0,0,0h0c0.1,0,0.1,0,0.1-0.1C77.5,43.9,77.6,43.8,77.6,43.7 M71.8,42.2c0,0,0.2,0.1,0.3,0.1c-0.1,0-0.1,0.1-0.2,0.1
		C71.8,42.4,71.8,42.3,71.8,42.2 M71.6,42.1c0,0.1-0.1,0.1-0.2,0.1c-0.1-0.1,0-0.1-0.1-0.2C71.4,42,71.6,42.1,71.6,42.1 M71.3,42.7
		C71.4,42.7,71.4,42.6,71.3,42.7c0.1-0.1,0.2-0.1,0.2-0.2c0-0.1,0-0.1-0.1-0.1c0.1,0,0.1,0,0.1-0.1c0,0-0.1,0-0.1,0c0,0,0,0,0.1-0.1
		c0,0,0,0,0.1,0l0.3,0.1c0,0,0.1,0,0.1,0.1c0,0,0,0.1,0,0.1c0,0,0-0.1-0.1-0.1c0,0,0,0,0,0.1c-0.1,0-0.1,0-0.2,0c0,0,0,0.1,0,0.1
		c0,0,0,0.1,0,0.1c0,0.1-0.1,0.1-0.2,0.1C71.3,42.9,71.3,42.8,71.3,42.7"/>
	<path d="M74,45.3c0,0.1,0.1,0.1,0.2,0.1c1,0.3,2.1-0.5,2.7-0.3c-0.8-0.3-1.3,0.2-2,0c0.4,0,0.9-0.1,0.9-0.2
		c-0.3,0.2-1.3-0.1-1.7,0.1c0,0,0,0-0.1,0c-0.4,0-1,0-1,0.3c0,0.8,2,0.3,2.7,0.3c0.5,0,0.6,0.1,0.6,0.2c0,0.2-0.7,0.2-1.1,0.2
		c-0.6,0-2.2-0.3-3.2-0.1c0.1-0.2,0.3-0.4,0.2-0.5c0.1,0,0.2-0.1,0.2-0.2c-0.1-0.1-0.1-0.1-0.2-0.1c0,0,0-0.1,0-0.1
		c0,0,0-0.1-0.1-0.1c0,0-0.1-0.1-0.2-0.1c-0.1-0.1-0.2-0.1-0.2-0.1c0,0-0.1,0-0.1,0c-0.1,0-0.1,0-0.1,0.1c0,0-0.1-0.1-0.2-0.1
		c0,0.1-0.1,0.1,0,0.3c-0.1,0-0.2,0.2-0.3,0.2c0,0.1,0.1,0.1,0.1,0.1c-0.1,0.1-0.1,0.3-0.2,0.3c0,0,0.1,0.1,0.1,0.1
		c0,0.1,0,0.2,0,0.3l-0.1,0c0,0,0,0,0,0c-0.1,0-0.2,0-0.4-0.1c-0.1-0.1-0.2-0.2-0.2-0.3c0-0.1,0.1-0.3,0.1-0.4c0,0,0-0.1,0-0.1
		c0-0.1-0.1-0.2-0.2-0.1c0,0,0.1,0.1,0.1,0.1c0,0-0.1,0.1-0.1,0.1c0,0,0,0.1,0,0.1c0,0,0,0,0,0c0,0,0,0,0,0.1c0,0,0,0,0,0
		c0-0.1-0.1-0.2-0.2-0.2c0,0,0,0-0.1,0c0,0,0,0,0,0c0-0.1-0.1-0.2-0.2-0.1c0,0,0.1,0,0.1,0c0,0,0,0.1,0,0.1c0,0.1,0.1,0.1,0.2,0.1
		c0,0,0,0,0,0c0,0,0,0,0,0c0,0,0,0,0,0c-0.2-0.1-0.2,0-0.3,0.1c0,0,0,0,0,0.1c-0.1,0-0.1,0.1,0,0.2c0,0,0-0.1,0-0.1c0,0,0,0,0,0
		c0,0,0,0,0,0c0,0,0,0,0.1,0c0,0,0,0,0,0c0,0,0,0,0,0c0,0,0,0,0,0c-0.1,0.1-0.1,0.2,0.1,0.3c0,0,0,0,0,0c0,0.2-0.3,0.2-0.3,0
		c-0.2,0.2,0.1,0.4,0.3,0.3c0,0,0,0,0,0c0,0,0,0.1,0.1,0.1c0,0,0,0,0,0c0,0,0,0,0,0c0,0.1,0,0.1,0.1,0.1c0,0,0-0.1,0-0.1
		c0,0,0-0.1,0.3,0c0,0,0,0.1,0.1,0.1l0.2,0c0,0.1,0,0.4,0,0.4c0,0-0.3,0-0.4,0c-0.1,0.1-0.5,0.2-0.6,0.1c0-0.1,0-0.1-0.1-0.2
		c0-0.1-0.1-0.1-0.1-0.1c0,0-0.1,0-0.1,0c-0.1-0.1-0.2-0.1-0.2,0c0,0,0.1,0,0.1,0.1c0,0,0,0.1,0,0.1c0,0.1,0,0.1,0.2,0.2
		c0,0,0,0,0,0c0,0-0.1,0-0.1,0c-0.1-0.1-0.1-0.2-0.2-0.1c0,0,0,0-0.1,0c0,0,0,0,0,0c-0.1,0-0.2,0.1-0.2,0.2c0,0,0.1-0.1,0.1-0.1
		c0,0,0,0.1,0,0.1c0,0.1,0.1,0.2,0.3,0.1c0,0,0,0,0,0c-0.1,0.1-0.2,0.2-0.1,0.3c0,0,0,0,0.1,0c0,0,0,0,0,0c0,0.1,0.1,0.2,0.2,0.2
		c0,0-0.1-0.1-0.1-0.2c0,0,0.1,0,0.1,0c0.1,0,0.1-0.2,0.1-0.2c0,0,0,0,0,0c0,0.1,0,0.2,0.2,0.2c0.1,0,0.2-0.1,0.2-0.2c0,0,0,0,0,0
		c0,0,0.1,0.1,0.1,0.1c0,0,0.1,0,0.1-0.1c0,0.1,0,0.1-0.1,0.2c0.1,0,0.2-0.1,0.2-0.2c0,0,0,0.1,0,0.1c0,0,0,0,0,0c0,0,0.1,0,0.3,0
		c0,0,0,0,0,0c0,0.1,0,0.1,0,0.1c0,0,0-0.1,0.1-0.1c0,0,0,0.1,0.1,0.2c0-0.3,0.3-0.3,0.5-0.4c0,0,0,0,0,0c0,0,0,0.1-0.1,0.1
		c0.2,0.1,0.5-0.2,0.5-0.3c0,0,0.1,0,0.1-0.1c0,0,0,0.1,0,0.1c0.2,0,0.2-0.2,0.3-0.1c0.7,0.1,0.2-0.5,1.2-0.4c0.1,0,0.2-0.1,0.3-0.1
		c-0.1,0.1-0.1,0.4,0.1,0.5c0.1,0,0.2,0.1,0.3,0.1c0,0,0,0,0,0c-0.1,0-0.2,0-0.2,0.1c-0.2,0.2-0.2-0.3-0.5-0.2c0,0-0.1,0-0.1,0.1
		c-0.1,0-0.2,0.1-0.2,0.2c0,0,0.1-0.1,0.2-0.1c0,0,0,0,0,0.1c0,0,0,0.1,0.1,0.1c0,0,0.1,0,0.1,0c0,0,0,0,0,0c0,0.1-0.3,0-0.2,0.2
		c0,0,0,0.1,0.1,0.1c0,0.1,0.1,0.2,0.2,0.1c0,0-0.1-0.1-0.1-0.1c0,0,0.1,0,0.1,0c0,0,0,0,0,0c0,0,0,0,0,0c0,0,0,0,0,0c0,0,0,0,0,0.1
		c0,0,0,0.1,0,0.1c0,0.1,0.1,0.2,0.3,0.1c0,0-0.1,0-0.1-0.1c0,0,0.1,0,0.1,0c0,0,0,0,0-0.1c0,0,0,0,0,0c0,0,0,0,0.1,0c0,0,0,0,0,0
		c0,0.1,0.1,0.1,0.2,0.1c0.2-0.1,0-0.2,0.2-0.2c0,0,0.1,0,0.1,0c0.1,0,0.3,0,0.3,0c0-0.1,0-0.3-0.1-0.4c-0.1,0,0-0.1-0.1-0.3
		c0.1,0.1,0.3,0.1,0.5,0.1c0.3,0,0.5-0.1,0.7-0.1c0.2-0.1,0.4-0.1,0.4,0c0,0,0.1,0,0,0.1C76,47,76,47,76,47.1c-0.1,0.1-0.2,0-0.3,0
		c-0.1,0-0.1,0-0.1,0.1c-0.1,0-0.2,0.1-0.2,0.2c0,0,0.1-0.1,0.2-0.1c0,0,0,0,0,0c0,0.1,0.1,0.2,0.2,0.1c0,0,0,0,0,0
		c-0.1,0.1-0.2,0.2-0.1,0.2c0,0,0,0,0.1,0c0,0.1,0,0.2,0.1,0.2c0,0,0-0.1,0-0.1c0,0,0.1,0,0.1,0c0.1,0,0.1-0.2,0.2-0.2c0,0,0,0,0,0
		c-0.1,0.1-0.1,0.2,0,0.2c0,0,0,0,0.1,0c0,0.1,0.1,0.1,0.2,0.1c0,0-0.1,0-0.1-0.1c0,0,0.1-0.1,0.1-0.1c0.1-0.2-0.1-0.2,0-0.3
		c0-0.1,0.2,0,0.2-0.2c0,0,0-0.1,0-0.1c0,0,0,0,0,0h0c0.1,0,0.1,0,0.1-0.1c-0.1,0-0.1-0.1-0.1-0.2c0,0,0,0,0,0
		c0.1,0,0.1-0.1,0.1-0.2c-0.1,0.1-0.2,0.1-0.2,0c0,0,0-0.1-0.1-0.1c-0.2,0-0.6,0-1-0.1c0,0-0.1,0,0,0c0.4,0,1.3-0.1,1.3-0.4
		c0-0.2-0.1-0.4-0.8-0.3c-0.8,0-2.5,0.3-2.5-0.1C73.3,45.3,73.8,45.3,74,45.3 M71.7,45.4c0,0,0.2,0.1,0.3,0.1
		c-0.1,0-0.1,0.1-0.2,0.1C71.8,45.6,71.7,45.4,71.7,45.4 M71.6,45.3c0,0.1-0.1,0.1-0.2,0.1c-0.1-0.1,0-0.1-0.1-0.2
		C71.4,45.2,71.5,45.3,71.6,45.3 M71.3,45.9C71.3,45.8,71.3,45.8,71.3,45.9c0.1-0.1,0.2-0.1,0.2-0.1c0-0.1,0-0.1-0.1-0.1
		c0.1,0,0.1,0,0.1-0.1c0,0-0.1,0-0.1,0c0,0,0,0,0-0.1c0,0,0,0,0.1,0l0.2,0.1c0,0,0,0,0,0.1c0,0,0,0.1,0,0.1c0,0,0-0.1-0.1-0.1
		c0,0,0,0,0,0.1c-0.1,0-0.1-0.1-0.1,0c0,0,0,0.1,0,0.1c0,0,0,0.1,0,0.1c0,0.1-0.1,0.1-0.2,0.1C71.2,46,71.2,45.9,71.3,45.9"/>
	<path d="M73.3,48.5c0,0.1,0.1,0.1,0.2,0.1c1,0.3,2.1-0.5,2.7-0.3c-0.8-0.3-1.3,0.2-2,0c0.4,0,0.9-0.1,0.9-0.2
		c-0.3,0.2-1.3-0.1-1.7,0.1c0,0-0.1,0-0.1,0.1c-0.3,0.1-0.6,0.2-0.6,0.5c0,0.3,0.4,0.4,1.1,0.3c0.7,0,1.4-0.1,1.4,0
		c0,0.2-0.5,0.3-1.1,0.3c-0.5,0-1.4-0.3-2.4-0.1v0c0.1-0.2,0.3-0.5,0.2-0.6c0.1,0,0.1-0.1,0.1-0.2c0-0.1-0.1-0.1-0.2-0.1
		c0,0,0-0.1,0-0.1c0,0,0-0.1-0.1-0.1c0,0-0.1-0.1-0.2-0.1c-0.1-0.1-0.2,0-0.2-0.1c0,0-0.1,0-0.1,0c-0.1,0-0.1,0-0.1,0.1
		c0,0-0.1-0.1-0.2-0.1c0,0.1-0.1,0.2,0,0.3c-0.1,0-0.2,0.2-0.3,0.2c0,0.1,0.1,0.1,0.1,0.1c-0.1,0.1-0.1,0.3-0.2,0.3
		c0,0,0.1,0.1,0.1,0.1c-0.1,0.2-0.1,0.4,0,0.6c-0.2-0.2-0.4-0.5-0.5-0.6c-0.1-0.1-0.1-0.2-0.1-0.3c0-0.1,0.1-0.2,0-0.4
		c0,0,0-0.1,0-0.1c0-0.1-0.1-0.1-0.2-0.1c0,0,0.1,0.1,0.1,0.1c0,0-0.1,0.1-0.1,0.1c0,0,0,0.1,0,0.1c0,0,0,0,0,0c0,0,0,0,0,0.1
		c0,0,0,0,0,0c0-0.1-0.1-0.2-0.2-0.2c0,0,0,0-0.1,0c0,0,0,0,0,0c0-0.1-0.1-0.2-0.2-0.1c0,0,0.1,0,0.1,0c0,0,0,0.1,0,0.1
		c0,0.1,0.1,0.1,0.2,0.1c0,0,0,0,0,0c0,0,0,0,0,0c0,0,0,0,0,0c-0.2-0.1-0.2,0-0.2,0.1c0,0,0,0.1,0,0.1c-0.1,0-0.1,0.1,0,0.2
		c0,0,0-0.1,0-0.1c0,0,0,0,0,0c0,0,0,0,0,0c0,0,0,0,0.1,0c0,0,0,0,0,0c0,0,0,0,0,0c0,0,0,0,0,0c-0.1,0.1-0.1,0.2,0.1,0.2
		c0,0,0,0,0,0c0,0.2-0.3,0.2-0.3,0c-0.1,0.2,0.1,0.4,0.3,0.3c0,0,0,0,0,0c0,0,0,0.1,0.1,0.1c0,0,0,0,0,0c0,0,0,0,0,0
		c0,0.1,0,0.1,0.1,0.1c0,0,0-0.1,0-0.1c0,0,0,0.3,0.3,0.5c0,0.2,0.2,0.3,0.3,0.3c0.1,0.1,0.1,0.2,0.1,0.2c0,0-0.4,0-0.5,0
		c0,0-0.1,0.1-0.3,0.1c0,0-0.1,0-0.1,0c-0.1,0-0.2,0-0.2-0.1c0,0,0-0.1-0.1-0.2c0-0.1-0.1-0.1-0.1-0.1c0,0,0,0-0.1,0
		c-0.1-0.1-0.2-0.1-0.2,0c0,0,0.1,0,0.1,0.1c0,0,0,0.1,0,0.1c0,0,0,0.1,0.2,0.2c0,0,0,0,0,0c0,0-0.1,0-0.1,0
		c-0.1-0.1-0.1-0.2-0.2-0.1c0,0,0,0-0.1,0c0,0,0,0,0,0c-0.1,0-0.2,0.1-0.2,0.2c0,0,0-0.1,0.1-0.1c0,0,0,0.1,0,0.1
		c0,0.1,0.1,0.2,0.3,0c0,0,0,0,0,0c-0.1,0.1-0.2,0.2-0.1,0.3c0,0,0,0,0,0c0,0,0,0,0,0c0,0.1,0.1,0.2,0.2,0.2c0,0-0.1-0.1-0.1-0.2
		c0,0,0.1,0,0.1,0c0.1,0,0.1-0.2,0.1-0.2c0,0,0,0,0,0c0,0,0,0.2,0.2,0.2c0.1,0,0.2-0.1,0.2-0.2c0,0,0,0,0,0c0,0,0.1,0.1,0.1,0.1
		c0,0,0.1,0,0.1-0.1c0,0.1,0,0.1-0.1,0.2c0.1,0,0.2-0.1,0.2-0.2c0,0,0,0,0,0.1c0,0,0,0,0,0c0,0,0.1,0,0.2,0c0,0,0,0,0,0
		c0,0,0,0.1,0,0.1c0,0,0-0.1,0.1-0.1c0,0,0,0.1,0.1,0.2c0-0.3,0.2-0.2,0.4-0.3c0,0,0,0,0,0c0,0,0,0.1-0.1,0.1c0.1,0,0.3-0.1,0.3-0.2
		c0,0,0.1-0.2,0.2-0.5c0,0,0.1,0,0.1,0c0.3,0,0.4-0.2,0.7-0.2c-0.1,0.1-0.1,0.3-0.1,0.4c0,0.2,0.2,0.3,0.2,0.4c0,0,0,0,0,0
		c-0.1,0-0.2,0-0.2,0c-0.2,0.1-0.2-0.3-0.4-0.2c0,0,0,0-0.1,0c-0.1,0-0.2,0.1-0.2,0.2c0,0,0.1-0.1,0.1-0.1c0,0,0,0,0,0.1
		c0,0,0,0.1,0.1,0.1c0,0,0.1,0,0.1,0c0,0,0,0,0,0c0,0.1-0.3-0.1-0.2,0.2c0,0,0,0.1,0,0.1c0,0.1,0.1,0.1,0.2,0.1c0,0-0.1-0.1-0.1-0.1
		c0,0,0.1,0,0.1,0c0,0,0,0,0,0c0,0,0,0,0,0c0,0,0,0,0,0c0,0,0,0,0,0.1c0,0,0,0.1,0,0.1c0,0.1,0.1,0.2,0.2,0.1c0,0-0.1,0-0.1-0.1
		c0,0,0.1,0,0.1,0c0,0,0,0,0-0.1c0,0,0,0,0,0c0,0,0,0,0.1,0c0,0,0,0,0,0c0,0.1,0.1,0.1,0.2,0.1c0.2-0.1,0-0.2,0.1-0.2
		c0,0,0.1,0,0.1,0c0.1,0,0.2,0,0.2,0c0-0.1,0-0.3-0.1-0.3c-0.1,0,0.1-0.5-0.3-0.7c0.2,0,0.7,0.1,0.8,0c0.2,0,0.4,0.2,0.4,0.2
		c0,0,0,0.1,0,0.1c-0.1,0.1-0.1,0.1-0.2,0.2l0,0c-0.1,0-0.1-0.1-0.1-0.1c-0.1,0-0.1,0-0.1,0c-0.1,0-0.2,0-0.2,0.1c0,0,0.1,0,0.2,0
		c0,0,0,0,0,0c0,0,0,0.1,0,0.1h0h0c0,0,0,0,0,0c0,0,0,0,0,0c-0.1,0-0.2,0-0.2,0.1c0,0,0,0,0,0.1c-0.1,0.1-0.1,0.1,0,0.2
		c0,0,0-0.1,0.1-0.1c0,0,0,0,0,0c0,0.1,0.1-0.1,0.2,0c0,0,0,0,0,0c-0.1,0-0.2,0.1-0.1,0.2c0,0,0,0,0,0.1c0,0.1,0,0.1,0.1,0.2
		c0,0,0-0.1,0-0.1c0,0,0.1,0,0.1,0c0.2-0.1,0.1-0.2,0.1-0.2c0.1-0.1,0.1,0.1,0.3,0c0,0,0.1-0.1,0-0.1c0,0,0,0,0,0v0
		c0,0,0.1,0.1,0.1,0.1c-0.1-0.1,0-0.1,0.1-0.2c0,0,0,0,0,0c0.1,0,0.1,0,0.2-0.1c-0.1,0-0.3-0.1-0.1-0.1c0.2-0.1,0.2-0.2,0.1-0.2
		c-0.1-0.2-0.4-0.2-0.4-0.4c0.1,0,0.2,0,0.2,0c0.8,0,1.4-0.2,1.4-0.5c0-0.2-0.2-0.3-0.8-0.3c-0.7,0.1-1.7,0.1-1.7-0.1
		C72.9,48.6,73.1,48.5,73.3,48.5 M71.3,48.5c0,0.1-0.1,0.1-0.2,0.1c-0.1-0.1,0-0.1-0.1-0.2C71.1,48.4,71.2,48.5,71.3,48.5
		 M71.4,48.9C71.4,48.9,71.4,48.8,71.4,48.9C71.3,48.8,71.3,48.9,71.4,48.9c-0.1,0-0.2,0-0.2,0c0,0,0,0.1,0,0.1c0,0,0,0.1,0,0.1
		c0,0.1-0.1,0.1-0.2,0.1c-0.1,0-0.1-0.1,0-0.2c0,0,0-0.1,0.1-0.1c0.1,0,0.1,0,0.1-0.1c0-0.1,0-0.1-0.1-0.1c0.1,0,0.1,0,0-0.1
		c0,0-0.1,0-0.1,0c0,0,0,0,0-0.1c0,0,0,0,0.1,0l0.2,0.1C71.4,48.8,71.4,48.8,71.4,48.9C71.4,48.9,71.4,48.9,71.4,48.9 M71.5,48.8
		c-0.1,0-0.1-0.1-0.1-0.2c0,0,0.2,0.1,0.3,0.1C71.6,48.7,71.6,48.8,71.5,48.8"/>
	<path d="M55.4,39.2c-0.1-0.8,0-1.6-1-2.8c-0.9-1.1-4.1-4.5-5.1-5.6c0.2,0,0.5,0,1.2,0.6c0.4,0.4,1.3,1.3,2,1.9
		c0.8-2.2,2-4.2,3.6-5.9c0.3-0.3,0.6-0.6,0.8-0.9c-0.7,0.2-1.4,0.5-2,0.9c0-1-0.3-1.9-0.9-2.5c0.3-1.3,0-3-3-5
		c1.5,0.4,2.4,1.8,3.6,0.7c-1.1,0-1.1-2.3-4.9-4.3c1.5,0,2.6,2.3,4.3,1c-1.6-0.2-2.1-3-5-3.9c1,0.1,2,0.6,2.9-0.6
		c-1,0.2-1.6-0.7-2.6-0.8c0.4-1.2,0.3-2-0.1-2.9c-0.7,0.1-1.5,0.3-2.1,0.7c-0.1-0.7-0.8-0.7-1.4-0.7c0,0.3,0.2,0.7-0.2,0.8
		c-0.5,0.1-2.2,0.6-3.5,1.1c-1.3,0.5-2.8,1.4-3.3,1.7c-0.3,0.2-0.5-0.2-0.7-0.4c-0.5,0.4-0.9,0.9-0.6,1.4c-0.7,0.1-1.5,0.3-2.2,0.8
		c0,0.9,0.7,1.7,1.8,2.1c-1.8,1.8-0.2,3.4-1.7,4.9c2.2,0.1,1.8-3,2.9-3.4c-0.1,2.1-1.3,2.5-1.3,4.8c0,1.2,0.7,2.6,0.1,3.4
		c1.8-0.5,1.4-4.6,2.5-5.8c0.2,0.7,0.1,1.4-0.1,2.1c-0.6,1.9,0.1,4.5-0.9,5.3c1.6-0.2,2-2.5,3.1-3.8c-1.2,3.1-2.4,8.4-4.1,10.8
		c-3.2,4.3-5.1,9.5-8,9.5c-1.3,0-2.3-0.8-2.3-2.4c0-4.9,8.4-8.2,8.4-13.5c0-2.3-1.9-3.2-3.1-3.2c-0.8,0-1.8,0.4-2.6,1.1
		c-0.3-0.1-0.7-0.2-1-0.2c-3,0-2.2,5.3-4.8,5.3c1,0.6,2.8-0.5,3.8-2c-0.4,3.5-5.4,2.5-5,6.7c0.7-3.2,8.6-2.8,8.6-7.7
		c0-0.6-0.3-1-0.7-1.4c0.6-0.4,1.2-0.5,1.7-0.5c0.9,0,1.8,0.7,1.8,2.1c0,4.4-8.3,8-8.3,13.4c0,0.9,0.3,1.7,0.7,2.3
		c-0.6,0.2-1.2,0.1-1.7-0.5c0,1.4,1.9,2.2,3.2,1.6c0.3,0.1,0.6,0.1,0.9,0.2c-0.4,1-1.7,1.3-2.3,1.3c2,1.6,5.6-0.5,5.4-2.3
		c1.6-1.3,2.6-3.5,3.8-5c-0.1,0.3-0.1,0.7-0.2,1c-1.2,2.2-2.3,4.1-2.6,7c-0.3,2.4-1.5,4.6-3.2,4.6c-0.4,0-1-0.5-1.3-0.2
		c-0.5,0.5,0,0.9,0,1.4c0,0.7-1.3,1.4-1.3,3.5c0,0.9,0.5,2.1,0.3,2.7c0.5-0.3,1.3-1.2,1.5-2.3c0.6,2.8-1.2,2.7,0.1,5.1
		c0.2-0.8,1-1.2,1.5-0.8c0.5,0.3,0.3,0.6-0.1,0.9c-0.4,0.4-0.7,2.2,1,2.1c-0.3-0.2-0.3-0.7,0.5-0.9c1.2-0.2,1.5,0.3,2.7,0.3
		c0.8,0,1-1,1.6-1c0.6,0,0.6,0.5,0.4,0.8c1-0.3,1.2-0.8,1.2-1.3c0-0.5-0.4-0.9-0.1-1.1c0.3-0.2,1.5,0,1,0.9c0.6-0.1,0.9-0.5,0.9-1.2
		c0-0.7-0.8-1.1-1.6-1c-0.1-0.4-0.8-0.7-1.4-0.7c-1.4,0-1.2,1.1-2.1,1.1c-1.5,0-3-2-3-5.2c0-1.8,1.9-2.2,3.2-2.8
		c1.3-0.6,3.7-2,5.1-4.4c1.1-1.8,1.1-3.9,1-6.3c1.9,1.1,2.1,2.6,2.1,3.8c0,1.5-0.8,2.1-1.4,2.3c-0.5,0.2-0.7,0.1-0.7,0.4
		c-0.1,0.4,0.2,0.6,0.4,0.7c0.7,0.3,0.5,1,0.7,1.7c0.2,0.7,0.8,1.8,1.9,2.6c0.1-0.4,0.1-1.1,0-2.1c1.5,0.7,0.3,3.6,3.1,3.6
		c-0.5-0.3-0.4-1.1-0.1-1.2c0.3-0.1,0.7,0.2,1.2,0.9c0.5,0.8,0.4,0.7,1.7,0.7c1.3,0,0.7-0.5,1.4-0.5c0.7,0,0.7,0.8,0.3,1.4
		c1.2-0.4,1.6-1.3,1.1-2.2c1-0.6,1.6,0.2,1.8,0.8c1-1,0-2.3-0.8-2.4c0-0.4-0.3-0.8-0.8-0.8c-0.4,0-0.9-0.1-1.3,0
		c-0.5,0-0.8,0.7-1.3,0.7c-1.8,0-5.3-3.2-5.3-4.6c0-1.4,3.3-2.2,3.3-4.4c0-2.8-2.8-3.8-5.1-5.6c0.8-0.9,3.2-1.1,4.6-0.5
		c0.2-0.8,0.7-0.6,0.8-1.9c0.5,1.2-0.2,2.2,0.3,2.7c0.4-0.6,1.4-0.5,1.3-2c0.3,0.9-0.4,2.3,0.3,2.9c0.1-0.8,0.6-0.9,0.9-0.9
		c0.3,0,0.5,0.2,0.5,0.7c0,1.1-1.3,0.8-1.3,2.1c0,0.5,0.7,0.7,0.7,1.1c0,0.3-0.6,0.9-1.2,0.4c0.2,0.5,0.7,0.9,1.2,0.9
		c0.6,0,1.3-0.5,1.5-1.1c0.3,0.8,0.1,1.7-0.5,1.8c0.6,0.3,2.1,0,1.9-1.8c0.8,0.1,1.3,0.7,0.8,1.7c0.7-0.2,1.3-0.5,1.3-1.2
		c0-0.5-0.5-0.9-0.5-1.7C56.4,40.6,55.5,40,55.4,39.2 M40.7,16c-0.8,0.1-0.7-0.7-2.1-1c0.9-0.2,2.2-0.7,3.2-1.1
		C42,14.8,41.7,15.9,40.7,16 M46.1,21.7c-1,0.4-1.7-0.4-1.9-1c-0.2-0.6-0.3-1.1-0.1-1.3c0.4-0.4,0.6-0.7,0.3-1.3
		c-0.3-0.6-0.9-0.3-1.6-0.1c0.3-0.6,0.3-1-0.1-0.9c-0.5,0.1-0.5,0.9-0.8,0.8c-0.3-0.1-0.1-0.6-0.1-0.8c0-0.4,0.2-0.5,0.6-0.6
		l2.8-1.1c0.4-0.1,0.6-0.2,0.9,0.1c0.2,0.2,0.6,0.4,0.5,0.7c-0.1,0.3-0.7-0.3-1.1,0c-0.3,0.3,0,0.5,0.6,0.7
		c-0.6,0.4-1.3,0.6-1.1,1.2c0.2,0.5,0.5,0.7,1.1,0.7c0.3,0,0.6,0.5,0.8,1C47.1,20.3,47.2,21.3,46.1,21.7 M46.3,13.8
		c-0.8,0.6-1.8,0.1-2.2-0.7c1-0.4,2.3-0.9,3.1-1.4C46.4,12.8,46.9,13.3,46.3,13.8"/>
	<path d="M36.7,9.3c0-0.3-0.2-0.5-0.5-0.5c-0.3,0-0.5,0.2-0.5,0.5c0,0.3,0.2,0.5,0.5,0.5C36.5,9.9,36.7,9.6,36.7,9.3"/>
	<path d="M36.6,7.9c0-0.3-0.2-0.5-0.5-0.5c-0.3,0-0.5,0.2-0.5,0.5c0,0.3,0.2,0.5,0.5,0.5C36.3,8.4,36.6,8.2,36.6,7.9"/>
	<path d="M36.9,7.2c0.3,0,0.5-0.2,0.5-0.5c0-0.3-0.2-0.5-0.5-0.5c-0.3,0-0.5,0.2-0.5,0.5C36.3,7,36.6,7.2,36.9,7.2"/>
	<path d="M38.3,7.1c0.3,0,0.5-0.2,0.5-0.5c0-0.3-0.2-0.5-0.5-0.5c-0.3,0-0.5,0.2-0.5,0.5C37.8,6.9,38,7.1,38.3,7.1"/>
	<path d="M44.5,6.1c0.2,0.2,0.6,0.2,0.8,0c0.2-0.2,0.2-0.6,0-0.8c-0.2-0.2-0.6-0.2-0.8,0C44.3,5.5,44.3,5.9,44.5,6.1"/>
	<path d="M44.4,4.9c0.2-0.2,0.2-0.6,0-0.8c-0.2-0.2-0.6-0.2-0.8,0c-0.2,0.2-0.2,0.6,0,0.8C43.8,5.2,44.2,5.2,44.4,4.9"/>
	<path d="M43,4.7c0.2-0.2,0.2-0.6,0-0.8c-0.2-0.2-0.6-0.2-0.8,0c-0.2,0.2-0.2,0.6,0,0.8C42.4,4.9,42.7,4.9,43,4.7"/>
	<path d="M41.7,5.6c0.2-0.2,0.2-0.6,0-0.8c-0.2-0.2-0.6-0.2-0.8,0c-0.2,0.2-0.2,0.6,0,0.8C41.2,5.8,41.5,5.8,41.7,5.6"/>
	<path d="M38.2,4.9l0.4,1l0.6-0.7c0,0,0,0,0.1,0c0,0.3,0.1,0.9,0.1,1.2c0,0.4,0.3,0.7,0.7,0.7c0.4,0,0.7-0.3,0.7-0.7
		c0-0.3-0.1-0.5-0.4-0.6c-0.3-0.2-0.6-0.5-0.8-0.7c0,0,0-0.1,0-0.1L40.6,5l-0.4-1l-0.7,0.6c0,0,0,0,0,0l-0.1-1l-1,0.4l0.6,0.8
		c0,0,0,0,0,0.1L38.2,4.9z"/>
	<path d="M44.6,6.6c0.2,0.3,0.3,0.5,0.3,0.8c-0.2-0.1-0.4-0.2-0.6-0.5l0.1,1.3c0.2-0.2,0.3-0.4,0.5-0.5c0,0.8-0.4,1.2-0.7,1.2
		c-0.3,0.1-0.6-0.2-0.7-0.4c-0.1-0.4,0.2-0.6,0.6-0.3c0.1-0.8-0.6-0.8-0.8-0.4c0.3-0.7,0.2-1.2-0.5-1.6c-0.4,0.7-0.2,1.1,0.3,1.7
		c-0.5-0.3-1,0.2-0.5,0.7c0.1-0.5,0.5-0.4,0.6,0c0.1,0.3-0.2,0.8-0.8,0.9c-0.8,0.2-1-0.3-1.2-0.7c0.2-0.1,0.6-0.1,1,0.2l-0.4-1.2
		c-0.2,0.4-0.4,0.6-0.7,0.8c0-0.4,0.2-1.1,0.2-1.1L39.9,8c0,0,0.7,0.3,0.9,0.6c-0.3,0.1-0.6,0.2-1.1,0l0.6,1.2
		c0.1-0.5,0.4-0.8,0.6-0.9c0.2,0.4,0.3,1-0.4,1.4c-0.5,0.3-1,0.2-1.2-0.1c-0.2-0.3,0-0.7,0.4-0.4C39.7,9,39,9,38.9,9.5
		c0-0.7-0.2-1.2-1-1.4c-0.2,0.7,0.1,1.2,0.8,1.5c-0.4,0-0.9,0.4-0.3,0.9c0-0.5,0.4-0.5,0.6-0.2c0.1,0.2,0.1,0.6-0.2,0.8
		c-0.2,0.2-0.7,0.1-1.3-0.4c0.2-0.1,0.4,0,0.6,0l-0.8-1c0,0.4,0,0.6-0.1,0.8c-0.2-0.2-0.2-0.4-0.3-0.8l-0.6,0.5
		c0.6,0.4,1.2,0.9,2.1,2c0.9-0.5,2.4-1.3,3.3-1.7c0.9-0.4,2.6-0.9,3.5-1.1c-0.2-1.4-0.1-2.2,0.1-2.9L44.6,6.6z"/>
	<path d="M109.7,54.6c0,1.3,1.1,2.4,2.4,2.4s2.4-1.1,2.4-2.4c0-1.3-1.1-2.4-2.4-2.4S109.7,53.3,109.7,54.6 M110.3,54.6
		c0-1,0.8-1.7,1.8-1.7c1,0,1.7,0.8,1.7,1.7c0,1-0.8,1.8-1.7,1.8C111.1,56.3,110.3,55.6,110.3,54.6"/>
	<path d="M100.9,56.8c-0.3,0.2-0.5,0.5-0.6,0.9c-0.1,0.4,0.1,0.8,0.4,1.2c0.3,0.3,0.7,0.6,1.2,0.6c0.5,0.1,0.9,0,1.3-0.2
		c0.4-0.2,0.7-0.6,0.7-1h0c0.1-0.8-0.5-1.6-1.5-1.8C101.8,56.4,101.3,56.5,100.9,56.8 M101.9,58.9c-0.7-0.1-1.1-0.6-1.1-1.1
		c0-0.2,0.2-0.4,0.3-0.5c0.3-0.2,0.7-0.3,1-0.2c0.6,0.1,1.1,0.6,1.1,1c0,0,0,0.1,0,0.1C103.2,58.7,102.6,59,101.9,58.9"/>
	<path d="M87.9,23.7c-0.7,0.6-0.9,1.5-0.5,2.1c0.5,0.6,1.5,0.6,2.2,0.1c0.4-0.3,0.7-0.7,0.7-1.2c0-0.3,0-0.7-0.2-0.9
		c-0.2-0.3-0.5-0.4-0.8-0.5C88.8,23.3,88.3,23.4,87.9,23.7 M87.8,25.1c0-0.3,0.2-0.7,0.5-0.9c0.3-0.2,0.6-0.3,0.9-0.3
		c0.1,0,0.3,0.1,0.4,0.2c0.1,0.2,0.1,0.4,0.1,0.5c0,0.3-0.2,0.6-0.5,0.8c-0.5,0.4-1.1,0.4-1.3,0C87.8,25.4,87.8,25.2,87.8,25.1"/>
	<path d="M98.1,52.9c-0.4,0.3-0.6,0.9-0.6,1.4v0c0,0.5,0.2,1,0.5,1.4c0.3,0.3,0.6,0.4,1,0.4c0.4,0,0.7-0.1,1-0.4
		c0.4-0.3,0.6-0.9,0.6-1.4c0-0.5-0.1-0.9-0.4-1.3c-0.3-0.4-0.7-0.6-1.1-0.6C98.7,52.4,98.4,52.6,98.1,52.9 M99,55.5L99,55.5
		c-0.2,0-0.4-0.1-0.5-0.3c-0.2-0.2-0.4-0.6-0.4-1c0-0.4,0.1-0.7,0.4-1c0.1-0.1,0.3-0.2,0.5-0.2c0.5,0,0.9,0.6,0.9,1.3
		c0,0.4-0.2,0.8-0.4,1C99.5,55.4,99.3,55.5,99,55.5"/>
	<path d="M86.6,33.8c-0.4,0.1-0.6,0.4-0.8,0.7c-0.4,0.8,0.1,1.7,1,2.2c0.5,0.2,1.1,0.3,1.5,0.1c0.4-0.1,0.6-0.4,0.8-0.7
		c0.1-0.3,0.2-0.7,0-1c-0.2-0.5-0.5-0.9-1-1.1C87.6,33.7,87.1,33.7,86.6,33.8 M87.1,36.1c-0.6-0.3-0.9-0.9-0.7-1.4
		c0.1-0.2,0.3-0.3,0.4-0.4c0.3-0.1,0.7-0.1,1.1,0.1c0.4,0.2,0.6,0.5,0.7,0.8c0.1,0.1,0.1,0.4,0,0.6c-0.1,0.2-0.3,0.3-0.4,0.4
		C87.8,36.3,87.4,36.3,87.1,36.1"/>
	<path d="M111.3,31.4c0.8,2.1,2.3,2.9,3.5,2.3c-2.6-0.3-0.5-4.7-3.8-4.7c-0.2,0-0.4,0-0.5,0.1c-0.6-0.6-1.2-0.8-2.2-0.8
		c-1.4,0-3.9,1.4-3.9,4.2c0,6.1,7.1,6.6,7.1,12c0,1.6-1.2,2.5-2.5,2.5c-1.2,0-2.1-1.3-3.1-3.4c-0.5-1-1.5-2.4-2.6-3.8
		c0.3,0.2,0.7,0.4,1,0.4c0.4,0,0.7-0.1,1-0.4c0.3-0.2,0.4-0.6,0.4-1c0,0,0,0,0-0.1c0-0.5-0.2-1-0.6-1.4c-0.4-0.4-0.9-0.6-1.4-0.7
		c-0.4,0-0.7,0.1-1,0.4c-0.3,0.2-0.4,0.6-0.4,1c0,0,0,0,0,0.1c0,0.2,0,0.4,0.1,0.6c-1.5-2-2.9-3.9-2.9-5c0-0.9,0.7-1.8,1.5-2.8
		c0,0,0.3,0.2,0.3,0.2l0.2-0.2c0.3-0.3,0.9-1,2.1-2.3l0.1-0.1l0,0l0.3-0.3l-0.8-0.6c0.2-0.5,0.4-1,0.5-1.5c0.2,1,0.7,1.6,1.4,1.4
		c-0.5-1,0.5-2.4-0.1-4.8c0.6,1,1.4,1.5,2,1.3c-1.6-1.4,0.5-3.3-1.6-6.3c0.7,0.2,1.1,0.1,1.4-0.2c-1.9-0.3-1-2.6-4.3-3.5
		c0.8-0.1,1.3-0.6,1.2-1c-0.9,0.6-1.6-1.2-4.4-1.1C99,10.7,98,9.6,96.9,9c0.2,0.8,0,1.6-0.2,2.2l-9.2-9C87.3,1.9,87.1,1.9,87,2
		C87,2.1,87,2.2,87.1,2.4l7.9,9.9c-0.6,0.2-1.2,0.5-1.8,0.7c-0.4,0.1-0.7,0.5-0.7,1c-1.5,0.7-2.8,1.6-3.4,2.2
		c-0.5,0.4-0.9,0.5-0.4,1.5c0.2,0.4-0.3,1.3,0.8,0.6c0.7-0.4,2.5-1.4,2.7-0.8c0.1,0.3-0.7,0.7-1.3,0.9c-0.6,0.2-1.2,0.7-1.1,0.9
		c0.1,0.2,0.5,0,0.6,0.2c0,0.3,0.2,0.5,0.4,0.5s0.5-0.5,0.7-0.3c0.2,0.2-0.1,1.2-0.3,1.5c0.9-0.1,1.5-1,1.5-1.6
		c0-0.7,0.2-0.8,0.3-0.9c0.1-0.1,0.3,0.7,0.1,1.2c0.5-0.1,1-0.7,0.9-1.9c0.2-0.2,0.5-0.3,0.7-0.3c0.3,0,0.9,0.8,1.7,0.8
		c1.6,0,2.4-1.3,2.5-1.9c0.1-0.5,0-0.9-0.2-1.3c0.6,0.5,0.7,1.2,0.7,1.7c0,2.2-3.9,3.3-5.5,4.8C94,22,94,22,93.9,22.1l-1.8-0.7
		l-0.1,0.4c0,0,0,0.1-0.1,0.3c-0.2,0.6-0.6,1.9-0.8,2.7c0,0-0.1,0.3-0.1,0.3l0.2,0.1c-1.1,1.5-2,3.1-2.2,4.7
		c-0.4-0.5-0.9-0.8-1.3-1.2c0.1-0.2,0.1-0.3,0.1-0.5c0-0.5-0.1-1-0.4-1.3c-0.2-0.3-0.5-0.4-0.8-0.4c-0.3,0-0.6,0.1-0.9,0.3
		c-0.1,0.1-0.1,0.1-0.2,0.2c-0.1-0.1-0.1-0.1-0.2-0.2c-0.6-0.5-1.4-1-1.8-1.5c-0.2-0.2-0.4-0.3-0.8-0.3c-0.2,0-0.5,0-0.8,0
		c-0.3,0-0.4,0.2-0.7,0.5c-0.2,0.1-0.8,0.6-1.3,1c0.3,0.3,0.6,0.6,0.8,0.9c0.1,0.1,0.2,0.2,0.2,0.3c0.3-0.2,0.5-0.4,0.6-0.5
		c0.2-0.2,0.4-0.2,0.7-0.2c0.2,0,0.6,0.2,0.8,0.5c0.2,0.3,1.7,2.2,2.9,3.6c-0.1,0-0.3,0.1-0.4,0.1c-0.5,0.2-1.7,0.2-2.2,0.1
		c-0.5,0-0.6-0.2-1,0.4c-0.1,0.2-0.3,0.5-0.5,0.7c-0.2,0.2-0.3,0.5,0.1,1.1c0.5,0.9,1.9,3.3,2.3,4.4c0.4,1.1,1,1.3,1.8,1.6
		c0.9,0.4,2.3,1.2,2.5,1.4l0.1-0.8c-0.3-0.3-1.1-0.6-1.4-0.7c-0.3-0.1-0.4-0.2,0-0.2c0.4,0,1.4,0.4,2.1,0.7c-0.2-0.8-1-1.7-1.5-2.2
		c-0.6-0.2-1.2-0.2-1.5,0c0,0.2-0.1,0.4-0.4,0.4c-0.2,0-0.4-0.2-0.3-0.4c0.1-0.2,0.5-0.3,0.4-0.8c-0.1-0.5-0.7-0.5-1-0.6
		c-0.5-0.8-1.1-1.9-1.4-2.3c-0.3-0.4-0.1-0.7,0.1-0.9c0.4-0.4,1.4,0.2,3.3,0.3c0.7,0,1.5,0.1,2.3,0.1c0.2,2.2,1.1,4.2,4.1,5
		c1.5,0.4,3,1.4,3.5,2.9c-6-0.1-7,2.2-7,4.5c0,2.5,2.1,2.4,2.1,4.3c0,1.7-5.1,2.3-6.6,2.6c-1.3,0.2-2,0.5-2.7,1.1
		c-0.6,0.6-1.3,1.2-2.4,2.4c0,0,0.5,0.1,1,0.1l0.9-1.1c0.3-0.4,0.4-0.7,0.6-0.7c0.2,0,0.1,0.3-0.1,0.7l-0.7,1.2
		c3,0.2,3.2-0.9,3.2-1.4c0-0.5-0.7-0.8-0.3-1c0.4-0.3,0.8-0.1,1.1,0.3c0.3,0.4,0.5,0.7,1.3,0.4c0,0,6.5-2.7,7.3-3.1
		c0.7-0.3,0.5-0.7,0.1-1c-0.5-0.4-0.6-1.1-0.6-1.7c0-2,1.2-2.6,3.3-2.5c0,0.3-0.1,0.7-0.1,0.9c0,3.1,4.6,6.1,5.9,6.1
		c0.6,0,1.3-0.4,1.4,1.4c0,1.4,0.3,2.3,0.1,3.9c-0.2,1.6-0.7,1.8-1.6,2.5c-0.9,0.7-1.8,2.7-2.2,3.2c0.4,0.3,0.9,0.3,1.2-0.7
		c0.3-0.8,0.6-1.4,1-1.6c-0.4,0.9-0.6,2.3-0.8,2.7c1.2,0.2,3.1-0.9,3.1-1.7c0-0.8-0.7-0.8-0.7-1.3c0-0.2,0.3-0.5,0.7-0.5
		c0.5,0,0.8,0.4,0.9,0.6c0.5-0.3,0.9-0.8,0.8-2c0-0.5,0-1-0.1-1.5c0,0.1,0.1,0.1,0.1,0.2c0.2,0.3,0.6,0.6,1.1,0.6
		c0.4,0,0.9-0.1,1.3-0.3c0.5-0.3,0.8-0.8,0.9-1.3c0-0.1,0-0.2,0-0.3c0-0.3-0.1-0.5-0.2-0.7c-0.2-0.3-0.5-0.5-0.9-0.6
		c-0.5-0.1-1,0-1.5,0.3c-0.4,0.3-0.7,0.7-0.9,1.1c-0.1-1.7-0.2-3.2-0.2-3.9c0.1-0.9,0.1-1.4-0.2-1.5c-0.3-0.1-0.7,0.4-1.1,0.4
		c-0.5,0-1.8-1.3-1.8-2.6c0-1.3,1.4-3,1.4-4.9c0-0.6,0.3-0.9,0.6-0.3c0.3,0.6,0.7,1.5,1.3,2.1c-0.4,2.3,2.1,4.5,4.2,2.9
		c-1,0.2-1.7-0.8-2.2-1.7c0.2,0,0.4,0,0.6,0c0.1,0,0.2,0,0.3,0c0.7,0.9,3,0.8,3.6-1.4c-0.4,0.5-1.2,0.8-1.8,0.7
		c0.9-0.7,1.3-1.8,1.3-3c0-5.8-7-6.5-7-11.7c0-2,1.7-3.2,2.9-3.2c0.5,0,0.8,0.1,1.1,0.3c-0.5,0.5-0.7,1.2-0.7,2c0.2,4.2,7,4,7.1,6
		C116.6,34.5,111.5,35.5,111.3,31.4 M93.2,15.4c0.3-0.6,0-1.6,1.1-1.6c0.6,0,1.1,0.6,1.8,0.8C95,14.7,94,15,93.2,15.4 M87,28.2
		c0,0.3-0.2,0.6-0.4,0.8c-0.1,0.1-0.3,0.2-0.5,0.2c-0.4,0-0.7-0.5-0.7-1c0,0,0-0.1,0-0.1c0-0.3,0.1-0.6,0.4-0.8
		c0.1-0.1,0.3-0.2,0.5-0.2c0.2,0,0.3,0.1,0.4,0.2C87,27.5,87.1,27.9,87,28.2 M107.1,57.4c0.1-0.3,0.3-0.7,0.6-0.9
		c0.3-0.2,0.7-0.3,1-0.2c0.2,0,0.4,0.1,0.5,0.3h0c0.1,0.2,0.1,0.4,0.1,0.6c-0.1,0.3-0.3,0.6-0.6,0.9c-0.6,0.4-1.3,0.3-1.5-0.1
		C107.1,57.8,107.1,57.6,107.1,57.4 M102.9,38c0-0.2,0-0.4,0.2-0.5l0,0c0.2-0.2,0.4-0.2,0.5-0.2c0.3,0,0.7,0.2,1,0.5
		c0.3,0.3,0.4,0.7,0.4,1c0,0.2,0,0.4-0.2,0.5c-0.2,0.2-0.4,0.2-0.6,0.2c-0.3,0-0.7-0.2-1-0.5C103,38.7,102.9,38.4,102.9,38
		 M91.3,24.9L91.3,24.9c0.3-1.1,1-3.1,1-3.1l0-0.1l1.3,0.5l-0.2,0.1c-0.2,0.1-0.6,0.3-0.9,0.6c0.2,0.1,0.6,0,0.8-0.1l0.2-0.1
		l-0.6,1.4L92.8,24c-0.1-0.1-0.3-0.5-0.6-0.6c0,0.1,0,0.2,0,0.3c0,0.5,0.4,0.8,0.7,0.9c0.6,0.3,1,0.4,1.2,0.1c0,0,0-0.1,0-0.2
		c0-0.1,0-0.2-0.1-0.3c-0.1-0.1-0.3-0.2-0.6-0.1l-0.1,0l0-0.1c0-0.4,0.1-0.6,0.2-0.7c0.1-0.1,0.3-0.2,0.5-0.2c0.2,0,0.4,0.1,0.5,0.3
		c0.1-0.8,0.5-1.4,1.3-1.6l0.1,0l0,0.1c0.1,0.3,0.1,0.5,0.1,0.7c0,0.5-0.2,0.9-0.6,1.3c0.3-0.1,0.6,0,0.7,0.2
		c0.1,0.2,0.1,0.4,0.1,0.5c0,0.2-0.2,0.4-0.5,0.6l-0.1,0l0-0.1c0-0.2-0.2-0.4-0.4-0.4c-0.2,0-0.4,0.1-0.4,0.2
		c-0.2,0.3,0.1,0.6,0.7,1c0.7,0.4,1.2,0.1,1.5-0.3c-0.2,0-0.5,0-0.8,0.2l-0.2,0.1l0.9-1.8l0,0.2c0,0.1,0.1,0.4,0.3,0.7
		c0-0.1,0.1-0.4,0.1-0.6c0-0.2,0-0.3-0.1-0.5l-0.1-0.2l1.9,1.1l-0.2,0c-0.3,0-0.7,0.2-1,0.6c0.4,0.1,0.7,0,0.7,0l0.2-0.1l-1,1.7
		l0-0.3v-0.1c0-0.3-0.1-0.6-0.2-0.8c-0.1,0.2-0.1,0.4-0.1,0.6c0,0.3,0.1,0.6,0.6,0.9c0.6,0.4,1,0.4,1.2,0.1c0.1-0.1,0.1-0.3,0-0.5
		C99,27,98.8,26.9,98.6,27l-0.1,0l0-0.1c0-0.4,0.1-0.6,0.2-0.7c0.1-0.1,0.3-0.2,0.5-0.2c0.3,0,0.5,0.3,0.6,0.5
		c0.3-0.8,0.7-1.2,1.5-1.4l0.1,0l0,0.1c0,0.1,0,0.3,0,0.4c0,0.6-0.3,1.1-0.8,1.5c0.3,0,0.5,0.1,0.6,0.3c0.1,0.1,0.1,0.2,0.1,0.3
		c0,0.1,0,0.1,0,0.2c-0.1,0.2-0.2,0.4-0.5,0.5l-0.1,0l0-0.1c0-0.3-0.2-0.4-0.4-0.5c-0.2,0-0.3,0-0.4,0.2c-0.1,0.3,0.1,0.6,0.7,0.9
		c0.4,0.3,0.9,0.5,1.4,0c-0.2-0.2-0.6-0.2-0.8-0.2H101l0.9-1.2l0,0.2c0,0,0,0,0,0c0,0.3,0.1,0.5,0.3,0.7c0.1-0.3,0.1-0.6,0.1-0.9
		c0-0.1,0-0.2,0-0.3l0-0.2l1.1,0.9l-0.1,0.1c0,0-1.5,1.6-2.2,2.3l0,0L91.3,24.9z M100.9,48.9c-0.4,0.5-1,0.7-1.5,0.4
		c-0.4-0.3-0.5-1-0.1-1.5c0.4-0.5,1-0.7,1.5-0.4C101.2,47.7,101.3,48.4,100.9,48.9 M103.7,44.5c-0.4,0.5-1,0.7-1.5,0.4
		c-0.4-0.3-0.5-1-0.1-1.5c0.4-0.5,1-0.7,1.5-0.4C104,43.3,104,44,103.7,44.5"/>
	<path d="M70.8,63.2c-0.2,0-0.3,0-0.5,0.1v-2.8c-1.2,0-2.7-0.3-4.2-0.7v3.5c-0.2-0.1-0.3-0.1-0.5-0.1c-1,0-1.6,0.8-1.6,1.6
		c0,0.7,0.4,1.4,0.8,1.8c0.2-0.4,0.4-0.8,0.6-0.8c0.5,0,0.3,2.5,1.7,2.5c0,0.1-0.1,0.3-0.1,0.4c0,0.6,0.5,1.1,1.1,1.1
		c0.6,0,1.1-0.5,1.1-1.1c0-0.1,0-0.3-0.1-0.4c1.5-0.1,1.2-2.5,1.7-2.5c0.2,0,0.4,0.3,0.6,0.8c0.4-0.4,0.8-1.1,0.8-1.8
		C72.5,64,71.8,63.2,70.8,63.2 M68.3,69.4c-0.4,0-0.6-0.3-0.6-0.6c0-0.3,0.3-0.6,0.6-0.6c0.3,0,0.6,0.3,0.6,0.6
		C68.9,69.1,68.6,69.4,68.3,69.4 M71.7,65.8c-0.2-0.3-0.4-0.5-0.6-0.5c-1,0-0.6,2.6-1.8,2.6c-0.5,0-0.8-0.3-0.8-0.7
		c0-0.4,0.3-0.5,0.3-0.8c0-0.3-0.2-0.4-0.5-0.4c-0.3,0-0.5,0.1-0.5,0.4c0,0.3,0.3,0.4,0.3,0.8c0,0.4-0.3,0.7-0.8,0.7
		c-1.2,0-0.8-2.6-1.8-2.6c-0.2,0-0.5,0.2-0.6,0.5c-0.2-0.4-0.3-0.7-0.3-1c0-0.5,0.4-1.1,1.1-1.1c1.3,0,1,1.8,1.6,1.8
		c0.3,0,0.5-0.2,0.5-0.4c0-0.5-0.9-1-0.9-1.7c0-0.7,0.7-1.3,1.4-1.9c0.7,0.6,1.4,1.2,1.4,1.9c0,0.7-0.9,1.2-0.9,1.7
		c0,0.3,0.2,0.4,0.5,0.4c0.6,0,0.3-1.8,1.6-1.8c0.8,0,1.1,0.7,1.1,1.1C72,65.1,71.9,65.4,71.7,65.8"/>
	<path d="M62.6,12.5c-0.4,0.8-0.8,1.3-0.8,2c0.1,0.6,0.7,1.1,1.1,1.8c0.3-0.8,0.8-1.3,0.7-1.9C63.6,13.7,62.8,12.9,62.6,12.5"/>
	<path d="M73.9,12.5c0.4,0.8,0.8,1.3,0.8,2c-0.1,0.6-0.7,1.1-1.1,1.8c-0.3-0.8-0.8-1.3-0.7-1.9C72.9,13.7,73.7,12.9,73.9,12.5"/>
	<path d="M56.2,12c0.4,0,0.8-0.3,0.8-0.8c0-0.4-0.3-0.8-0.8-0.8c-0.4,0-0.8,0.3-0.8,0.8C55.4,11.7,55.7,12,56.2,12"/>
	<path d="M56.7,13.1c0-0.4-0.3-0.8-0.8-0.8c-0.4,0-0.8,0.3-0.8,0.8c0,0.4,0.3,0.8,0.8,0.8C56.3,13.9,56.7,13.5,56.7,13.1"/>
	<path d="M57,14.9c0-0.4-0.3-0.8-0.8-0.8c-0.4,0-0.8,0.3-0.8,0.8c0,0.4,0.3,0.8,0.8,0.8C56.7,15.7,57,15.4,57,14.9"/>
	<path d="M60.4,8.4c0.4,0,0.8-0.3,0.8-0.8c0-0.4-0.3-0.8-0.8-0.8c-0.4,0-0.8,0.3-0.8,0.8C59.6,8.1,59.9,8.4,60.4,8.4"/>
	<path d="M58.5,9c0.4,0,0.8-0.3,0.8-0.8c0-0.4-0.3-0.8-0.8-0.8c-0.4,0-0.8,0.3-0.8,0.8C57.7,8.6,58.1,9,58.5,9"/>
	<path d="M57,10.3c0.4,0,0.8-0.3,0.8-0.8S57.4,8.8,57,8.8c-0.4,0-0.8,0.3-0.8,0.8S56.6,10.3,57,10.3"/>
	<path d="M62.4,8.6c0.4,0,0.8-0.3,0.8-0.8c0-0.4-0.3-0.8-0.8-0.8c-0.4,0-0.8,0.3-0.8,0.8C61.6,8.2,61.9,8.6,62.4,8.6"/>
	<path d="M64.2,9.1c0.4,0,0.8-0.3,0.8-0.8c0-0.4-0.3-0.8-0.8-0.8c-0.4,0-0.8,0.3-0.8,0.8C63.5,8.8,63.8,9.1,64.2,9.1"/>
	<path d="M66,10c0.4,0,0.8-0.3,0.8-0.8c0-0.4-0.3-0.8-0.8-0.8c-0.4,0-0.8,0.3-0.8,0.8C65.2,9.6,65.6,10,66,10"/>
	<path d="M79.5,11.3c0,0.4,0.3,0.8,0.8,0.8c0.4,0,0.8-0.3,0.8-0.8c0-0.4-0.3-0.8-0.8-0.8C79.9,10.5,79.5,10.8,79.5,11.3"/>
	<path d="M80.6,12.3c-0.4,0-0.8,0.3-0.8,0.8c0,0.4,0.3,0.8,0.8,0.8c0.4,0,0.8-0.3,0.8-0.8C81.3,12.7,81,12.3,80.6,12.3"/>
	<path d="M80.2,14.2c-0.4,0-0.8,0.3-0.8,0.8c0,0.4,0.3,0.8,0.8,0.8c0.4,0,0.8-0.3,0.8-0.8C80.9,14.5,80.6,14.2,80.2,14.2"/>
	<path d="M76.1,8.4c0.4,0,0.8-0.3,0.8-0.8c0-0.4-0.3-0.8-0.8-0.8c-0.4,0-0.8,0.3-0.8,0.8C75.3,8.1,75.7,8.4,76.1,8.4"/>
	<path d="M78,9c0.4,0,0.8-0.3,0.8-0.8c0-0.4-0.3-0.8-0.8-0.8c-0.4,0-0.8,0.3-0.8,0.8C77.2,8.6,77.6,9,78,9"/>
	<path d="M79.5,10.3c0.4,0,0.8-0.3,0.8-0.8s-0.3-0.8-0.8-0.8c-0.4,0-0.8,0.3-0.8,0.8S79.1,10.3,79.5,10.3"/>
	<path d="M74.1,8.6c0.4,0,0.8-0.3,0.8-0.8c0-0.4-0.3-0.8-0.8-0.8c-0.4,0-0.8,0.3-0.8,0.8C73.4,8.2,73.7,8.6,74.1,8.6"/>
	<path d="M72.2,9.1c0.4,0,0.8-0.3,0.8-0.8c0-0.4-0.3-0.8-0.8-0.8c-0.4,0-0.8,0.3-0.8,0.8C71.5,8.8,71.8,9.1,72.2,9.1"/>
	<path d="M69.7,9.2c0,0.4,0.3,0.8,0.8,0.8c0.4,0,0.8-0.3,0.8-0.8c0-0.4-0.3-0.8-0.8-0.8C70,8.4,69.7,8.8,69.7,9.2"/>
	<path d="M66.9,13.3h0.8v-3.3c-0.3,0-0.6-0.1-0.8-0.3V13.3z"/>
	<path d="M69.5,9.8c-0.3,0.1-0.6,0.2-0.9,0.3v3.3h0.9V9.8z"/>
	<path d="M67.7,6.2V4.3c-1,0.2-1.7,1-1.9,1.9H67.7z"/>
	<path d="M68.7,6.2h1.9c-0.2-1-0.9-1.7-1.9-1.9V6.2z"/>
	<path d="M65.9,7.1C66.1,8.2,67.1,9,68.2,9c1.1,0,2.1-0.8,2.3-1.9H65.9z"/>
	<path d="M69.5,4c-0.5-0.4-1-1-1-1.7c0.6,0.1,1.3,0.6,1.7,1.1V0.8c-0.4,0.5-1.1,1-1.7,1.1c0.1-0.6,0.5-1.2,1-1.9H67
		c0.5,0.7,0.9,1.2,1,1.9c-0.6-0.1-1.3-0.6-1.7-1.1v2.6c0.4-0.5,1.1-1,1.7-1.1c-0.1,0.6-0.5,1.3-1,1.7H69.5z"/>
	<path d="M72.3,56.1c-2.4-0.6-5.2-1.6-7.9-2.8l0,0c0.1-0.5-0.1-1.1-0.5-1.6c-0.4-0.5-1-0.7-1.5-0.7c-0.2,0-0.5,0.1-0.7,0.1
		c-0.4-0.3-0.7-0.7-1.1-1.1c-1-1.2-1.8-2.5-2.3-4.1c-0.3-0.9-0.5-1.8-0.7-2.7c-0.1,0.8-1,1.7-2.5,1.7c0-0.2,0-0.4-0.2-0.4
		c-0.4,0.4-0.9,0.9-2.3,0.4c0.2,1.1,0.5,2.1,0.9,3.1c0.8,2.2,2,4.1,3.4,5.8c0.5,0.6,1,1.1,1.5,1.5c0,0.1,0,0.2,0,0.3
		c0,0.6,0.5,1.4,1.3,1.8c0.6,0.3,1.3,0.2,1.9-0.2c1.2,0.6,2.6,1.2,4.2,1.6c1.8,0.5,3.5,0.8,4.9,0.8c1.2,0,2.7-0.5,4.2-1.5
		c0.6-0.4,1.2-0.8,1.6-1.2c0.1-0.1,0.1-0.1,0.2-0.2C75.6,56.8,73.8,56.5,72.3,56.1 M54.3,47.7c-0.2-0.5-0.2-1,0-1.4
		c0.2-0.4,0.5-0.8,1-0.9c0.5-0.2,0.9-0.2,1.4,0c0.4,0.2,0.8,0.6,1,1.1c0.1,0.2,0.1,0.5,0.1,0.7c0,0.2-0.1,0.5-0.1,0.7
		c-0.2,0.4-0.5,0.8-1,0.9c-0.4,0.2-0.9,0.2-1.3,0C54.8,48.5,54.5,48.1,54.3,47.7 M57.1,52.7l-0.6-0.8c0,0,0.9-0.6,1-0.7
		c-0.1-0.1-0.5-0.7-0.6-0.8c-0.1,0.1-1,0.7-1,0.7l-0.6-0.8l2.9-2l0.6,0.8c0,0-0.9,0.7-1,0.7c0.1,0.1,0.5,0.7,0.6,0.8
		c0.1-0.1,1-0.7,1-0.7l0.6,0.8L57.1,52.7z M63.6,52.5l-0.3-0.2c-0.5-0.3-0.9-0.3-1.3,0c-0.2,0.2-0.4,0.4-0.5,0.6l-0.3,0.3l0.2,0.1
		c0.5,0.4,0.6,0.8,0.4,1.1c-0.1,0.1-0.1,0.2-0.3,0.2c-0.2,0.1-0.6,0-0.9-0.2l-0.2-0.1l-0.1,0.2c0,0-0.1,0.1-0.1,0.1
		c0,0.1-0.1,0.1-0.1,0.2c-0.2,0.4-0.3,0.6-0.3,0.9c0,0.1,0,0.1,0,0.2c0.1,0.3,0.3,0.4,0.5,0.5l0.1,0.1c0.2,0.1,0.5,0.3,0.8,0.5
		c-0.4,0.2-0.9,0.3-1.3,0.1c-0.7-0.3-1.1-1.1-1.1-1.4c0-0.6,0.3-1.3,0.7-2l0.1-0.1l-0.1-0.1c-0.1-0.2-0.3-0.4-0.3-0.7
		c0.3,0,0.5,0.1,0.7,0.1l0.1,0l0.1-0.1c0.3-0.3,1.3-1.3,2.2-1.3c0.4,0,0.9,0.2,1.2,0.6c0.2,0.3,0.4,0.6,0.4,0.9
		C63.9,52.7,63.7,52.6,63.6,52.5 M65.1,57.1c-0.6,0-1-0.5-1-1c0-0.6,0.5-1,1-1c0.6,0,1,0.5,1,1C66.2,56.6,65.7,57.1,65.1,57.1
		 M69.6,58.4c-0.5,0-0.9-0.4-0.9-0.9c0-0.5,0.4-0.9,0.9-0.9c0.5,0,0.9,0.4,0.9,0.9C70.5,58,70.1,58.4,69.6,58.4"/>
	<path d="M56.7,47.1L56.7,47.1c0-0.1,0-0.2-0.1-0.3c-0.2-0.4-0.6-0.6-1-0.5c-0.4,0.2-0.6,0.6-0.4,1.1c0.1,0.2,0.2,0.4,0.4,0.5
		c0.2,0.1,0.4,0.1,0.6,0C56.5,47.7,56.7,47.4,56.7,47.1"/>
	<path d="M57.2,31.9c-0.4-0.2-0.8-0.1-1,0.3c-0.1,0.2-0.1,0.4-0.1,0.6c0.1,0.2,0.2,0.3,0.4,0.4c0.2,0.1,0.4,0.1,0.6,0.1
		c0.2-0.1,0.4-0.2,0.5-0.4c0.1-0.1,0.1-0.3,0.1-0.4C57.6,32.2,57.5,32,57.2,31.9"/>
	<polygon points="78.1,30 77.8,30.1 77.9,30.4 	"/>
	<path d="M82.6,37.1l-0.3-0.6l0,0c-0.1,0.1-0.1,0.2-0.2,0.3c0,0.1-0.1,0.1-0.1,0.2c0.1,0,0.1,0,0.2,0.1C82.4,37,82.5,37,82.6,37.1"
		/>
	<path d="M82.3,41.5c0.1,0,0.1,0,0.1-0.2c0,0,0-0.1,0-0.2c-0.1,0-0.2,0-0.3,0v0.2c0,0.1,0,0.1,0,0.2C82.3,41.5,82.3,41.5,82.3,41.5"
		/>
	<path d="M64.7,25.1c-0.2-0.1-0.4-0.1-0.6,0c-0.2,0.1-0.4,0.2-0.5,0.4c-0.1,0.2-0.1,0.5,0,0.6c0.1,0.2,0.3,0.7,1.1,0.4
		c0.2-0.1,0.4-0.2,0.5-0.4c0.1-0.1,0.1-0.2,0.1-0.3c0-0.1,0-0.2-0.1-0.3C65.1,25.4,64.9,25.2,64.7,25.1"/>
	<path d="M84.3,39.5c-0.3-0.2-0.7-0.6-1-1.2c-0.4-0.1-1.4-0.5-1.8-0.7c0,0-0.2-0.1-0.2-0.1L79.8,38l-0.3-1l1.4-0.4
		c0,0,0.1-0.1,0.1-0.2c0.2-0.3,0.6-0.8,0.8-1c-0.4-0.7-0.7-1.3-0.9-1.6c-0.2-0.4-0.3-0.7-0.3-1l-1.3,0.7c0.1,0.1,0.6,1.2,0.6,1.2
		l-0.9,0.4l-1-2.1l3.1-1.5l0.1,0.3c0.1-0.1,0.2-0.2,0.2-0.4c0.1-0.2,0.2-0.3,0.3-0.4c-0.6-1-1.3-2-2.1-2.9c-1-1.1-2.1-2-3.2-2.8
		c0.6-0.4,1.3-1,1.3-2c0-0.6-0.2-1.1-0.7-1.4c0.7-2.1,1.9-4.7,2.9-5.9l-2.1-0.9c0.6,0.8,0.6,1.8,0.5,2.4c-0.6-0.4-1-0.9-1.2-1.6
		c-0.1,0.7-0.5,1.7-0.8,2.3c0.6-0.3,1.1-0.4,1.7-0.2c-0.4,0.5-1.3,1.2-2.7,0.9c-0.8-0.2-1.5-0.6-1.5-1.2c0-0.4,0.3-0.8,0.8-0.7
		c0.5,0,0.5,0.8,0.4,1.1c0.6-0.3,1.2-2.1,0.3-2.4c-0.8-0.2-1.5,0.8-1.7,1.6c-0.1-1-0.5-1.9-1.3-1.8c-1,0.1-0.7,1.9-0.3,2.4
		c0.1-0.6,0.4-1,0.7-1c0.3,0,0.6,0.2,0.6,0.8c-0.1,0.6-0.9,0.9-1.8,0.9c-0.9,0-2.5-0.3-2.7-2c0.6,0.1,1.5,0.5,1.9,1.1
		c-0.1-1.1-0.1-1.8,0-2.9c-0.5,0.7-1.3,1.1-1.9,1.1c0.2-0.8,0.8-1.5,1.6-2h-3.9c0.8,0.5,1.4,1.3,1.6,2c-0.6-0.1-1.4-0.5-1.9-1.1
		c0.1,1.1,0.1,1.9,0,2.9c0.4-0.6,1.3-1,1.9-1.1c-0.2,1.7-1.7,2-2.7,2c-1,0-1.8-0.4-1.8-0.9c-0.1-0.6,0.3-0.8,0.6-0.8
		c0.3,0,0.6,0.3,0.7,1c0.3-0.5,0.7-2.3-0.3-2.4c-0.8-0.1-1.2,0.9-1.3,1.8c-0.3-0.8-0.9-1.8-1.7-1.6c-1,0.3-0.3,2.1,0.3,2.4
		c-0.1-0.3-0.1-1,0.3-1.1c0.5-0.1,0.7,0.4,0.8,0.7c0,0.6-0.7,1-1.5,1.2c-1.4,0.3-2.3-0.4-2.7-0.9c0.6-0.3,1.1-0.1,1.8,0.2
		c-0.3-0.6-0.7-1.7-0.8-2.3c-0.2,0.7-0.7,1.2-1.2,1.6c-0.1-0.6-0.1-1.6,0.5-2.4L56.6,16c1,1.1,2.2,3.7,2.9,5.9
		c-0.4,0.4-0.6,0.8-0.6,1.4c0,1,0.6,1.6,1.3,2c-1.2,0.8-2.3,1.7-3.2,2.8c-1.5,1.7-2.6,3.6-3.4,5.7c0,0.1-0.1,0.2-0.1,0.3
		c0.2,0.2,0.5,0.5,0.7,0.8c0,0,0-0.1,0-0.1c0.1-0.3,0.4-0.6,0.7-0.8l1.1,0.4c-0.4,0.3-1,0.8-0.9,0.9c0,0,0.3-0.1,0.4-0.2
		c0.3-0.3,0.8-0.6,1.4-0.4c0.3,0.1,0.5,0.3,0.6,0.6c0.1,0.3,0.1,0.6,0,0.9c-0.1,0.3-0.4,0.7-0.8,0.9l-1-0.4c0.4-0.2,0.8-0.7,0.9-0.8
		c0-0.1,0-0.2,0-0.2c-0.1-0.1-0.3,0.1-0.5,0.3c-0.2,0.2-0.5,0.3-0.7,0.4c0.5,0.7,0.8,1.3,0.8,1.8c0,1,0.2,1.4,0.8,2
		c0.8,1,0,0.9,0.7,2.1c0-0.3,0-0.7-0.1-1h10.7v11.7c-0.4,0-0.9,0.1-1.3,0.5c1.2,0.5,2.5,0.9,3.7,1.3c0.1-0.8,0.3-1.1,0.7-1.6
		c0,0-1.6-0.2-2.5-0.2V41.2h10.4c0,1.6-0.3,3.2-0.9,4.7c-0.6,1.5-1.3,2.9-2.3,4.1c-1,1.2-2.2,2.1-3.5,2.7c-0.3,0.2-0.5,0.6-0.7,1.1
		c-0.1,0.3-0.3,0.7-0.3,1.2c0.5,0.1,0.6,0.2,1.1,0.4c3.7,0.9,4.6,0.7,4.8,0.6h0c0.8-0.6,1.6-1.4,2.3-2.2c1.5-1.7,2.6-3.6,3.4-5.8
		c0.8-2.2,1.3-4.6,1.3-7C84.3,40.4,84.3,40,84.3,39.5 M79.2,28.7l0.4,0.5l-1.8,3.6l-0.7-0.9l0.3-0.6l-0.7-0.9l-0.6,0.2l-0.8-0.8
		L79.2,28.7z M76.9,26.4l0.6,0.5l-2.1,2.9l-0.8-0.6l1.1-1.4l-1,0.3l-0.2-1.1l-1,1.4l-0.9-0.5l2-2.9l0.7,0.4l0.2,1.5L76.9,26.4z
		 M59.6,23.3c0-2,5.7-2.2,8.6-2.2h0h0c2.9,0,8.6,0.2,8.6,2.2c0,0.6-0.4,1-1.2,1.5c-1.4-1-3.9-2-7.4-2c-3.6,0-6,1-7.4,2
		C60,24.3,59.6,23.8,59.6,23.3 M71.9,24.1l-0.7,3.5l-1-0.2l0.7-3.5L71.9,24.1z M66.7,26.8l-0.4,0.9c-0.7,0.2-1.6,0-1.8-0.1
		c-0.8,0.1-1.6-0.4-1.9-1.1c-0.2-0.5-0.2-0.9,0-1.3c0.2-0.4,0.6-0.8,1.1-1c1-0.4,2,0.1,2.3,1.1c0.1,0.2,0.1,0.4,0.1,0.6
		c0,0.3-0.1,0.7-0.3,1C66.1,26.8,66.4,26.9,66.7,26.8 M60,26.3l0.6,0.7l-0.7,0.6c0.1,0.1,1.6,1.8,1.6,1.8l-0.7,0.7l-1.6-1.8L58.5,29
		l-0.6-0.7L60,26.3z M57.4,28.8l2.6,2.1l-0.6,0.8l-2.6-2.1L57.4,28.8z M57.4,34.2c-0.4,0.1-0.9,0.1-1.3-0.1c-0.4-0.2-0.7-0.6-0.8-1
		c-0.1-0.4-0.1-0.9,0.1-1.4c0.2-0.4,0.6-0.8,1-0.9c0.4-0.1,0.9-0.1,1.3,0.1c0.4,0.2,0.7,0.6,0.8,1c0.1,0.2,0.1,0.3,0.1,0.5
		c0,0.3-0.1,0.6-0.2,0.9C58.2,33.8,57.8,34.1,57.4,34.2 M57.4,40.5c0-1.6,0.3-3.2,0.9-4.7c0.6-1.5,1.3-2.9,2.3-4.1
		c1-1.2,2.2-2.1,3.5-2.7c1.3-0.6,2.6-1,4-1v12.5H57.4z M68.3,27.3c-0.7,0-1.5-0.4-1.5-1.4l0-2.1l1,0v2c0,0.3,0,0.3,0.1,0.4
		c0.1,0.1,0.2,0.1,0.4,0.1c0.2,0,0.4-0.1,0.5-0.2c0.1,0,0.1-0.1,0.1-0.4l0-2l1,0v2.1c0,0.4-0.1,0.8-0.4,1
		C69.2,27.1,68.8,27.3,68.3,27.3 M68.7,40.5V28c1.3,0.1,2.6,0.4,3.8,1c1.3,0.6,2.5,1.6,3.5,2.7c1,1.2,1.8,2.5,2.3,4.1
		c0.5,1.5,0.8,3.1,0.9,4.7H68.7z M77.5,54.6l-0.7-0.7l0.9-0.9l-0.2-0.2l-0.8,0.8L75.9,53l0.8-0.8L76.5,52l-0.9,0.9l-0.7-0.7l1.6-1.6
		L79,53L77.5,54.6z M80.3,51.4c-0.2,0.2-0.5,0.5-0.8,0.6l0,0l-1-0.7c1-0.3,1.1-0.6,1-0.7c0,0-0.2,0.1-0.4,0.1
		c-0.4,0.2-0.9,0.5-1.5,0.1c-0.2-0.2-0.4-0.4-0.5-0.7c-0.1-0.3,0-0.6,0.2-0.8c0.2-0.3,0.6-0.5,1-0.7l1,0.7l-0.2,0
		c-0.5,0.1-0.9,0.4-0.9,0.5c0,0.1-0.1,0.1-0.1,0.1c0,0,0,0,0,0c0.1,0.1,0.3-0.1,0.5-0.1c0.4-0.2,0.9-0.4,1.4-0.1
		c0.2,0.2,0.4,0.4,0.5,0.7c0,0.1,0,0.1,0,0.2C80.5,51,80.5,51.2,80.3,51.4 M82.4,47.2L80.2,48l1.6,0.6l-0.4,0.9l-3.2-1.3l0.3-0.7
		l2.1-0.7l-1.6-0.6l0.4-0.9l3.2,1.3L82.4,47.2z M82.9,45.6l-1-0.2l0.2-1.2l-0.3,0l-0.2,1.2l-1-0.2L81,44l-0.3-0.1l-0.2,1.2l-1-0.2
		l0.4-2.2l3.4,0.6L82.9,45.6z M83.5,41.4c0,0.4-0.1,0.7-0.3,0.9c-0.2,0.2-0.5,0.3-0.8,0.3c-0.3,0-0.6-0.1-0.8-0.3
		c-0.2-0.2-0.3-0.5-0.3-0.9v-0.2c-0.1,0-1.2,0-1.2,0l0-1l3.5,0.1L83.5,41.4z"/>
	<path d="M40.6,65.7c0,0-0.1,0.1-0.2,0.1c0.1,0.1,0.8,1.3,0.9,1.5c0.1,0,0.2-0.1,0.2-0.1c0.8-0.4,0.7-0.9,0.5-1.3
		C41.5,65.3,41,65.4,40.6,65.7"/>
	<path d="M88.2,61.2c0.1,0,0.1-0.1,0.1-0.1c0,0,0-0.1,0-0.1c0-0.1-0.1-0.1-0.1-0.2c0,0-0.3-0.2-0.3-0.2c0,0-0.2,0.3-0.2,0.4
		c0.1,0.1,0.3,0.1,0.3,0.1C88.1,61.2,88.2,61.2,88.2,61.2"/>
	<path d="M83.6,60.6c0.7,0.2,1.1,0.1,1.4-0.6c0.2-0.5,0-0.9-0.8-1.1h0c0,0,0,0-0.3-0.1c-0.1,0.2-0.6,1.7-0.6,1.7
		C83.5,60.6,83.6,60.6,83.6,60.6"/>
	<path d="M90.6,64.5c0.2,0.1,0.5,0.2,0.7,0.1c0.3-0.1,0.4-0.2,0.6-0.4c0.1-0.2,0.2-0.4,0.1-0.7c-0.1-0.2-0.2-0.4-0.4-0.6
		c-0.3-0.1-0.5-0.2-0.8-0.1c-0.3,0.1-0.4,0.2-0.6,0.4c-0.1,0.2-0.2,0.4-0.1,0.7C90.2,64.1,90.3,64.3,90.6,64.5"/>
	<path d="M73.3,72.4c-0.2-0.2-0.4-0.3-0.7-0.2c-0.3,0-0.5,0.1-0.7,0.3c-0.2,0.2-0.3,0.4-0.3,0.7c0,0.3,0.1,0.5,0.3,0.7
		c0.2,0.2,0.4,0.3,0.7,0.2c0.3,0,0.5-0.1,0.7-0.3c0.2-0.2,0.3-0.4,0.3-0.7C73.6,72.8,73.5,72.6,73.3,72.4"/>
	<path d="M97.9,69.6c2,0,3.8-2.5,6.3-3.6c-6.3,1.8-15-8.8-20.9-8.8c-1.7,0-3.6,0.6-4.5,2.9c-1,2.4-2.1,3.2-2.1,4.3
		c0,0.9,0.9,1.7,2.3,2.4c0.9,0.5,1.9,0.8,1.8,1.6c-2.7,1.2-7.2,2.1-12.4,2.1c-5.3,0-9.7-0.9-12.4-2.1c-0.1-0.9,0.9-1.1,1.8-1.6
		c1.4-0.8,2.3-1.5,2.3-2.4c0-1.1-1.1-1.9-2.1-4.3c-0.9-2.3-2.9-2.9-4.5-2.9c-5.9,0-14.6,10.7-20.9,8.8c2.5,1.1,4.3,3.6,6.3,3.6
		c5.1,0,11-7.7,16.6-7.7c0.1,0,0.2,0,0.2,0c-1.3,1.6-3.1,1.9-3.1,3.6c0,1.1,1,1.8,1.7,3.3c0.4,0.9,0.5,1.6,0.9,3
		C55.2,73,56,76,68.3,76c12.2,0,13.1-3,13.4-4.2c0.4-1.3,0.4-2,0.9-3c0.7-1.5,1.7-2.2,1.7-3.3c0-1.6-1.8-2-3.1-3.6
		c0.1,0,0.2,0,0.2,0C86.8,62,92.8,69.6,97.9,69.6 M98.7,65.9l-0.5,0.9c-0.3-0.1-0.8-0.4-1.2-0.5c-0.3,0.5-1.3,2-1.4,2.3l-1-0.4
		c0,0,1.1-1.8,1.5-2.3c-0.3-0.2-0.8-0.4-1-0.6l0.5-0.9C96.4,64.8,98,65.6,98.7,65.9 M95.2,64l-2,3.3l-0.9-0.6l2-3.3L95.2,64z
		 M90.5,61.8c0.5-0.1,1,0,1.5,0.2c0.5,0.3,0.8,0.7,1,1.2c0,0.2,0.1,0.3,0.1,0.5c0,0.3-0.1,0.7-0.3,1c-0.3,0.5-0.7,0.8-1.3,0.9
		c-0.5,0.1-1,0-1.6-0.3c-0.5-0.3-0.8-0.7-1-1.2c-0.1-0.5-0.1-1,0.2-1.5C89.6,62.2,90,61.9,90.5,61.8 M88.8,59.9L88.8,59.9
		c0.2,0.1,0.4,0.3,0.6,0.6c0.2,0.3,0.2,0.7,0,1.1C89.2,61.8,89,62,88.7,62c-0.1,0-0.2,0-0.3,0c0,0.2,0.1,0.3,0.1,0.6
		c0,0.8,0.2,1.7,0.2,1.7c-0.2-0.1-1.1-0.7-1.2-0.8l-0.1-1.1c0-0.4-0.1-0.6-0.2-0.6C87.1,62,86.5,63,86.5,63l-1-0.5l1.9-3.4
		C87.8,59.3,88.5,59.7,88.8,59.9 M83.3,57.6l1.5,0.4c0.9,0.2,1.8,1.1,1.3,2.4c-0.6,1.4-1.7,1.5-2.8,1.3L82,61.3L83.3,57.6z M42,68
		l-1.1,0.6l-1.9-3.3l1.2-0.6c0.4-0.2,0.8-0.3,1.1-0.3c0.3,0,0.7,0.1,1,0.3c0.3,0.2,0.6,0.4,0.7,0.7C43.3,66.2,43.4,67.3,42,68
		 M44.9,66.3l-2-3.2l0.9-0.6l2,3.3L44.9,66.3z M47.1,64.9l-2-3.3l2.1-1.4l0.5,0.9l-1.2,0.8c0.1,0.1,0.1,0.2,0.2,0.3l1.2-0.8l0.5,0.9
		l-1.2,0.8c0.1,0.1,0.1,0.2,0.2,0.3l1.3-0.8l0.5,0.9L47.1,64.9z M51.4,62.4c-1.1,0.5-1.8,0-2.2-0.8l-0.9-2.1l1-0.5
		c0,0,0.9,2.1,0.9,2.1c0.2,0.4,0.4,0.6,0.8,0.4c0.5-0.2,0.5-0.4,0.3-0.8l-0.9-2.2l1.1-0.4l0.9,2.1C52.7,61.1,52.6,61.9,51.4,62.4
		 M55.3,68.2c-1.5-0.8-2.3-1.7-2.3-2.6c0-1.5,2.4-2.4,3.3-3.5c1.4,0.2,3.3,0.9,3.3,2.1C59.6,65.6,54.9,66.3,55.3,68.2 M57.8,73.8
		l-0.2-3.9c0.6,0.2,1.9,0.5,2.6,0.6l0,1.1c-0.3-0.1-1-0.2-1.5-0.3c0,0,0,0.2,0,0.3c0.1,0,1.3,0.3,1.3,0.3l0,1.1c0,0-1.1-0.3-1.3-0.3
		c0,0,0,0.3,0,0.4c0.4,0.1,0.9,0.3,1.4,0.4l0.1,1.1C59.3,74.4,58.4,74.1,57.8,73.8 M63.9,72.2c-0.3,0-0.8-0.1-1.1-0.1v3l-1.1-0.2v-3
		c-0.3,0-0.8-0.1-1.1-0.2v-1.1c1,0.2,2.3,0.4,3.4,0.5V72.2z M70.1,75.2l-1.1,0v-2.1c-0.3,0.3-0.9,1.1-0.9,1.1s-0.7-0.8-0.9-1.1v2.1
		l-1.1,0v-4l0.9,0c0,0,1,1.2,1.1,1.3c0.2-0.2,1.1-1.3,1.1-1.3l0.9,0V75.2z M74.1,74.5c-0.4,0.4-0.9,0.6-1.6,0.6
		c-0.6,0-1.1-0.2-1.5-0.5c-0.4-0.4-0.6-0.9-0.6-1.4c0-0.6,0.2-1.1,0.6-1.5c0.4-0.4,0.9-0.6,1.5-0.6c0.6,0,1.1,0.2,1.5,0.5
		c0.4,0.4,0.6,0.9,0.6,1.4S74.5,74.1,74.1,74.5 M78.7,73.9l-0.8,0.3c0,0-1.3-1.4-1.6-1.7c0,0.4-0.1,2.1-0.1,2.1L75,74.8l0.2-4.1
		l0.8-0.1l1.7,1.7c0-0.4,0.1-2.1,0.1-2.1l1.1-0.3L78.7,73.9z M83.5,65.6c0,0.9-0.8,1.8-2.3,2.6c0.4-2-4.3-2.6-4.3-4
		c0-1.2,1.9-1.9,3.3-2.1C81.1,63.2,83.5,64.1,83.5,65.6"/>
</g>
</svg>
