<?xml version="1.0" encoding="UTF-8" standalone="no"?>
<!-- Created with Inkscape (http://www.inkscape.org/) -->

<svg
   xmlns:dc="http://purl.org/dc/elements/1.1/"
   xmlns:cc="http://creativecommons.org/ns#"
   xmlns:rdf="http://www.w3.org/1999/02/22-rdf-syntax-ns#"
   xmlns:svg="http://www.w3.org/2000/svg"
   xmlns="http://www.w3.org/2000/svg"
   version="1.1"
   width="406.186"
   height="128"
   id="svg3004"
   xml:space="preserve"><metadata
     id="metadata3010"><rdf:RDF><cc:Work
         rdf:about=""><dc:format>image/svg+xml</dc:format><dc:type
           rdf:resource="http://purl.org/dc/dcmitype/StillImage" /><dc:title></dc:title></cc:Work></rdf:RDF></metadata><defs
     id="defs3008"><clipPath
       id="clipPath3018"><path
         d="m 0,88.934 171.399,0 L 171.399,0 0,0 0,88.934 z"
         id="path3020" /></clipPath></defs><g
     transform="matrix(1.25,0,0,-1.25,-41.393241,163.07682)"
     id="g3012"><g
       transform="matrix(2.7085433,0,0,2.7085433,-36.438091,-41.597676)"
       id="g3014"
       style="fill:#000000"><g
         clip-path="url(#clipPath3018)"
         id="g3016"
         style="fill:#000000"><g
           transform="translate(51.376,63.1846)"
           id="g3022"
           style="fill:#000000"><path
             d="m 0,0 0,-14.582 c 0,-8.516 -5.803,-11.455 -12.85,-11.455 -7.46,0 -12.847,3.467 -12.847,11.418 l 0,14.619 6.404,0 0,-14.771 c 0,-3.692 2.676,-5.915 6.369,-5.915 3.391,0 6.518,1.77 6.518,6.368 L -6.406,0 0,0 z"
             id="path3024"
             style="fill:#000000;fill-opacity:1;fill-rule:nonzero;stroke:none" /></g><g
           transform="translate(73.7959,56.5146)"
           id="g3026"
           style="fill:#000000"><path
             d="m 0,0 c -3.73,1.658 -5.953,2.299 -8.14,2.299 -2.298,0 -3.767,-0.828 -3.767,-2.11 0,-3.88 13.075,-2.789 13.075,-11.757 0,-4.936 -4.145,-7.799 -9.873,-7.799 -4.483,0 -6.707,1.168 -9.27,2.486 l 0,5.539 c 3.694,-2.449 5.954,-3.316 8.781,-3.316 2.449,0 3.768,0.867 3.768,2.375 0,4.22 -13.076,2.676 -13.076,11.906 0,4.447 3.844,7.387 9.797,7.387 2.864,0 5.464,-0.604 8.705,-1.998 L 0,0 z"
             id="path3028"
             style="fill:#000000;fill-opacity:1;fill-rule:nonzero;stroke:none" /></g><g
           transform="translate(90.3369,57.043)"
           id="g3030"
           style="fill:#000000"><path
             d="m 0,0 -3.768,-9.985 7.913,0 L 0,0 z m 15.034,-19.556 -6.895,0 -2.11,5.086 -11.494,0 -1.921,-5.086 -6.782,0 10.361,25.698 7.424,0 11.417,-25.698 z"
             id="path3032"
             style="fill:#000000;fill-opacity:1;fill-rule:nonzero;stroke:none" /></g><path
           d="m 114.603,37.487 -6.406,0 0,25.697 6.406,0 0,-25.697 z"
           id="path3034"
           style="fill:#000000;fill-opacity:1;fill-rule:nonzero;stroke:none" /><g
           transform="translate(126.5088,42.1963)"
           id="g3036"
           style="fill:#000000"><path
             d="m 0,0 4.183,0 c 6.443,0 8.364,4.371 8.364,8.139 0,4.409 -2.373,8.139 -8.44,8.139 L 0,16.278 0,0 z m 4.936,20.988 c 9.382,0 14.206,-5.84 14.206,-12.886 0,-7.385 -4.673,-12.811 -14.922,-12.811 l -10.626,0 0,25.697 11.342,0 z"
             id="path3038"
             style="fill:#000000;fill-opacity:1;fill-rule:nonzero;stroke:none" /></g><g
           transform="translate(28.9614,31.1475)"
           id="g3040"
           style="fill:#000000"><path
             d="m 0,0 -2.395,0 0,-1.701 2.395,0 0,-0.793 -2.395,0 0,-2.854 -0.882,0 0,6.14 L 0,0.792 0,0 z"
             id="path3042"
             style="fill:#000000;fill-opacity:1;fill-rule:nonzero;stroke:none" /></g><g
           transform="translate(30.7969,29.2568)"
           id="g3044"
           style="fill:#000000"><path
             d="M 0,0 0.567,0 C 1.512,0 1.782,0.486 1.773,0.999 1.764,1.575 1.422,1.927 0.567,1.927 L 0,1.927 0,0 z m 0.666,2.683 c 1.242,0 2.017,-0.658 2.017,-1.72 0,-0.711 -0.37,-1.242 -1.027,-1.503 0.558,-0.369 0.901,-0.937 1.369,-1.701 0.261,-0.424 0.414,-0.631 0.837,-1.216 l -1.053,0 -0.81,1.261 c -0.811,1.259 -1.18,1.404 -1.63,1.404 l -0.369,0 0,-2.665 -0.882,0 0,6.14 1.548,0 z"
             id="path3046"
             style="fill:#000000;fill-opacity:1;fill-rule:nonzero;stroke:none" /></g><g
           transform="translate(37.7275,26.5293)"
           id="g3048"
           style="fill:#000000"><path
             d="M 0,0 C 1.377,0 2.395,0.999 2.395,2.341 2.395,3.69 1.377,4.681 0,4.681 -1.369,4.681 -2.386,3.69 -2.386,2.341 -2.386,0.999 -1.369,0 0,0 m 0,5.491 c 2.025,0 3.304,-1.44 3.304,-3.15 0,-1.657 -1.242,-3.152 -3.322,-3.152 -2.008,0 -3.277,1.486 -3.277,3.152 0,1.701 1.305,3.15 3.295,3.15"
             id="path3050"
             style="fill:#000000;fill-opacity:1;fill-rule:nonzero;stroke:none" /></g><g
           transform="translate(47.6372,25.7998)"
           id="g3052"
           style="fill:#000000"><path
             d="m 0,0 -0.882,0 0,4.78 -0.018,0 -1.891,-2.377 -0.144,0 -1.89,2.377 -0.018,0 0,-4.78 -0.883,0 0,6.14 0.829,0 L -2.863,3.619 -0.819,6.14 0,6.14 0,0 z"
             id="path3054"
             style="fill:#000000;fill-opacity:1;fill-rule:nonzero;stroke:none" /></g><g
           transform="translate(55.7993,31.1475)"
           id="g3056"
           style="fill:#000000"><path
             d="m 0,0 -2.124,0 0,-5.348 -0.883,0 0,5.348 -2.124,0 0,0.792 L 0,0.792 0,0 z"
             id="path3058"
             style="fill:#000000;fill-opacity:1;fill-rule:nonzero;stroke:none" /></g><g
           transform="translate(61.7402,25.7998)"
           id="g3060"
           style="fill:#000000"><path
             d="m 0,0 -0.883,0 0,2.674 -3.439,0 0,-2.674 -0.883,0 0,6.14 0.883,0 0,-2.674 3.439,0 0,2.674 L 0,6.14 0,0 z"
             id="path3062"
             style="fill:#000000;fill-opacity:1;fill-rule:nonzero;stroke:none" /></g><g
           transform="translate(66.5625,31.1475)"
           id="g3064"
           style="fill:#000000"><path
             d="m 0,0 -2.602,0 0,-1.854 2.512,0 0,-0.792 -2.512,0 0,-1.91 2.684,0 0,-0.792 -3.566,0 0,6.14 L 0,0.792 0,0 z"
             id="path3066"
             style="fill:#000000;fill-opacity:1;fill-rule:nonzero;stroke:none" /></g><g
           transform="translate(71.2871,28.4014)"
           id="g3068"
           style="fill:#000000"><path
             d="M 0,0 1.908,0 0.918,2.224 0,0 z m 3.988,-2.602 -0.9,0 -0.818,1.81 -2.612,0 -0.773,-1.81 -0.901,0 2.637,6.176 0.621,0 2.746,-6.176 z"
             id="path3070"
             style="fill:#000000;fill-opacity:1;fill-rule:nonzero;stroke:none" /></g><g
           transform="translate(81.5664,25.7998)"
           id="g3072"
           style="fill:#000000"><path
             d="m 0,0 -0.881,0 0,4.78 -0.019,0 -1.891,-2.377 -0.143,0 -1.89,2.377 -0.02,0 0,-4.78 -0.881,0 0,6.14 0.829,0 L -2.861,3.619 -0.818,6.14 0,6.14 0,0 z"
             id="path3074"
             style="fill:#000000;fill-opacity:1;fill-rule:nonzero;stroke:none" /></g><g
           transform="translate(86.3535,31.1475)"
           id="g3076"
           style="fill:#000000"><path
             d="m 0,0 -2.602,0 0,-1.854 2.512,0 0,-0.792 -2.512,0 0,-1.91 2.684,0 0,-0.792 -3.566,0 0,6.14 L 0,0.792 0,0 z"
             id="path3078"
             style="fill:#000000;fill-opacity:1;fill-rule:nonzero;stroke:none" /></g><g
           transform="translate(88.2695,29.2568)"
           id="g3080"
           style="fill:#000000"><path
             d="M 0,0 0.568,0 C 1.514,0 1.783,0.486 1.773,0.999 1.766,1.575 1.424,1.927 0.568,1.927 L 0,1.927 0,0 z m 0.666,2.683 c 1.244,0 2.018,-0.658 2.018,-1.72 0,-0.711 -0.37,-1.242 -1.026,-1.503 0.557,-0.369 0.899,-0.937 1.367,-1.701 0.262,-0.424 0.414,-0.631 0.838,-1.216 l -1.052,0 L 2,-2.196 c -0.811,1.259 -1.18,1.404 -1.631,1.404 l -0.369,0 0,-2.665 -0.881,0 0,6.14 1.547,0 z"
             id="path3082"
             style="fill:#000000;fill-opacity:1;fill-rule:nonzero;stroke:none" /></g><path
           d="m 93.428,25.8 -0.883,0 0,6.14 0.883,0 0,-6.14 z"
           id="path3084"
           style="fill:#000000;fill-opacity:1;fill-rule:nonzero;stroke:none" /><g
           transform="translate(99.8379,30.5713)"
           id="g3086"
           style="fill:#000000"><path
             d="m 0,0 c -0.758,0.441 -1.406,0.639 -2.117,0.639 -1.404,0 -2.447,-0.999 -2.447,-2.35 0,-1.377 1.007,-2.331 2.484,-2.331 0.693,0 1.449,0.243 2.143,0.693 l 0,-0.964 c -0.604,-0.314 -1.262,-0.54 -2.225,-0.54 -2.305,0 -3.313,1.774 -3.313,3.061 0,1.873 1.414,3.241 3.368,3.241 0.63,0 1.269,-0.153 2.107,-0.504 L 0,0 z"
             id="path3088"
             style="fill:#000000;fill-opacity:1;fill-rule:nonzero;stroke:none" /></g><g
           transform="translate(102.2109,28.4014)"
           id="g3090"
           style="fill:#000000"><path
             d="M 0,0 1.908,0 0.918,2.224 0,0 z m 3.988,-2.602 -0.9,0 -0.818,1.81 -2.612,0 -0.773,-1.81 -0.901,0 2.637,6.176 0.621,0 2.746,-6.176 z"
             id="path3092"
             style="fill:#000000;fill-opacity:1;fill-rule:nonzero;stroke:none" /></g><g
           transform="translate(112.4629,25.7998)"
           id="g3094"
           style="fill:#000000"><path
             d="m 0,0 -0.756,0 -4.105,4.727 0,-4.727 -0.828,0 0,6.14 0.703,0 4.158,-4.753 0,4.753 L 0,6.14 0,0 z"
             id="path3096"
             style="fill:#000000;fill-opacity:1;fill-rule:nonzero;stroke:none" /></g><g
           transform="translate(117.377,29.248)"
           id="g3098"
           style="fill:#000000"><path
             d="m 0,0 0.998,0 c 0.658,0 1.08,0.351 1.08,0.963 0,0.45 -0.242,0.936 -1.043,0.936 L 0,1.899 0,0 z m 1.035,2.691 c 1.342,0 1.953,-0.792 1.953,-1.764 0,-0.963 -0.648,-1.719 -2.07,-1.719 l -0.918,0 0,-2.656 -0.883,0 0,6.139 1.918,0 z"
             id="path3100"
             style="fill:#000000;fill-opacity:1;fill-rule:nonzero;stroke:none" /></g><g
           transform="translate(124.6133,31.1475)"
           id="g3102"
           style="fill:#000000"><path
             d="m 0,0 -2.602,0 0,-1.854 2.512,0 0,-0.792 -2.512,0 0,-1.91 2.682,0 0,-0.792 -3.564,0 0,6.14 L 0,0.792 0,0 z"
             id="path3104"
             style="fill:#000000;fill-opacity:1;fill-rule:nonzero;stroke:none" /></g><g
           transform="translate(128.6543,26.5293)"
           id="g3106"
           style="fill:#000000"><path
             d="M 0,0 C 1.377,0 2.395,0.999 2.395,2.341 2.395,3.69 1.377,4.681 0,4.681 -1.369,4.681 -2.387,3.69 -2.387,2.341 -2.387,0.999 -1.369,0 0,0 m 0,5.491 c 2.025,0 3.303,-1.44 3.303,-3.15 0,-1.657 -1.242,-3.152 -3.323,-3.152 -2.005,0 -3.275,1.486 -3.275,3.152 0,1.701 1.305,3.15 3.295,3.15"
             id="path3108"
             style="fill:#000000;fill-opacity:1;fill-rule:nonzero;stroke:none" /></g><g
           transform="translate(133.6934,29.248)"
           id="g3110"
           style="fill:#000000"><path
             d="m 0,0 0.998,0 c 0.658,0 1.08,0.351 1.08,0.963 0,0.45 -0.242,0.936 -1.043,0.936 L 0,1.899 0,0 z m 1.035,2.691 c 1.342,0 1.953,-0.792 1.953,-1.764 0,-0.963 -0.648,-1.719 -2.07,-1.719 l -0.918,0 0,-2.656 -0.883,0 0,6.139 1.918,0 z"
             id="path3112"
             style="fill:#000000;fill-opacity:1;fill-rule:nonzero;stroke:none" /></g><g
           transform="translate(138.3184,26.5918)"
           id="g3114"
           style="fill:#000000"><path
             d="m 0,0 2.773,0 0,-0.792 -3.656,0 0,6.14 L 0,5.348 0,0 z"
             id="path3116"
             style="fill:#000000;fill-opacity:1;fill-rule:nonzero;stroke:none" /></g><g
           transform="translate(145.25,31.1475)"
           id="g3118"
           style="fill:#000000"><path
             d="m 0,0 -2.602,0 0,-1.854 2.512,0 0,-0.792 -2.512,0 0,-1.91 2.682,0 0,-0.792 -3.564,0 0,6.14 L 0,0.792 0,0 z"
             id="path3120"
             style="fill:#000000;fill-opacity:1;fill-rule:nonzero;stroke:none" /></g></g></g></g></svg>