<?xml version="1.0" encoding="utf-8"?>
<!-- Generator: Adobe Illustrator 23.0.1, SVG Export Plug-In . SVG Version: 6.00 Build 0)  -->
<svg version="1.1" id="Layer_1" xmlns="http://www.w3.org/2000/svg" xmlns:xlink="http://www.w3.org/1999/xlink" x="0px" y="0px"
	 width="670px" height="96px" viewBox="0 0 670 96" enable-background="new 0 0 670 96" xml:space="preserve">
<g>
	<g>
		<g>
			<path d="M12.5,12.4l10.3,0c9.5,0,13.6,3,13.6,9.1c0,5.3-4.2,8.9-12.5,8.9l-11.4,0L12.5,12.4z M0,72.1l25.4,0
				C38.7,72.1,52,67.3,52,52c0-9.1-6.4-16-15.2-17l0-0.2c7.3-2.2,12.2-7.5,12.2-15.4c0-12.8-10.9-17.7-21.6-17.7L0,1.7L0,72.1z
				 M12.5,41.1l12,0c10.1,0,14.9,2.6,14.9,9.9c0,9.3-9,10.3-15.4,10.3l-11.5,0L12.5,41.1z"/>
			<rect x="60.2" y="0" width="11.9" height="72.1"/>
			<path d="M92.1,48.2c0-7.5,5.3-14.3,14-14.3c8.8,0,14,6.9,14,14.3c0,7.5-5.3,14.3-14,14.3C97.4,62.6,92.1,55.7,92.1,48.2
				 M80.2,48.2c0,15,11.5,25.1,26,25.1c14.4,0,26-10,26-25.1c0-15-11.5-25.1-26-25.1C91.7,23.2,80.2,33.2,80.2,48.2"/>
			<path d="M149.4,48.2c0-7.5,5.3-14.3,14-14.3s14,6.9,14,14.3c0,7.5-5.3,14.3-14,14.3S149.4,55.7,149.4,48.2 M137.5,48.2
				c0,15,11.5,25.1,26,25.1c14.4,0,26-10,26-25.1c0-15-11.5-25.1-26-25.1C149,23.2,137.5,33.2,137.5,48.2"/>
			<path d="M196.7,24.4l11.3,0v7.5h0.2c2.1-4.5,6.7-8.7,14.6-8.7c7.4,0,12.4,2.9,14.9,8.9c3.5-6.1,8.6-8.9,15.7-8.9
				c12.7,0,17.2,9.1,17.2,20.5v28.5l-11.9,0V45.1c0-6-1.8-11.1-8.9-11.1c-7.5,0-10.3,6.2-10.3,12.3l0,25.9l-11.9,0l0-28.5
				c0-5.9-2.4-9.7-8.2-9.7c-7.9,0-10.9,5.8-10.9,12.1l0,26.1h-11.9L196.7,24.4z"/>
			<path d="M320,48.2c0,7.5-5.3,14.3-14,14.3c-8.8,0-14-6.9-14-14.3c0-7.5,5.3-14.3,14-14.3C314.8,33.9,320,40.8,320,48.2
				 M280.4,72.1l11.3,0V65h0.2c3.5,5.8,9.8,8.4,16.4,8.4c14.7,0,23.6-10.9,23.6-25.1c0-14.1-9.5-25.1-23.1-25.1
				c-9,0-13.7,4.2-16.2,7.3h-0.3V0l-11.9,0L280.4,72.1z"/>
			<path d="M349.3,43.5c0.9-6.9,5.3-11.3,12.3-11.3c7.5,0,12,4.4,12.1,11.3L349.3,43.5z M385.7,52.4v-3.3c0-16.6-9.1-26-22.4-26
				c-14.4,0-26,10.1-26,25.1c0,15,11.5,25.1,26,25.1c7.6,0,14.6-2.7,20.2-9.6l-8.6-6.5c-3,3.7-6.9,6.5-12.8,6.5
				c-6.7,0-12-4.3-12.8-11.3L385.7,52.4z"/>
			<path d="M393.5,24.4l11.9,0v7.6h0.2c2.6-5.5,7.9-8.8,14.1-8.8c1.5,0,2.9,0.3,4.3,0.7v11.5c-2-0.5-3.9-0.9-5.8-0.9
				c-11.2,0-12.8,9.5-12.8,12l0,25.6h-11.9L393.5,24.4z"/>
			<path d="M450.8,33.9c8.7,0,14.1,5.8,14.1,14c0,8-5.4,14-14.2,14c-8.1,0-14-6.3-14-13.8C436.7,39.7,442.4,33.9,450.8,33.9
				 M464.9,24.4v7.2h-0.2c-3.5-5.8-9.8-8.4-16.4-8.4c-14.7,0-23.6,10.9-23.6,25.1c0,13.5,9.5,24.5,23.8,24.5c6,0,12.1-2.3,15.6-7
				h0.2v3.5c0,9.5-3.6,16-15.1,16c-6.7,0-11.6-2.5-16.4-6.9l-7.2,9.8c6.8,6,14.8,7.9,23.7,7.9c18.6,0,27-10.9,27-28.2V24.4
				L464.9,24.4z"/>
		</g>
	</g>
	<path d="M539.1,72.1L505,16.7h-0.2l0,55.5l-12.8,0l0-71.8l16.9,0l33.4,53.7h0.2V0.3l12.8,0v71.8L539.1,72.1z"/>
	<path d="M564.3,72.1l0-71.8l47.5,0v11.2l-34.8,0l0,18.2l32.9,0v10.7l-32.9,0v20.3l36.6,0v11.4L564.3,72.1z"/>
	<path d="M634.9,41.9l0,30.2l-12.8,0V0.3l46.3,0v11.2l-33.6,0v19.7l31.6,0v10.7L634.9,41.9z"/>
</g>
</svg>
